<mxfile host="app.diagrams.net" modified="2024-01-17T12:21:57.339Z" agent="Mozilla/5.0 (Windows NT 10.0; Win64; x64) AppleWebKit/537.36 (KHTML, like Gecko) Chrome/120.0.0.0 Safari/537.36 Edg/120.0.0.0" etag="gnD5dxlAXQNo-WU-oQGe" version="22.1.18" type="device" pages="3">
  <diagram name="Trang-1" id="Lo56utUssMUpFLz8nKNu">
    <mxGraphModel dx="1762" dy="974" grid="0" gridSize="10" guides="1" tooltips="1" connect="1" arrows="1" fold="1" page="1" pageScale="1" pageWidth="827" pageHeight="1169" background="#050505" math="1" shadow="0">
      <root>
        <mxCell id="0" />
        <mxCell id="1" parent="0" />
        <mxCell id="YtXNOp7GXrydsBSzh7PC-1" value="" style="endArrow=none;html=1;rounded=0;labelBackgroundColor=none;strokeColor=#FFFFFF;fontColor=default;strokeWidth=4;" parent="1" edge="1">
          <mxGeometry width="50" height="50" relative="1" as="geometry">
            <mxPoint x="120" y="320" as="sourcePoint" />
            <mxPoint x="200" y="240" as="targetPoint" />
          </mxGeometry>
        </mxCell>
        <mxCell id="YtXNOp7GXrydsBSzh7PC-2" value="" style="endArrow=none;html=1;rounded=0;labelBackgroundColor=none;strokeColor=#FFFFFF;fontColor=default;strokeWidth=4;" parent="1" edge="1">
          <mxGeometry width="50" height="50" relative="1" as="geometry">
            <mxPoint x="200" y="240" as="sourcePoint" />
            <mxPoint x="280" y="320" as="targetPoint" />
          </mxGeometry>
        </mxCell>
        <mxCell id="YtXNOp7GXrydsBSzh7PC-3" value="&lt;font style=&quot;font-size: 22px;&quot;&gt;x&lt;/font&gt;" style="ellipse;whiteSpace=wrap;html=1;aspect=fixed;labelBackgroundColor=none;fillColor=#EEEEEE;strokeColor=#FFFFFF;fontColor=#1A1A1A;strokeWidth=4;" parent="1" vertex="1">
          <mxGeometry x="100" y="320" width="40" height="40" as="geometry" />
        </mxCell>
        <mxCell id="YtXNOp7GXrydsBSzh7PC-4" value="&lt;span style=&quot;font-size: 22px;&quot;&gt;y&lt;/span&gt;" style="ellipse;whiteSpace=wrap;html=1;aspect=fixed;labelBackgroundColor=none;fillColor=#EEEEEE;strokeColor=#FFFFFF;fontColor=#1A1A1A;strokeWidth=4;" parent="1" vertex="1">
          <mxGeometry x="260" y="320" width="40" height="40" as="geometry" />
        </mxCell>
        <mxCell id="YtXNOp7GXrydsBSzh7PC-6" value="" style="endArrow=none;html=1;rounded=0;entryX=0;entryY=0.5;entryDx=0;entryDy=0;labelBackgroundColor=none;strokeColor=#FFFFFF;fontColor=default;strokeWidth=4;" parent="1" target="YtXNOp7GXrydsBSzh7PC-3" edge="1">
          <mxGeometry width="50" height="50" relative="1" as="geometry">
            <mxPoint x="80" y="440" as="sourcePoint" />
            <mxPoint x="440" y="390" as="targetPoint" />
          </mxGeometry>
        </mxCell>
        <mxCell id="YtXNOp7GXrydsBSzh7PC-7" value="" style="endArrow=none;html=1;rounded=0;labelBackgroundColor=none;strokeColor=#FFFFFF;fontColor=default;strokeWidth=4;" parent="1" edge="1">
          <mxGeometry width="50" height="50" relative="1" as="geometry">
            <mxPoint x="160" y="440" as="sourcePoint" />
            <mxPoint x="140" y="340" as="targetPoint" />
          </mxGeometry>
        </mxCell>
        <mxCell id="YtXNOp7GXrydsBSzh7PC-8" value="" style="endArrow=none;html=1;rounded=0;entryX=0;entryY=0.5;entryDx=0;entryDy=0;labelBackgroundColor=none;strokeColor=#FFFFFF;fontColor=default;strokeWidth=4;" parent="1" edge="1">
          <mxGeometry width="50" height="50" relative="1" as="geometry">
            <mxPoint x="240" y="440" as="sourcePoint" />
            <mxPoint x="260" y="340" as="targetPoint" />
          </mxGeometry>
        </mxCell>
        <mxCell id="YtXNOp7GXrydsBSzh7PC-9" value="" style="endArrow=none;html=1;rounded=0;entryX=1;entryY=0.5;entryDx=0;entryDy=0;labelBackgroundColor=none;strokeColor=#FFFFFF;fontColor=default;strokeWidth=4;" parent="1" edge="1">
          <mxGeometry width="50" height="50" relative="1" as="geometry">
            <mxPoint x="320" y="440" as="sourcePoint" />
            <mxPoint x="300" y="340" as="targetPoint" />
          </mxGeometry>
        </mxCell>
        <mxCell id="YtXNOp7GXrydsBSzh7PC-10" value="&lt;font style=&quot;font-size: 22px;&quot;&gt;sz[x]&lt;/font&gt;" style="text;html=1;strokeColor=none;fillColor=none;align=center;verticalAlign=middle;whiteSpace=wrap;rounded=0;labelBackgroundColor=none;fontColor=#FFFFFF;strokeWidth=4;" parent="1" vertex="1">
          <mxGeometry x="90" y="410" width="60" height="30" as="geometry" />
        </mxCell>
        <mxCell id="YtXNOp7GXrydsBSzh7PC-11" value="&lt;font style=&quot;font-size: 22px;&quot;&gt;sz[y]&lt;/font&gt;" style="text;html=1;strokeColor=none;fillColor=none;align=center;verticalAlign=middle;whiteSpace=wrap;rounded=0;labelBackgroundColor=none;fontColor=#FFFFFF;strokeWidth=4;" parent="1" vertex="1">
          <mxGeometry x="250" y="410" width="60" height="30" as="geometry" />
        </mxCell>
        <mxCell id="YtXNOp7GXrydsBSzh7PC-12" value="" style="endArrow=none;html=1;rounded=0;labelBackgroundColor=none;strokeColor=#FFFFFF;fontColor=default;strokeWidth=4;" parent="1" edge="1">
          <mxGeometry width="50" height="50" relative="1" as="geometry">
            <mxPoint x="240" y="440" as="sourcePoint" />
            <mxPoint x="320" y="440" as="targetPoint" />
          </mxGeometry>
        </mxCell>
        <mxCell id="YtXNOp7GXrydsBSzh7PC-13" value="" style="endArrow=none;html=1;rounded=0;labelBackgroundColor=none;strokeColor=#FFFFFF;fontColor=default;strokeWidth=4;" parent="1" edge="1">
          <mxGeometry width="50" height="50" relative="1" as="geometry">
            <mxPoint x="80" y="440" as="sourcePoint" />
            <mxPoint x="160" y="440" as="targetPoint" />
          </mxGeometry>
        </mxCell>
        <mxCell id="YtXNOp7GXrydsBSzh7PC-14" value="&lt;span style=&quot;font-size: 22px;&quot;&gt;z&lt;/span&gt;" style="ellipse;whiteSpace=wrap;html=1;aspect=fixed;labelBackgroundColor=none;fillColor=#EEEEEE;strokeColor=#FFFFFF;fontColor=#1A1A1A;strokeWidth=4;" parent="1" vertex="1">
          <mxGeometry x="500" y="240" width="40" height="40" as="geometry" />
        </mxCell>
        <mxCell id="YtXNOp7GXrydsBSzh7PC-15" value="&lt;span style=&quot;font-size: 22px;&quot;&gt;y&lt;/span&gt;" style="ellipse;whiteSpace=wrap;html=1;aspect=fixed;labelBackgroundColor=none;fillColor=#EEEEEE;strokeColor=#FFFFFF;fontColor=#1A1A1A;strokeWidth=4;" parent="1" vertex="1">
          <mxGeometry x="500" y="340" width="40" height="40" as="geometry" />
        </mxCell>
        <mxCell id="YtXNOp7GXrydsBSzh7PC-16" value="" style="endArrow=none;html=1;rounded=0;entryX=0;entryY=0.5;entryDx=0;entryDy=0;labelBackgroundColor=none;strokeColor=#FFFFFF;fontColor=default;strokeWidth=4;" parent="1" edge="1">
          <mxGeometry width="50" height="50" relative="1" as="geometry">
            <mxPoint x="480" y="460" as="sourcePoint" />
            <mxPoint x="500" y="360" as="targetPoint" />
          </mxGeometry>
        </mxCell>
        <mxCell id="YtXNOp7GXrydsBSzh7PC-17" value="" style="endArrow=none;html=1;rounded=0;entryX=1;entryY=0.5;entryDx=0;entryDy=0;labelBackgroundColor=none;strokeColor=#FFFFFF;fontColor=default;strokeWidth=4;" parent="1" edge="1">
          <mxGeometry width="50" height="50" relative="1" as="geometry">
            <mxPoint x="560" y="460" as="sourcePoint" />
            <mxPoint x="540" y="360" as="targetPoint" />
          </mxGeometry>
        </mxCell>
        <mxCell id="YtXNOp7GXrydsBSzh7PC-18" value="&lt;font style=&quot;font-size: 22px;&quot;&gt;sz[y]&lt;/font&gt;" style="text;html=1;strokeColor=none;fillColor=none;align=center;verticalAlign=middle;whiteSpace=wrap;rounded=0;labelBackgroundColor=none;fontColor=#FFFFFF;strokeWidth=4;" parent="1" vertex="1">
          <mxGeometry x="490" y="430" width="60" height="30" as="geometry" />
        </mxCell>
        <mxCell id="YtXNOp7GXrydsBSzh7PC-19" value="" style="endArrow=none;html=1;rounded=0;labelBackgroundColor=none;strokeColor=#FFFFFF;fontColor=default;strokeWidth=4;" parent="1" edge="1">
          <mxGeometry width="50" height="50" relative="1" as="geometry">
            <mxPoint x="480" y="460" as="sourcePoint" />
            <mxPoint x="560" y="460" as="targetPoint" />
          </mxGeometry>
        </mxCell>
        <mxCell id="YtXNOp7GXrydsBSzh7PC-26" value="" style="endArrow=none;html=1;rounded=0;entryX=0;entryY=1;entryDx=0;entryDy=0;labelBackgroundColor=none;strokeColor=#FFFFFF;fontColor=default;strokeWidth=4;" parent="1" target="YtXNOp7GXrydsBSzh7PC-14" edge="1">
          <mxGeometry width="50" height="50" relative="1" as="geometry">
            <mxPoint x="440" y="480" as="sourcePoint" />
            <mxPoint x="490" y="370" as="targetPoint" />
          </mxGeometry>
        </mxCell>
        <mxCell id="YtXNOp7GXrydsBSzh7PC-27" value="" style="endArrow=none;html=1;rounded=0;entryX=1;entryY=1;entryDx=0;entryDy=0;labelBackgroundColor=none;strokeColor=#FFFFFF;fontColor=default;strokeWidth=4;" parent="1" target="YtXNOp7GXrydsBSzh7PC-14" edge="1">
          <mxGeometry width="50" height="50" relative="1" as="geometry">
            <mxPoint x="600" y="480" as="sourcePoint" />
            <mxPoint x="490" y="370" as="targetPoint" />
          </mxGeometry>
        </mxCell>
        <mxCell id="YtXNOp7GXrydsBSzh7PC-20" value="&lt;font style=&quot;font-size: 22px;&quot;&gt;sz[z]&lt;/font&gt;" style="text;html=1;strokeColor=none;fillColor=none;align=center;verticalAlign=middle;whiteSpace=wrap;rounded=0;labelBackgroundColor=none;fontColor=#FFFFFF;strokeWidth=4;" parent="1" vertex="1">
          <mxGeometry x="490" y="300" width="60" height="30" as="geometry" />
        </mxCell>
        <mxCell id="YtXNOp7GXrydsBSzh7PC-34" value="" style="endArrow=none;html=1;rounded=0;exitX=0.5;exitY=1;exitDx=0;exitDy=0;entryX=0.5;entryY=0;entryDx=0;entryDy=0;labelBackgroundColor=none;strokeColor=#FFFFFF;fontColor=default;strokeWidth=4;" parent="1" source="YtXNOp7GXrydsBSzh7PC-20" target="YtXNOp7GXrydsBSzh7PC-15" edge="1">
          <mxGeometry width="50" height="50" relative="1" as="geometry">
            <mxPoint x="570" y="330" as="sourcePoint" />
            <mxPoint x="620" y="280" as="targetPoint" />
          </mxGeometry>
        </mxCell>
        <mxCell id="YtXNOp7GXrydsBSzh7PC-35" value="" style="endArrow=none;html=1;rounded=0;exitX=0.5;exitY=0;exitDx=0;exitDy=0;entryX=0.5;entryY=1;entryDx=0;entryDy=0;labelBackgroundColor=none;strokeColor=#FFFFFF;fontColor=default;strokeWidth=4;" parent="1" source="YtXNOp7GXrydsBSzh7PC-20" target="YtXNOp7GXrydsBSzh7PC-14" edge="1">
          <mxGeometry width="50" height="50" relative="1" as="geometry">
            <mxPoint x="580" y="310" as="sourcePoint" />
            <mxPoint x="630" y="260" as="targetPoint" />
          </mxGeometry>
        </mxCell>
        <mxCell id="YtXNOp7GXrydsBSzh7PC-36" value="" style="endArrow=none;html=1;rounded=0;labelBackgroundColor=none;strokeColor=#FFFFFF;fontColor=default;strokeWidth=4;" parent="1" edge="1">
          <mxGeometry width="50" height="50" relative="1" as="geometry">
            <mxPoint x="440" y="480" as="sourcePoint" />
            <mxPoint x="600" y="480" as="targetPoint" />
          </mxGeometry>
        </mxCell>
        <mxCell id="YtXNOp7GXrydsBSzh7PC-37" value="&lt;font style=&quot;font-size: 22px;&quot;&gt;x&lt;/font&gt;" style="ellipse;whiteSpace=wrap;html=1;aspect=fixed;labelBackgroundColor=none;fillColor=#EEEEEE;strokeColor=#FFFFFF;fontColor=#1A1A1A;strokeWidth=4;" parent="1" vertex="1">
          <mxGeometry x="600" y="199.38" width="40" height="40" as="geometry" />
        </mxCell>
        <mxCell id="YtXNOp7GXrydsBSzh7PC-38" value="" style="endArrow=none;html=1;rounded=0;entryX=0;entryY=0.5;entryDx=0;entryDy=0;labelBackgroundColor=none;strokeColor=#FFFFFF;fontColor=default;strokeWidth=4;" parent="1" target="YtXNOp7GXrydsBSzh7PC-37" edge="1">
          <mxGeometry width="50" height="50" relative="1" as="geometry">
            <mxPoint x="560" y="319" as="sourcePoint" />
            <mxPoint x="940" y="269.38" as="targetPoint" />
          </mxGeometry>
        </mxCell>
        <mxCell id="YtXNOp7GXrydsBSzh7PC-39" value="" style="endArrow=none;html=1;rounded=0;labelBackgroundColor=none;strokeColor=#FFFFFF;fontColor=default;strokeWidth=4;" parent="1" edge="1">
          <mxGeometry width="50" height="50" relative="1" as="geometry">
            <mxPoint x="680" y="319" as="sourcePoint" />
            <mxPoint x="640" y="219.38" as="targetPoint" />
          </mxGeometry>
        </mxCell>
        <mxCell id="YtXNOp7GXrydsBSzh7PC-40" value="&lt;font style=&quot;font-size: 22px;&quot;&gt;n-sz[z]&lt;/font&gt;" style="text;html=1;strokeColor=none;fillColor=none;align=center;verticalAlign=middle;whiteSpace=wrap;rounded=0;labelBackgroundColor=none;fontColor=#FFFFFF;strokeWidth=4;" parent="1" vertex="1">
          <mxGeometry x="570" y="290" width="100" height="30" as="geometry" />
        </mxCell>
        <mxCell id="YtXNOp7GXrydsBSzh7PC-41" value="" style="endArrow=none;html=1;rounded=0;labelBackgroundColor=none;strokeColor=#FFFFFF;fontColor=default;strokeWidth=4;" parent="1" edge="1">
          <mxGeometry width="50" height="50" relative="1" as="geometry">
            <mxPoint x="560" y="320" as="sourcePoint" />
            <mxPoint x="680" y="319" as="targetPoint" />
          </mxGeometry>
        </mxCell>
        <mxCell id="YtXNOp7GXrydsBSzh7PC-42" value="" style="endArrow=none;html=1;rounded=0;entryX=0;entryY=0.5;entryDx=0;entryDy=0;exitX=1;exitY=0;exitDx=0;exitDy=0;labelBackgroundColor=none;strokeColor=#FFFFFF;fontColor=default;strokeWidth=4;" parent="1" source="YtXNOp7GXrydsBSzh7PC-14" target="YtXNOp7GXrydsBSzh7PC-37" edge="1">
          <mxGeometry width="50" height="50" relative="1" as="geometry">
            <mxPoint x="300" y="350" as="sourcePoint" />
            <mxPoint x="350" y="300" as="targetPoint" />
          </mxGeometry>
        </mxCell>
        <mxCell id="YtXNOp7GXrydsBSzh7PC-43" value="" style="endArrow=classic;html=1;rounded=0;labelBackgroundColor=none;strokeColor=#FFFFFF;fontColor=default;strokeWidth=4;" parent="1" edge="1">
          <mxGeometry width="50" height="50" relative="1" as="geometry">
            <mxPoint x="570" y="230" as="sourcePoint" />
            <mxPoint x="520" y="200" as="targetPoint" />
          </mxGeometry>
        </mxCell>
        <mxCell id="YtXNOp7GXrydsBSzh7PC-44" value="&lt;font style=&quot;font-size: 22px;&quot;&gt;z=jump(x,y)&lt;/font&gt;" style="text;html=1;strokeColor=none;fillColor=none;align=center;verticalAlign=middle;whiteSpace=wrap;rounded=0;labelBackgroundColor=none;fontColor=#FFFFFF;strokeWidth=4;" parent="1" vertex="1">
          <mxGeometry x="390" y="180" width="126" height="30" as="geometry" />
        </mxCell>
        <mxCell id="YtXNOp7GXrydsBSzh7PC-47" value="&lt;span style=&quot;font-size: 22px;&quot;&gt;c&lt;/span&gt;" style="ellipse;whiteSpace=wrap;html=1;aspect=fixed;labelBackgroundColor=none;fillColor=#EEEEEE;strokeColor=#FFFFFF;fontColor=#1A1A1A;strokeWidth=4;" parent="1" vertex="1">
          <mxGeometry x="160" y="560" width="40" height="40" as="geometry" />
        </mxCell>
        <mxCell id="YtXNOp7GXrydsBSzh7PC-48" value="" style="endArrow=none;html=1;rounded=0;strokeColor=#FFFFFF;fontColor=#FFFFFF;strokeWidth=2;" parent="1" edge="1">
          <mxGeometry width="50" height="50" relative="1" as="geometry">
            <mxPoint x="120" y="640" as="sourcePoint" />
            <mxPoint x="180" y="600" as="targetPoint" />
          </mxGeometry>
        </mxCell>
        <mxCell id="YtXNOp7GXrydsBSzh7PC-49" value="" style="endArrow=none;html=1;rounded=0;strokeColor=#FFFFFF;fontColor=#FFFFFF;strokeWidth=2;" parent="1" edge="1">
          <mxGeometry width="50" height="50" relative="1" as="geometry">
            <mxPoint x="180" y="640" as="sourcePoint" />
            <mxPoint x="180" y="600" as="targetPoint" />
          </mxGeometry>
        </mxCell>
        <mxCell id="YtXNOp7GXrydsBSzh7PC-50" value="" style="endArrow=none;html=1;rounded=0;strokeColor=#FFFFFF;fontColor=#FFFFFF;strokeWidth=2;" parent="1" edge="1">
          <mxGeometry width="50" height="50" relative="1" as="geometry">
            <mxPoint x="240" y="640" as="sourcePoint" />
            <mxPoint x="180" y="600" as="targetPoint" />
          </mxGeometry>
        </mxCell>
        <mxCell id="YtXNOp7GXrydsBSzh7PC-51" value="&lt;span style=&quot;font-size: 15px;&quot;&gt;u&lt;sub&gt;1&lt;/sub&gt;&lt;/span&gt;" style="ellipse;whiteSpace=wrap;html=1;aspect=fixed;labelBackgroundColor=none;fillColor=#EEEEEE;strokeColor=#FFFFFF;fontColor=#1A1A1A;strokeWidth=4;fontSize=15;" parent="1" vertex="1">
          <mxGeometry x="100" y="640" width="40" height="40" as="geometry" />
        </mxCell>
        <mxCell id="YtXNOp7GXrydsBSzh7PC-52" value="&lt;span style=&quot;font-size: 15px;&quot;&gt;u&lt;sub&gt;2&lt;/sub&gt;&lt;/span&gt;" style="ellipse;whiteSpace=wrap;html=1;aspect=fixed;labelBackgroundColor=none;fillColor=#EEEEEE;strokeColor=#FFFFFF;fontColor=#1A1A1A;strokeWidth=4;fontSize=15;" parent="1" vertex="1">
          <mxGeometry x="160" y="640" width="40" height="40" as="geometry" />
        </mxCell>
        <mxCell id="YtXNOp7GXrydsBSzh7PC-53" value="&lt;span style=&quot;font-size: 15px;&quot;&gt;u&lt;sub&gt;3&lt;/sub&gt;&lt;/span&gt;" style="ellipse;whiteSpace=wrap;html=1;aspect=fixed;labelBackgroundColor=none;fillColor=#EEEEEE;strokeColor=#FFFFFF;fontColor=#1A1A1A;strokeWidth=4;fontSize=15;" parent="1" vertex="1">
          <mxGeometry x="220" y="640" width="40" height="40" as="geometry" />
        </mxCell>
        <mxCell id="YtXNOp7GXrydsBSzh7PC-56" value="" style="endArrow=none;dashed=1;html=1;dashPattern=1 4;strokeWidth=2;rounded=0;strokeColor=#FFFFFF;fontColor=#FFFFFF;" parent="1" edge="1">
          <mxGeometry width="50" height="50" relative="1" as="geometry">
            <mxPoint x="120" y="720" as="sourcePoint" />
            <mxPoint x="120" y="680" as="targetPoint" />
          </mxGeometry>
        </mxCell>
        <mxCell id="YtXNOp7GXrydsBSzh7PC-57" value="" style="endArrow=none;dashed=1;html=1;dashPattern=1 4;strokeWidth=2;rounded=0;strokeColor=#FFFFFF;fontColor=#FFFFFF;" parent="1" edge="1">
          <mxGeometry width="50" height="50" relative="1" as="geometry">
            <mxPoint x="179.84" y="720" as="sourcePoint" />
            <mxPoint x="179.84" y="680" as="targetPoint" />
          </mxGeometry>
        </mxCell>
        <mxCell id="YtXNOp7GXrydsBSzh7PC-58" value="v&lt;sub&gt;i&lt;/sub&gt;" style="ellipse;whiteSpace=wrap;html=1;aspect=fixed;labelBackgroundColor=none;fillColor=#EEEEEE;strokeColor=#FFFFFF;fontColor=#1A1A1A;strokeWidth=4;fontSize=15;" parent="1" vertex="1">
          <mxGeometry x="100" y="720" width="40" height="40" as="geometry" />
        </mxCell>
        <mxCell id="YtXNOp7GXrydsBSzh7PC-59" value="v&lt;sub&gt;j&lt;/sub&gt;" style="ellipse;whiteSpace=wrap;html=1;aspect=fixed;labelBackgroundColor=none;fillColor=#EEEEEE;strokeColor=#FFFFFF;fontColor=#1A1A1A;strokeWidth=4;fontSize=15;" parent="1" vertex="1">
          <mxGeometry x="160" y="720" width="40" height="40" as="geometry" />
        </mxCell>
        <mxCell id="YtXNOp7GXrydsBSzh7PC-61" value="u&lt;sub&gt;x&lt;/sub&gt;" style="ellipse;whiteSpace=wrap;html=1;aspect=fixed;labelBackgroundColor=none;fillColor=#EEEEEE;strokeColor=#FFFFFF;fontColor=#1A1A1A;strokeWidth=4;fontSize=15;" parent="1" vertex="1">
          <mxGeometry x="420" y="630" width="40" height="40" as="geometry" />
        </mxCell>
        <mxCell id="YtXNOp7GXrydsBSzh7PC-62" value="&lt;span style=&quot;font-size: 22px;&quot;&gt;c&lt;/span&gt;" style="ellipse;whiteSpace=wrap;html=1;aspect=fixed;labelBackgroundColor=none;fillColor=#EEEEEE;strokeColor=#FFFFFF;fontColor=#1A1A1A;strokeWidth=4;" parent="1" vertex="1">
          <mxGeometry x="476" y="560" width="40" height="40" as="geometry" />
        </mxCell>
        <mxCell id="YtXNOp7GXrydsBSzh7PC-63" value="" style="endArrow=none;html=1;rounded=0;strokeColor=#FFFFFF;fontColor=#FFFFFF;exitX=1;exitY=0;exitDx=0;exitDy=0;entryX=0;entryY=1;entryDx=0;entryDy=0;strokeWidth=2;" parent="1" source="YtXNOp7GXrydsBSzh7PC-61" target="YtXNOp7GXrydsBSzh7PC-62" edge="1">
          <mxGeometry width="50" height="50" relative="1" as="geometry">
            <mxPoint x="440" y="650" as="sourcePoint" />
            <mxPoint x="490" y="600" as="targetPoint" />
          </mxGeometry>
        </mxCell>
        <mxCell id="YtXNOp7GXrydsBSzh7PC-64" value="" style="endArrow=none;dashed=1;html=1;dashPattern=1 4;strokeWidth=2;rounded=0;strokeColor=#FFFFFF;fontColor=#FFFFFF;entryX=0.5;entryY=1;entryDx=0;entryDy=0;exitX=0.5;exitY=0;exitDx=0;exitDy=0;" parent="1" source="YtXNOp7GXrydsBSzh7PC-65" target="YtXNOp7GXrydsBSzh7PC-61" edge="1">
          <mxGeometry width="50" height="50" relative="1" as="geometry">
            <mxPoint x="479.84000000000003" y="690" as="sourcePoint" />
            <mxPoint x="479.84000000000003" y="650" as="targetPoint" />
          </mxGeometry>
        </mxCell>
        <mxCell id="YtXNOp7GXrydsBSzh7PC-65" value="v&lt;sub&gt;j&lt;/sub&gt;" style="ellipse;whiteSpace=wrap;html=1;aspect=fixed;labelBackgroundColor=none;fillColor=#EEEEEE;strokeColor=#FFFFFF;fontColor=#1A1A1A;strokeWidth=4;fontSize=15;" parent="1" vertex="1">
          <mxGeometry x="460" y="710" width="40" height="40" as="geometry" />
        </mxCell>
        <mxCell id="YtXNOp7GXrydsBSzh7PC-66" value="v&lt;sub&gt;i&lt;/sub&gt;" style="ellipse;whiteSpace=wrap;html=1;aspect=fixed;labelBackgroundColor=none;fillColor=#EEEEEE;strokeColor=#FFFFFF;fontColor=#1A1A1A;strokeWidth=4;fontSize=15;" parent="1" vertex="1">
          <mxGeometry x="380" y="710" width="40" height="40" as="geometry" />
        </mxCell>
        <mxCell id="YtXNOp7GXrydsBSzh7PC-67" value="" style="endArrow=none;dashed=1;html=1;dashPattern=1 4;strokeWidth=2;rounded=0;strokeColor=#FFFFFF;fontColor=#FFFFFF;entryX=0.5;entryY=1;entryDx=0;entryDy=0;exitX=0.5;exitY=0;exitDx=0;exitDy=0;" parent="1" source="YtXNOp7GXrydsBSzh7PC-66" target="YtXNOp7GXrydsBSzh7PC-61" edge="1">
          <mxGeometry width="50" height="50" relative="1" as="geometry">
            <mxPoint x="490" y="720" as="sourcePoint" />
            <mxPoint x="450" y="680" as="targetPoint" />
          </mxGeometry>
        </mxCell>
        <mxCell id="d4JrblzLSaVEqb2wmgps-1" value="&lt;font size=&quot;1&quot; style=&quot;&quot; color=&quot;#ffffff&quot;&gt;&lt;b style=&quot;font-size: 18px;&quot;&gt;`1`&lt;/b&gt;&lt;/font&gt;" style="whiteSpace=wrap;html=1;aspect=fixed;fillColor=#000000;strokeColor=#FFFFFF;strokeWidth=2;" vertex="1" parent="1">
          <mxGeometry x="160" y="880" width="40" height="40" as="geometry" />
        </mxCell>
        <mxCell id="d4JrblzLSaVEqb2wmgps-2" value="" style="whiteSpace=wrap;html=1;aspect=fixed;fillColor=#FFFFFF;strokeColor=#FFFFFF;strokeWidth=2;fillStyle=solid;gradientColor=none;opacity=60;" vertex="1" parent="1">
          <mxGeometry x="200" y="880" width="40" height="40" as="geometry" />
        </mxCell>
        <mxCell id="d4JrblzLSaVEqb2wmgps-3" value="" style="whiteSpace=wrap;html=1;aspect=fixed;fillColor=#000000;strokeColor=#FFFFFF;strokeWidth=2;" vertex="1" parent="1">
          <mxGeometry x="240" y="880" width="40" height="40" as="geometry" />
        </mxCell>
        <mxCell id="d4JrblzLSaVEqb2wmgps-4" value="" style="whiteSpace=wrap;html=1;aspect=fixed;fillColor=#000000;strokeColor=#FFFFFF;strokeWidth=2;" vertex="1" parent="1">
          <mxGeometry x="280" y="880" width="40" height="40" as="geometry" />
        </mxCell>
        <mxCell id="d4JrblzLSaVEqb2wmgps-6" value="" style="whiteSpace=wrap;html=1;aspect=fixed;fillColor=#000000;strokeColor=#FFFFFF;strokeWidth=2;" vertex="1" parent="1">
          <mxGeometry x="160" y="920" width="40" height="40" as="geometry" />
        </mxCell>
        <mxCell id="d4JrblzLSaVEqb2wmgps-8" value="" style="whiteSpace=wrap;html=1;aspect=fixed;fillColor=#000000;strokeColor=#FFFFFF;strokeWidth=2;" vertex="1" parent="1">
          <mxGeometry x="240" y="920" width="40" height="40" as="geometry" />
        </mxCell>
        <mxCell id="d4JrblzLSaVEqb2wmgps-10" value="" style="whiteSpace=wrap;html=1;aspect=fixed;fillColor=#FFFFFF;strokeColor=#FFFFFF;strokeWidth=2;fillStyle=solid;gradientColor=none;opacity=60;" vertex="1" parent="1">
          <mxGeometry x="320" y="920" width="40" height="40" as="geometry" />
        </mxCell>
        <mxCell id="d4JrblzLSaVEqb2wmgps-12" value="" style="whiteSpace=wrap;html=1;aspect=fixed;fillColor=#FFFFFF;strokeColor=#FFFFFF;strokeWidth=2;fillStyle=solid;gradientColor=none;opacity=60;" vertex="1" parent="1">
          <mxGeometry x="200" y="960" width="40" height="40" as="geometry" />
        </mxCell>
        <mxCell id="d4JrblzLSaVEqb2wmgps-13" value="" style="whiteSpace=wrap;html=1;aspect=fixed;fillColor=#000000;strokeColor=#FFFFFF;strokeWidth=2;" vertex="1" parent="1">
          <mxGeometry x="240" y="960" width="40" height="40" as="geometry" />
        </mxCell>
        <mxCell id="d4JrblzLSaVEqb2wmgps-14" value="" style="whiteSpace=wrap;html=1;aspect=fixed;fillColor=#000000;strokeColor=#FFFFFF;strokeWidth=2;" vertex="1" parent="1">
          <mxGeometry x="280" y="960" width="40" height="40" as="geometry" />
        </mxCell>
        <mxCell id="d4JrblzLSaVEqb2wmgps-16" value="" style="whiteSpace=wrap;html=1;aspect=fixed;fillColor=#000000;strokeColor=#FFFFFF;strokeWidth=2;" vertex="1" parent="1">
          <mxGeometry x="160" y="1000" width="40" height="40" as="geometry" />
        </mxCell>
        <mxCell id="d4JrblzLSaVEqb2wmgps-18" value="" style="whiteSpace=wrap;html=1;aspect=fixed;fillColor=#000000;strokeColor=#FFFFFF;strokeWidth=2;" vertex="1" parent="1">
          <mxGeometry x="240" y="1000" width="40" height="40" as="geometry" />
        </mxCell>
        <mxCell id="d4JrblzLSaVEqb2wmgps-19" value="" style="whiteSpace=wrap;html=1;aspect=fixed;fillColor=#000000;strokeColor=#FFFFFF;strokeWidth=2;" vertex="1" parent="1">
          <mxGeometry x="280" y="1000" width="40" height="40" as="geometry" />
        </mxCell>
        <mxCell id="d4JrblzLSaVEqb2wmgps-20" value="" style="whiteSpace=wrap;html=1;aspect=fixed;fillColor=#FFFFFF;strokeColor=#FFFFFF;strokeWidth=2;fillStyle=solid;gradientColor=none;opacity=60;" vertex="1" parent="1">
          <mxGeometry x="320" y="1000" width="40" height="40" as="geometry" />
        </mxCell>
        <mxCell id="d4JrblzLSaVEqb2wmgps-21" value="" style="whiteSpace=wrap;html=1;aspect=fixed;fillColor=#000000;strokeColor=#FFFFFF;strokeWidth=2;" vertex="1" parent="1">
          <mxGeometry x="160" y="1040" width="40" height="40" as="geometry" />
        </mxCell>
        <mxCell id="d4JrblzLSaVEqb2wmgps-22" value="" style="whiteSpace=wrap;html=1;aspect=fixed;fillColor=#FFFFFF;strokeColor=#FFFFFF;strokeWidth=2;fillStyle=solid;gradientColor=none;opacity=60;" vertex="1" parent="1">
          <mxGeometry x="200" y="1040" width="40" height="40" as="geometry" />
        </mxCell>
        <mxCell id="d4JrblzLSaVEqb2wmgps-23" value="" style="whiteSpace=wrap;html=1;aspect=fixed;fillColor=#000000;strokeColor=#FFFFFF;strokeWidth=2;" vertex="1" parent="1">
          <mxGeometry x="240" y="1040" width="40" height="40" as="geometry" />
        </mxCell>
        <mxCell id="d4JrblzLSaVEqb2wmgps-24" value="" style="whiteSpace=wrap;html=1;aspect=fixed;fillColor=#000000;strokeColor=#FFFFFF;strokeWidth=2;" vertex="1" parent="1">
          <mxGeometry x="280" y="1040" width="40" height="40" as="geometry" />
        </mxCell>
        <mxCell id="d4JrblzLSaVEqb2wmgps-25" value="" style="whiteSpace=wrap;html=1;aspect=fixed;fillColor=#FFFFFF;strokeColor=#FFFFFF;strokeWidth=2;fillStyle=solid;gradientColor=none;opacity=60;" vertex="1" parent="1">
          <mxGeometry x="320" y="1040" width="40" height="40" as="geometry" />
        </mxCell>
        <mxCell id="d4JrblzLSaVEqb2wmgps-26" value="&lt;font color=&quot;#ffffff&quot;&gt;&lt;span style=&quot;font-size: 20px;&quot;&gt;&lt;b&gt;`5`&lt;/b&gt;&lt;/span&gt;&lt;/font&gt;" style="whiteSpace=wrap;html=1;aspect=fixed;fillColor=#FFFFFF;strokeColor=#FFFFFF;strokeWidth=2;fillStyle=solid;gradientColor=none;opacity=60;" vertex="1" parent="1">
          <mxGeometry x="320" y="880" width="40" height="40" as="geometry" />
        </mxCell>
        <mxCell id="d4JrblzLSaVEqb2wmgps-27" value="&lt;font color=&quot;#ffffff&quot;&gt;&lt;span style=&quot;font-size: 20px;&quot;&gt;&lt;b&gt;`3`&lt;/b&gt;&lt;/span&gt;&lt;/font&gt;" style="whiteSpace=wrap;html=1;aspect=fixed;fillColor=#FFFFFF;strokeColor=#FFFFFF;strokeWidth=2;fillStyle=solid;gradientColor=none;opacity=60;" vertex="1" parent="1">
          <mxGeometry x="200" y="920" width="40" height="40" as="geometry" />
        </mxCell>
        <mxCell id="d4JrblzLSaVEqb2wmgps-28" value="&lt;font color=&quot;#ffffff&quot;&gt;&lt;span style=&quot;font-size: 20px;&quot;&gt;&lt;b&gt;`2`&lt;/b&gt;&lt;/span&gt;&lt;/font&gt;" style="whiteSpace=wrap;html=1;aspect=fixed;fillColor=#000000;strokeColor=#FFFFFF;strokeWidth=2;" vertex="1" parent="1">
          <mxGeometry x="160" y="960" width="40" height="40" as="geometry" />
        </mxCell>
        <mxCell id="d4JrblzLSaVEqb2wmgps-29" value="&lt;font color=&quot;#ffffff&quot;&gt;&lt;span style=&quot;font-size: 20px;&quot;&gt;&lt;b&gt;`2`&lt;/b&gt;&lt;/span&gt;&lt;/font&gt;" style="whiteSpace=wrap;html=1;aspect=fixed;fillColor=#FFFFFF;strokeColor=#FFFFFF;strokeWidth=2;fillStyle=solid;gradientColor=none;opacity=60;" vertex="1" parent="1">
          <mxGeometry x="320" y="960" width="40" height="40" as="geometry" />
        </mxCell>
        <mxCell id="d4JrblzLSaVEqb2wmgps-30" value="&lt;font color=&quot;#ffffff&quot;&gt;&lt;span style=&quot;font-size: 20px;&quot;&gt;&lt;b&gt;`4`&lt;/b&gt;&lt;/span&gt;&lt;/font&gt;" style="whiteSpace=wrap;html=1;aspect=fixed;fillColor=#FFFFFF;strokeColor=#FFFFFF;strokeWidth=2;fillStyle=solid;gradientColor=none;opacity=60;" vertex="1" parent="1">
          <mxGeometry x="200" y="1000" width="40" height="40" as="geometry" />
        </mxCell>
        <mxCell id="d4JrblzLSaVEqb2wmgps-31" value="" style="whiteSpace=wrap;html=1;aspect=fixed;fillColor=#FFFFFF;strokeColor=#FFFFFF;strokeWidth=2;fillStyle=solid;gradientColor=none;opacity=60;" vertex="1" parent="1">
          <mxGeometry x="160" y="920" width="40" height="40" as="geometry" />
        </mxCell>
        <mxCell id="d4JrblzLSaVEqb2wmgps-32" value="" style="whiteSpace=wrap;html=1;aspect=fixed;fillColor=#FFFFFF;strokeColor=#FFFFFF;strokeWidth=2;fillStyle=solid;gradientColor=none;opacity=60;" vertex="1" parent="1">
          <mxGeometry x="240" y="920" width="40" height="40" as="geometry" />
        </mxCell>
        <mxCell id="d4JrblzLSaVEqb2wmgps-33" value="&lt;font style=&quot;font-size: 10px;&quot;&gt;`2 \to 5`&lt;/font&gt;" style="whiteSpace=wrap;html=1;aspect=fixed;fillColor=#FFFFFF;strokeColor=#FFFFFF;strokeWidth=2;fillStyle=solid;gradientColor=none;opacity=60;fontColor=#FFFFFF;fontStyle=1" vertex="1" parent="1">
          <mxGeometry x="280" y="920" width="40" height="40" as="geometry" />
        </mxCell>
        <mxCell id="d4JrblzLSaVEqb2wmgps-34" value="1" style="text;strokeColor=none;fillColor=none;align=center;verticalAlign=middle;spacingLeft=4;spacingRight=4;overflow=hidden;points=[[0,0.5],[1,0.5]];portConstraint=eastwest;rotatable=0;whiteSpace=wrap;html=1;fontSize=20;labelBackgroundColor=none;fontColor=#FFFFFF;fontStyle=1" vertex="1" parent="1">
          <mxGeometry x="160" y="850" width="40" height="30" as="geometry" />
        </mxCell>
        <mxCell id="d4JrblzLSaVEqb2wmgps-35" value="2" style="text;strokeColor=none;fillColor=none;align=center;verticalAlign=middle;spacingLeft=4;spacingRight=4;overflow=hidden;points=[[0,0.5],[1,0.5]];portConstraint=eastwest;rotatable=0;whiteSpace=wrap;html=1;fontSize=20;labelBackgroundColor=none;fontColor=#FFFFFF;fontStyle=5" vertex="1" parent="1">
          <mxGeometry x="200" y="850" width="40" height="30" as="geometry" />
        </mxCell>
        <mxCell id="d4JrblzLSaVEqb2wmgps-36" value="3" style="text;strokeColor=none;fillColor=none;align=center;verticalAlign=middle;spacingLeft=4;spacingRight=4;overflow=hidden;points=[[0,0.5],[1,0.5]];portConstraint=eastwest;rotatable=0;whiteSpace=wrap;html=1;fontSize=20;labelBackgroundColor=none;fontColor=#FFFFFF;fontStyle=1" vertex="1" parent="1">
          <mxGeometry x="240" y="850" width="40" height="30" as="geometry" />
        </mxCell>
        <mxCell id="d4JrblzLSaVEqb2wmgps-37" value="4" style="text;strokeColor=none;fillColor=none;align=center;verticalAlign=middle;spacingLeft=4;spacingRight=4;overflow=hidden;points=[[0,0.5],[1,0.5]];portConstraint=eastwest;rotatable=0;whiteSpace=wrap;html=1;fontSize=20;labelBackgroundColor=none;fontColor=#FFFFFF;fontStyle=1" vertex="1" parent="1">
          <mxGeometry x="280" y="850" width="40" height="30" as="geometry" />
        </mxCell>
        <mxCell id="d4JrblzLSaVEqb2wmgps-38" value="5" style="text;strokeColor=none;fillColor=none;align=center;verticalAlign=middle;spacingLeft=4;spacingRight=4;overflow=hidden;points=[[0,0.5],[1,0.5]];portConstraint=eastwest;rotatable=0;whiteSpace=wrap;html=1;fontSize=20;labelBackgroundColor=none;fontColor=#FFFFFF;fontStyle=5" vertex="1" parent="1">
          <mxGeometry x="320" y="850" width="40" height="30" as="geometry" />
        </mxCell>
        <mxCell id="d4JrblzLSaVEqb2wmgps-45" value="1" style="text;strokeColor=none;fillColor=none;align=center;verticalAlign=middle;spacingLeft=4;spacingRight=4;overflow=hidden;points=[[0,0.5],[1,0.5]];portConstraint=eastwest;rotatable=0;whiteSpace=wrap;html=1;fontSize=20;labelBackgroundColor=none;fontColor=#FFFFFF;fontStyle=1" vertex="1" parent="1">
          <mxGeometry x="120" y="885" width="40" height="30" as="geometry" />
        </mxCell>
        <mxCell id="d4JrblzLSaVEqb2wmgps-46" value="2" style="text;strokeColor=none;fillColor=none;align=center;verticalAlign=middle;spacingLeft=4;spacingRight=4;overflow=hidden;points=[[0,0.5],[1,0.5]];portConstraint=eastwest;rotatable=0;whiteSpace=wrap;html=1;fontSize=20;labelBackgroundColor=none;fontColor=#FFFFFF;fontStyle=5" vertex="1" parent="1">
          <mxGeometry x="120" y="925" width="40" height="30" as="geometry" />
        </mxCell>
        <mxCell id="d4JrblzLSaVEqb2wmgps-48" value="3" style="text;strokeColor=none;fillColor=none;align=center;verticalAlign=middle;spacingLeft=4;spacingRight=4;overflow=hidden;points=[[0,0.5],[1,0.5]];portConstraint=eastwest;rotatable=0;whiteSpace=wrap;html=1;fontSize=20;labelBackgroundColor=none;fontColor=#FFFFFF;fontStyle=1" vertex="1" parent="1">
          <mxGeometry x="120" y="965" width="40" height="30" as="geometry" />
        </mxCell>
        <mxCell id="d4JrblzLSaVEqb2wmgps-50" value="4" style="text;strokeColor=none;fillColor=none;align=center;verticalAlign=middle;spacingLeft=4;spacingRight=4;overflow=hidden;points=[[0,0.5],[1,0.5]];portConstraint=eastwest;rotatable=0;whiteSpace=wrap;html=1;fontSize=20;labelBackgroundColor=none;fontColor=#FFFFFF;fontStyle=1" vertex="1" parent="1">
          <mxGeometry x="120" y="1005" width="40" height="30" as="geometry" />
        </mxCell>
        <mxCell id="d4JrblzLSaVEqb2wmgps-52" value="5" style="text;strokeColor=none;fillColor=none;align=center;verticalAlign=middle;spacingLeft=4;spacingRight=4;overflow=hidden;points=[[0,0.5],[1,0.5]];portConstraint=eastwest;rotatable=0;whiteSpace=wrap;html=1;fontSize=20;labelBackgroundColor=none;fontColor=#FFFFFF;fontStyle=1" vertex="1" parent="1">
          <mxGeometry x="120" y="1045" width="40" height="30" as="geometry" />
        </mxCell>
        <mxCell id="d4JrblzLSaVEqb2wmgps-68" value="" style="whiteSpace=wrap;html=1;aspect=fixed;fillColor=none;strokeColor=#FFFFFF;strokeWidth=2;fillStyle=solid;gradientColor=none;opacity=60;" vertex="1" parent="1">
          <mxGeometry x="600" y="920" width="40" height="40" as="geometry" />
        </mxCell>
        <mxCell id="d4JrblzLSaVEqb2wmgps-70" value="" style="whiteSpace=wrap;html=1;aspect=fixed;fillColor=#000000;strokeColor=#FFFFFF;strokeWidth=2;" vertex="1" parent="1">
          <mxGeometry x="520" y="960" width="40" height="40" as="geometry" />
        </mxCell>
        <mxCell id="d4JrblzLSaVEqb2wmgps-71" value="" style="whiteSpace=wrap;html=1;aspect=fixed;fillColor=#000000;strokeColor=#FFFFFF;strokeWidth=2;" vertex="1" parent="1">
          <mxGeometry x="560" y="960" width="40" height="40" as="geometry" />
        </mxCell>
        <mxCell id="d4JrblzLSaVEqb2wmgps-72" value="" style="whiteSpace=wrap;html=1;aspect=fixed;fillColor=#000000;strokeColor=#FFFFFF;strokeWidth=2;" vertex="1" parent="1">
          <mxGeometry x="440" y="1000" width="40" height="40" as="geometry" />
        </mxCell>
        <mxCell id="d4JrblzLSaVEqb2wmgps-73" value="" style="whiteSpace=wrap;html=1;aspect=fixed;fillColor=#000000;strokeColor=#FFFFFF;strokeWidth=2;" vertex="1" parent="1">
          <mxGeometry x="520" y="1000" width="40" height="40" as="geometry" />
        </mxCell>
        <mxCell id="d4JrblzLSaVEqb2wmgps-74" value="" style="whiteSpace=wrap;html=1;aspect=fixed;fillColor=#000000;strokeColor=#FFFFFF;strokeWidth=2;" vertex="1" parent="1">
          <mxGeometry x="560" y="1000" width="40" height="40" as="geometry" />
        </mxCell>
        <mxCell id="d4JrblzLSaVEqb2wmgps-75" value="" style="whiteSpace=wrap;html=1;aspect=fixed;fillColor=none;strokeColor=#FFFFFF;strokeWidth=2;fillStyle=solid;gradientColor=none;opacity=60;" vertex="1" parent="1">
          <mxGeometry x="600" y="1000" width="40" height="40" as="geometry" />
        </mxCell>
        <mxCell id="d4JrblzLSaVEqb2wmgps-76" value="" style="whiteSpace=wrap;html=1;aspect=fixed;fillColor=#000000;strokeColor=#FFFFFF;strokeWidth=2;" vertex="1" parent="1">
          <mxGeometry x="440" y="1040" width="40" height="40" as="geometry" />
        </mxCell>
        <mxCell id="d4JrblzLSaVEqb2wmgps-78" value="" style="whiteSpace=wrap;html=1;aspect=fixed;fillColor=#000000;strokeColor=#FFFFFF;strokeWidth=2;" vertex="1" parent="1">
          <mxGeometry x="520" y="1040" width="40" height="40" as="geometry" />
        </mxCell>
        <mxCell id="d4JrblzLSaVEqb2wmgps-79" value="" style="whiteSpace=wrap;html=1;aspect=fixed;fillColor=#000000;strokeColor=#FFFFFF;strokeWidth=2;" vertex="1" parent="1">
          <mxGeometry x="560" y="1040" width="40" height="40" as="geometry" />
        </mxCell>
        <mxCell id="d4JrblzLSaVEqb2wmgps-80" value="" style="whiteSpace=wrap;html=1;aspect=fixed;fillColor=none;strokeColor=#FFFFFF;strokeWidth=2;fillStyle=solid;gradientColor=none;opacity=60;" vertex="1" parent="1">
          <mxGeometry x="600" y="1040" width="40" height="40" as="geometry" />
        </mxCell>
        <mxCell id="d4JrblzLSaVEqb2wmgps-89" value="1" style="text;strokeColor=none;fillColor=none;align=center;verticalAlign=middle;spacingLeft=4;spacingRight=4;overflow=hidden;points=[[0,0.5],[1,0.5]];portConstraint=eastwest;rotatable=0;whiteSpace=wrap;html=1;fontSize=20;labelBackgroundColor=none;fontColor=#FFFFFF;fontStyle=1" vertex="1" parent="1">
          <mxGeometry x="440" y="850" width="40" height="30" as="geometry" />
        </mxCell>
        <mxCell id="d4JrblzLSaVEqb2wmgps-90" value="2" style="text;strokeColor=none;fillColor=none;align=center;verticalAlign=middle;spacingLeft=4;spacingRight=4;overflow=hidden;points=[[0,0.5],[1,0.5]];portConstraint=eastwest;rotatable=0;whiteSpace=wrap;html=1;fontSize=20;labelBackgroundColor=none;fontColor=#FFFFFF;fontStyle=5" vertex="1" parent="1">
          <mxGeometry x="480" y="850" width="40" height="30" as="geometry" />
        </mxCell>
        <mxCell id="d4JrblzLSaVEqb2wmgps-91" value="3" style="text;strokeColor=none;fillColor=none;align=center;verticalAlign=middle;spacingLeft=4;spacingRight=4;overflow=hidden;points=[[0,0.5],[1,0.5]];portConstraint=eastwest;rotatable=0;whiteSpace=wrap;html=1;fontSize=20;labelBackgroundColor=none;fontColor=#FFFFFF;fontStyle=1" vertex="1" parent="1">
          <mxGeometry x="520" y="850" width="40" height="30" as="geometry" />
        </mxCell>
        <mxCell id="d4JrblzLSaVEqb2wmgps-92" value="4" style="text;strokeColor=none;fillColor=none;align=center;verticalAlign=middle;spacingLeft=4;spacingRight=4;overflow=hidden;points=[[0,0.5],[1,0.5]];portConstraint=eastwest;rotatable=0;whiteSpace=wrap;html=1;fontSize=20;labelBackgroundColor=none;fontColor=#FFFFFF;fontStyle=1" vertex="1" parent="1">
          <mxGeometry x="560" y="850" width="40" height="30" as="geometry" />
        </mxCell>
        <mxCell id="d4JrblzLSaVEqb2wmgps-93" value="5" style="text;strokeColor=none;fillColor=none;align=center;verticalAlign=middle;spacingLeft=4;spacingRight=4;overflow=hidden;points=[[0,0.5],[1,0.5]];portConstraint=eastwest;rotatable=0;whiteSpace=wrap;html=1;fontSize=20;labelBackgroundColor=none;fontColor=#FFFFFF;fontStyle=1" vertex="1" parent="1">
          <mxGeometry x="600" y="850" width="40" height="30" as="geometry" />
        </mxCell>
        <mxCell id="d4JrblzLSaVEqb2wmgps-94" value="1" style="text;strokeColor=none;fillColor=none;align=center;verticalAlign=middle;spacingLeft=4;spacingRight=4;overflow=hidden;points=[[0,0.5],[1,0.5]];portConstraint=eastwest;rotatable=0;whiteSpace=wrap;html=1;fontSize=20;labelBackgroundColor=none;fontColor=#FFFFFF;fontStyle=5" vertex="1" parent="1">
          <mxGeometry x="400" y="885" width="40" height="30" as="geometry" />
        </mxCell>
        <mxCell id="d4JrblzLSaVEqb2wmgps-95" value="2" style="text;strokeColor=none;fillColor=none;align=center;verticalAlign=middle;spacingLeft=4;spacingRight=4;overflow=hidden;points=[[0,0.5],[1,0.5]];portConstraint=eastwest;rotatable=0;whiteSpace=wrap;html=1;fontSize=20;labelBackgroundColor=none;fontColor=#FFFFFF;fontStyle=1" vertex="1" parent="1">
          <mxGeometry x="400" y="925" width="40" height="30" as="geometry" />
        </mxCell>
        <mxCell id="d4JrblzLSaVEqb2wmgps-96" value="3" style="text;strokeColor=none;fillColor=none;align=center;verticalAlign=middle;spacingLeft=4;spacingRight=4;overflow=hidden;points=[[0,0.5],[1,0.5]];portConstraint=eastwest;rotatable=0;whiteSpace=wrap;html=1;fontSize=20;labelBackgroundColor=none;fontColor=#FFFFFF;fontStyle=5" vertex="1" parent="1">
          <mxGeometry x="400" y="965" width="40" height="30" as="geometry" />
        </mxCell>
        <mxCell id="d4JrblzLSaVEqb2wmgps-97" value="4" style="text;strokeColor=none;fillColor=none;align=center;verticalAlign=middle;spacingLeft=4;spacingRight=4;overflow=hidden;points=[[0,0.5],[1,0.5]];portConstraint=eastwest;rotatable=0;whiteSpace=wrap;html=1;fontSize=20;labelBackgroundColor=none;fontColor=#FFFFFF;fontStyle=1" vertex="1" parent="1">
          <mxGeometry x="400" y="1005" width="40" height="30" as="geometry" />
        </mxCell>
        <mxCell id="d4JrblzLSaVEqb2wmgps-98" value="5" style="text;strokeColor=none;fillColor=none;align=center;verticalAlign=middle;spacingLeft=4;spacingRight=4;overflow=hidden;points=[[0,0.5],[1,0.5]];portConstraint=eastwest;rotatable=0;whiteSpace=wrap;html=1;fontSize=20;labelBackgroundColor=none;fontColor=#FFFFFF;fontStyle=1" vertex="1" parent="1">
          <mxGeometry x="400" y="1045" width="40" height="30" as="geometry" />
        </mxCell>
        <mxCell id="d4JrblzLSaVEqb2wmgps-100" value="" style="whiteSpace=wrap;html=1;aspect=fixed;fillColor=#000000;strokeColor=#FFFFFF;strokeWidth=2;" vertex="1" parent="1">
          <mxGeometry x="600" y="920" width="40" height="40" as="geometry" />
        </mxCell>
        <mxCell id="d4JrblzLSaVEqb2wmgps-101" value="" style="whiteSpace=wrap;html=1;aspect=fixed;fillColor=#000000;strokeColor=#FFFFFF;strokeWidth=2;" vertex="1" parent="1">
          <mxGeometry x="600" y="960" width="40" height="40" as="geometry" />
        </mxCell>
        <mxCell id="d4JrblzLSaVEqb2wmgps-102" value="" style="whiteSpace=wrap;html=1;aspect=fixed;fillColor=#000000;strokeColor=#FFFFFF;strokeWidth=2;" vertex="1" parent="1">
          <mxGeometry x="600" y="1000" width="40" height="40" as="geometry" />
        </mxCell>
        <mxCell id="d4JrblzLSaVEqb2wmgps-103" value="" style="whiteSpace=wrap;html=1;aspect=fixed;fillColor=#000000;strokeColor=#FFFFFF;strokeWidth=2;" vertex="1" parent="1">
          <mxGeometry x="600" y="1040" width="40" height="40" as="geometry" />
        </mxCell>
        <mxCell id="d4JrblzLSaVEqb2wmgps-104" value="" style="whiteSpace=wrap;html=1;aspect=fixed;fillColor=#000000;strokeColor=#FFFFFF;strokeWidth=2;" vertex="1" parent="1">
          <mxGeometry x="560" y="920" width="40" height="40" as="geometry" />
        </mxCell>
        <mxCell id="d4JrblzLSaVEqb2wmgps-105" value="" style="whiteSpace=wrap;html=1;aspect=fixed;fillColor=#000000;strokeColor=#FFFFFF;strokeWidth=2;" vertex="1" parent="1">
          <mxGeometry x="480" y="1040" width="40" height="40" as="geometry" />
        </mxCell>
        <mxCell id="d4JrblzLSaVEqb2wmgps-107" value="" style="whiteSpace=wrap;html=1;aspect=fixed;fillColor=#000000;strokeColor=#FFFFFF;strokeWidth=2;" vertex="1" parent="1">
          <mxGeometry x="480" y="960" width="40" height="40" as="geometry" />
        </mxCell>
        <mxCell id="d4JrblzLSaVEqb2wmgps-108" value="" style="whiteSpace=wrap;html=1;aspect=fixed;fillColor=#000000;strokeColor=#FFFFFF;strokeWidth=2;" vertex="1" parent="1">
          <mxGeometry x="480" y="920" width="40" height="40" as="geometry" />
        </mxCell>
        <mxCell id="d4JrblzLSaVEqb2wmgps-115" value="" style="whiteSpace=wrap;html=1;aspect=fixed;fillColor=#000000;strokeColor=#FFFFFF;strokeWidth=2;" vertex="1" parent="1">
          <mxGeometry x="440" y="920" width="40" height="40" as="geometry" />
        </mxCell>
        <mxCell id="d4JrblzLSaVEqb2wmgps-116" value="&lt;font color=&quot;#ffffff&quot;&gt;&lt;span style=&quot;font-size: 20px;&quot;&gt;&lt;b&gt;`1`&lt;/b&gt;&lt;/span&gt;&lt;/font&gt;" style="whiteSpace=wrap;html=1;aspect=fixed;fillColor=#FFFFFF;strokeColor=#FFFFFF;strokeWidth=2;fillStyle=solid;gradientColor=none;opacity=60;" vertex="1" parent="1">
          <mxGeometry x="440" y="880" width="40" height="40" as="geometry" />
        </mxCell>
        <mxCell id="d4JrblzLSaVEqb2wmgps-117" value="" style="whiteSpace=wrap;html=1;aspect=fixed;fillColor=#FFFFFF;strokeColor=#FFFFFF;strokeWidth=2;fillStyle=solid;gradientColor=none;opacity=60;" vertex="1" parent="1">
          <mxGeometry x="480" y="880" width="40" height="40" as="geometry" />
        </mxCell>
        <mxCell id="d4JrblzLSaVEqb2wmgps-118" value="" style="whiteSpace=wrap;html=1;aspect=fixed;fillColor=#FFFFFF;strokeColor=#FFFFFF;strokeWidth=2;fillStyle=solid;gradientColor=none;opacity=60;" vertex="1" parent="1">
          <mxGeometry x="520" y="880" width="40" height="40" as="geometry" />
        </mxCell>
        <mxCell id="d4JrblzLSaVEqb2wmgps-119" value="" style="whiteSpace=wrap;html=1;aspect=fixed;fillColor=#FFFFFF;strokeColor=#FFFFFF;strokeWidth=2;fillStyle=solid;gradientColor=none;opacity=60;" vertex="1" parent="1">
          <mxGeometry x="560" y="880" width="40" height="40" as="geometry" />
        </mxCell>
        <mxCell id="d4JrblzLSaVEqb2wmgps-122" value="" style="whiteSpace=wrap;html=1;aspect=fixed;fillColor=#FFFFFF;strokeColor=#FFFFFF;strokeWidth=2;fillStyle=solid;gradientColor=none;opacity=60;" vertex="1" parent="1">
          <mxGeometry x="480" y="960" width="40" height="40" as="geometry" />
        </mxCell>
        <mxCell id="d4JrblzLSaVEqb2wmgps-124" value="" style="whiteSpace=wrap;html=1;aspect=fixed;fillColor=#FFFFFF;strokeColor=#FFFFFF;strokeWidth=2;fillStyle=solid;gradientColor=none;opacity=60;" vertex="1" parent="1">
          <mxGeometry x="480" y="1040" width="40" height="40" as="geometry" />
        </mxCell>
        <mxCell id="d4JrblzLSaVEqb2wmgps-126" value="" style="whiteSpace=wrap;html=1;aspect=fixed;fillColor=#FFFFFF;strokeColor=#FFFFFF;strokeWidth=2;fillStyle=solid;gradientColor=none;opacity=60;" vertex="1" parent="1">
          <mxGeometry x="520" y="960" width="40" height="40" as="geometry" />
        </mxCell>
        <mxCell id="d4JrblzLSaVEqb2wmgps-127" value="" style="whiteSpace=wrap;html=1;aspect=fixed;fillColor=#FFFFFF;strokeColor=#FFFFFF;strokeWidth=2;fillStyle=solid;gradientColor=none;opacity=60;" vertex="1" parent="1">
          <mxGeometry x="560" y="960" width="40" height="40" as="geometry" />
        </mxCell>
        <mxCell id="d4JrblzLSaVEqb2wmgps-129" value="&lt;font style=&quot;font-size: 10px;&quot;&gt;`2 \to 9`&lt;/font&gt;" style="whiteSpace=wrap;html=1;aspect=fixed;fillColor=#FFFFFF;strokeColor=#FFFFFF;strokeWidth=2;fillStyle=solid;gradientColor=none;opacity=60;fontColor=#FFFFFF;fontStyle=1" vertex="1" parent="1">
          <mxGeometry x="440" y="960" width="40" height="40" as="geometry" />
        </mxCell>
        <mxCell id="d4JrblzLSaVEqb2wmgps-130" value="&lt;font color=&quot;#ffffff&quot;&gt;&lt;span style=&quot;font-size: 20px;&quot;&gt;&lt;b&gt;`5`&lt;/b&gt;&lt;/span&gt;&lt;/font&gt;" style="whiteSpace=wrap;html=1;aspect=fixed;fillColor=#FFFFFF;strokeColor=#FFFFFF;strokeWidth=2;fillStyle=solid;gradientColor=none;opacity=60;" vertex="1" parent="1">
          <mxGeometry x="600" y="880" width="40" height="40" as="geometry" />
        </mxCell>
        <mxCell id="d4JrblzLSaVEqb2wmgps-131" value="&lt;font color=&quot;#ffffff&quot;&gt;&lt;span style=&quot;font-size: 20px;&quot;&gt;&lt;b&gt;`3`&lt;/b&gt;&lt;/span&gt;&lt;/font&gt;" style="whiteSpace=wrap;html=1;aspect=fixed;fillColor=#FFFFFF;strokeColor=#FFFFFF;strokeWidth=2;fillStyle=solid;gradientColor=none;opacity=60;" vertex="1" parent="1">
          <mxGeometry x="480" y="920" width="40" height="40" as="geometry" />
        </mxCell>
        <mxCell id="d4JrblzLSaVEqb2wmgps-132" value="" style="whiteSpace=wrap;html=1;aspect=fixed;fillColor=#000000;strokeColor=#FFFFFF;strokeWidth=2;" vertex="1" parent="1">
          <mxGeometry x="520" y="920" width="40" height="40" as="geometry" />
        </mxCell>
        <mxCell id="d4JrblzLSaVEqb2wmgps-134" value="&lt;font color=&quot;#ffffff&quot;&gt;&lt;span style=&quot;font-size: 20px;&quot;&gt;&lt;b&gt;`2`&lt;/b&gt;&lt;/span&gt;&lt;/font&gt;" style="whiteSpace=wrap;html=1;aspect=fixed;fillColor=#000000;strokeColor=#FFFFFF;strokeWidth=2;" vertex="1" parent="1">
          <mxGeometry x="560" y="920" width="40" height="40" as="geometry" />
        </mxCell>
        <mxCell id="d4JrblzLSaVEqb2wmgps-135" value="&lt;font color=&quot;#ffffff&quot;&gt;&lt;span style=&quot;font-size: 20px;&quot;&gt;&lt;b&gt;`2`&lt;/b&gt;&lt;/span&gt;&lt;/font&gt;" style="whiteSpace=wrap;html=1;aspect=fixed;fillColor=#FFFFFF;strokeColor=#FFFFFF;strokeWidth=2;fillStyle=solid;gradientColor=none;opacity=60;" vertex="1" parent="1">
          <mxGeometry x="600" y="960" width="40" height="40" as="geometry" />
        </mxCell>
        <mxCell id="d4JrblzLSaVEqb2wmgps-136" value="&lt;font color=&quot;#ffffff&quot;&gt;&lt;span style=&quot;font-size: 20px;&quot;&gt;&lt;b&gt;`4`&lt;/b&gt;&lt;/span&gt;&lt;/font&gt;" style="whiteSpace=wrap;html=1;aspect=fixed;fillColor=#FFFFFF;strokeColor=#FFFFFF;strokeWidth=2;fillStyle=solid;gradientColor=none;opacity=60;" vertex="1" parent="1">
          <mxGeometry x="480" y="1000" width="40" height="40" as="geometry" />
        </mxCell>
      </root>
    </mxGraphModel>
  </diagram>
  <diagram id="peKSdKLnN0CcL61h4tig" name="Trang-2">
    <mxGraphModel dx="1248" dy="690" grid="0" gridSize="10" guides="1" tooltips="1" connect="1" arrows="1" fold="1" page="1" pageScale="1" pageWidth="827" pageHeight="1169" background="#000000" math="1" shadow="0">
      <root>
        <mxCell id="0" />
        <mxCell id="1" parent="0" />
        <mxCell id="dn6O-0cNisoRiathOdyS-30" value="" style="shape=cylinder3;whiteSpace=wrap;html=1;boundedLbl=1;backgroundOutline=1;size=7.967746213517103;rotation=-90;fillColor=#080808;strokeColor=#FFFFFF;strokeWidth=1.5;" vertex="1" parent="1">
          <mxGeometry x="282.01" y="720" width="35.98" height="38.42" as="geometry" />
        </mxCell>
        <mxCell id="dn6O-0cNisoRiathOdyS-31" value="" style="shape=cylinder3;whiteSpace=wrap;html=1;boundedLbl=1;backgroundOutline=1;size=7.967746213517103;rotation=-90;fillColor=#080808;strokeColor=#FFFFFF;strokeWidth=1.5;" vertex="1" parent="1">
          <mxGeometry x="260" y="720" width="35.98" height="38.42" as="geometry" />
        </mxCell>
        <mxCell id="dn6O-0cNisoRiathOdyS-32" value="" style="shape=cylinder3;whiteSpace=wrap;html=1;boundedLbl=1;backgroundOutline=1;size=7.967746213517103;rotation=-90;fillColor=#080808;strokeColor=#FFFFFF;strokeWidth=1.5;" vertex="1" parent="1">
          <mxGeometry x="240" y="720" width="35.98" height="38.42" as="geometry" />
        </mxCell>
        <mxCell id="dn6O-0cNisoRiathOdyS-33" value="" style="shape=cylinder3;whiteSpace=wrap;html=1;boundedLbl=1;backgroundOutline=1;size=7.967746213517103;rotation=-90;fillColor=#080808;strokeColor=#FFFFFF;strokeWidth=1.5;" vertex="1" parent="1">
          <mxGeometry x="220" y="720" width="35.98" height="38.42" as="geometry" />
        </mxCell>
        <mxCell id="dn6O-0cNisoRiathOdyS-23" value="" style="shape=cylinder3;whiteSpace=wrap;html=1;boundedLbl=1;backgroundOutline=1;size=7.967746213517103;rotation=-90;fillColor=#080808;strokeColor=#FFFFFF;strokeWidth=1.5;" vertex="1" parent="1">
          <mxGeometry x="550" y="640" width="35.98" height="38.42" as="geometry" />
        </mxCell>
        <mxCell id="dn6O-0cNisoRiathOdyS-22" value="" style="shape=cylinder3;whiteSpace=wrap;html=1;boundedLbl=1;backgroundOutline=1;size=7.967746213517103;rotation=-90;fillColor=#080808;strokeColor=#FFFFFF;strokeWidth=1.5;" vertex="1" parent="1">
          <mxGeometry x="527.99" y="640" width="35.98" height="38.42" as="geometry" />
        </mxCell>
        <mxCell id="dn6O-0cNisoRiathOdyS-17" value="" style="shape=cylinder3;whiteSpace=wrap;html=1;boundedLbl=1;backgroundOutline=1;size=7.967746213517103;rotation=-90;fillColor=#080808;strokeColor=#FFFFFF;strokeWidth=1.5;" vertex="1" parent="1">
          <mxGeometry x="340" y="640" width="35.98" height="38.42" as="geometry" />
        </mxCell>
        <mxCell id="dn6O-0cNisoRiathOdyS-12" value="" style="shape=cylinder3;whiteSpace=wrap;html=1;boundedLbl=1;backgroundOutline=1;size=7.967746213517103;rotation=-90;fillColor=#080808;strokeColor=#FFFFFF;strokeWidth=1.5;" vertex="1" parent="1">
          <mxGeometry x="160" y="640" width="35.98" height="38.42" as="geometry" />
        </mxCell>
        <mxCell id="dn6O-0cNisoRiathOdyS-11" value="" style="shape=cylinder3;whiteSpace=wrap;html=1;boundedLbl=1;backgroundOutline=1;size=7.967746213517103;rotation=-90;fillColor=#080808;strokeColor=#FFFFFF;strokeWidth=1.5;" vertex="1" parent="1">
          <mxGeometry x="124.02000000000001" y="640" width="35.98" height="38.42" as="geometry" />
        </mxCell>
        <mxCell id="dn6O-0cNisoRiathOdyS-10" value="" style="shape=cylinder3;whiteSpace=wrap;html=1;boundedLbl=1;backgroundOutline=1;size=7.967746213517103;rotation=-90;fillColor=#080808;strokeColor=#FFFFFF;strokeWidth=1.5;" vertex="1" parent="1">
          <mxGeometry x="102.01" y="640" width="35.98" height="38.42" as="geometry" />
        </mxCell>
        <mxCell id="dn6O-0cNisoRiathOdyS-9" value="" style="shape=cylinder3;whiteSpace=wrap;html=1;boundedLbl=1;backgroundOutline=1;size=7.967746213517103;rotation=-90;fillColor=#080808;strokeColor=#FFFFFF;strokeWidth=1.5;" vertex="1" parent="1">
          <mxGeometry x="80" y="640" width="35.98" height="38.42" as="geometry" />
        </mxCell>
        <mxCell id="dn6O-0cNisoRiathOdyS-8" value="" style="shape=cylinder3;whiteSpace=wrap;html=1;boundedLbl=1;backgroundOutline=1;size=7.967746213517103;rotation=-90;fillColor=#080808;strokeColor=#FFFFFF;strokeWidth=1.5;" vertex="1" parent="1">
          <mxGeometry x="60" y="640" width="35.98" height="38.42" as="geometry" />
        </mxCell>
        <mxCell id="A4TPsIohD5UmwO5uzxCm-1" value="&lt;span style=&quot;font-size: 22px;&quot;&gt;1&lt;/span&gt;" style="ellipse;whiteSpace=wrap;html=1;aspect=fixed;labelBackgroundColor=none;fillColor=none;strokeColor=#FFFFFF;fontColor=#FFFFFF;strokeWidth=2;" vertex="1" parent="1">
          <mxGeometry x="40" y="240" width="40" height="40" as="geometry" />
        </mxCell>
        <mxCell id="A4TPsIohD5UmwO5uzxCm-2" value="&lt;span style=&quot;font-size: 22px;&quot;&gt;5&lt;/span&gt;" style="ellipse;whiteSpace=wrap;html=1;aspect=fixed;labelBackgroundColor=none;fillColor=none;strokeColor=#FFFFFF;fontColor=#FFFFFF;strokeWidth=2;" vertex="1" parent="1">
          <mxGeometry x="120" y="200" width="40" height="40" as="geometry" />
        </mxCell>
        <mxCell id="A4TPsIohD5UmwO5uzxCm-3" value="&lt;span style=&quot;font-size: 22px;&quot;&gt;2&lt;/span&gt;" style="ellipse;whiteSpace=wrap;html=1;aspect=fixed;labelBackgroundColor=none;fillColor=none;strokeColor=#FFFFFF;fontColor=#FFFFFF;strokeWidth=2;" vertex="1" parent="1">
          <mxGeometry x="240" y="220" width="40" height="40" as="geometry" />
        </mxCell>
        <mxCell id="A4TPsIohD5UmwO5uzxCm-4" value="&lt;span style=&quot;font-size: 22px;&quot;&gt;&lt;u&gt;3&lt;/u&gt;&lt;/span&gt;" style="ellipse;whiteSpace=wrap;html=1;aspect=fixed;labelBackgroundColor=none;fillColor=none;strokeColor=#FFFFFF;fontColor=#FFFFFF;strokeWidth=2;" vertex="1" parent="1">
          <mxGeometry x="100" y="320" width="40" height="40" as="geometry" />
        </mxCell>
        <mxCell id="A4TPsIohD5UmwO5uzxCm-5" value="&lt;span style=&quot;font-size: 22px;&quot;&gt;&lt;u&gt;4&lt;/u&gt;&lt;/span&gt;" style="ellipse;whiteSpace=wrap;html=1;aspect=fixed;labelBackgroundColor=none;fillColor=none;strokeColor=#FFFFFF;fontColor=#FFFFFF;strokeWidth=2;" vertex="1" parent="1">
          <mxGeometry x="180" y="320" width="40" height="40" as="geometry" />
        </mxCell>
        <mxCell id="mhdbLdJeDXq2ZaHUmnj0-1" value="" style="endArrow=none;html=1;rounded=0;strokeColor=#FFFFFF;fontColor=#FFFFFF;strokeWidth=2;exitX=1;exitY=0;exitDx=0;exitDy=0;entryX=0.003;entryY=0.585;entryDx=0;entryDy=0;entryPerimeter=0;" edge="1" parent="1" source="A4TPsIohD5UmwO5uzxCm-1" target="A4TPsIohD5UmwO5uzxCm-2">
          <mxGeometry width="50" height="50" relative="1" as="geometry">
            <mxPoint x="170" y="290" as="sourcePoint" />
            <mxPoint x="110" y="250" as="targetPoint" />
          </mxGeometry>
        </mxCell>
        <mxCell id="mhdbLdJeDXq2ZaHUmnj0-2" value="" style="endArrow=none;html=1;rounded=0;strokeColor=#FFFFFF;fontColor=#FFFFFF;strokeWidth=2;exitX=1;exitY=0.5;exitDx=0;exitDy=0;entryX=0;entryY=0.5;entryDx=0;entryDy=0;" edge="1" parent="1" source="A4TPsIohD5UmwO5uzxCm-2" target="A4TPsIohD5UmwO5uzxCm-3">
          <mxGeometry width="50" height="50" relative="1" as="geometry">
            <mxPoint x="168" y="266" as="sourcePoint" />
            <mxPoint x="220" y="254" as="targetPoint" />
          </mxGeometry>
        </mxCell>
        <mxCell id="mhdbLdJeDXq2ZaHUmnj0-3" value="" style="endArrow=none;html=1;rounded=0;strokeColor=#FFFFFF;fontColor=#FFFFFF;strokeWidth=2;exitX=0.636;exitY=0.985;exitDx=0;exitDy=0;entryX=0;entryY=0;entryDx=0;entryDy=0;exitPerimeter=0;" edge="1" parent="1" source="A4TPsIohD5UmwO5uzxCm-1" target="A4TPsIohD5UmwO5uzxCm-4">
          <mxGeometry width="50" height="50" relative="1" as="geometry">
            <mxPoint x="94" y="266" as="sourcePoint" />
            <mxPoint x="146" y="254" as="targetPoint" />
          </mxGeometry>
        </mxCell>
        <mxCell id="mhdbLdJeDXq2ZaHUmnj0-4" value="" style="endArrow=none;html=1;rounded=0;strokeColor=#FFFFFF;fontColor=#FFFFFF;strokeWidth=2;exitX=1;exitY=0.5;exitDx=0;exitDy=0;entryX=0;entryY=0.5;entryDx=0;entryDy=0;" edge="1" parent="1" source="A4TPsIohD5UmwO5uzxCm-4" target="A4TPsIohD5UmwO5uzxCm-5">
          <mxGeometry width="50" height="50" relative="1" as="geometry">
            <mxPoint x="104" y="276" as="sourcePoint" />
            <mxPoint x="156" y="264" as="targetPoint" />
          </mxGeometry>
        </mxCell>
        <mxCell id="mhdbLdJeDXq2ZaHUmnj0-5" value="" style="endArrow=none;html=1;rounded=0;strokeColor=#FFFFFF;fontColor=#FFFFFF;strokeWidth=2;exitX=1;exitY=0;exitDx=0;exitDy=0;entryX=0.5;entryY=1;entryDx=0;entryDy=0;" edge="1" parent="1" source="A4TPsIohD5UmwO5uzxCm-5" target="A4TPsIohD5UmwO5uzxCm-3">
          <mxGeometry width="50" height="50" relative="1" as="geometry">
            <mxPoint x="114" y="286" as="sourcePoint" />
            <mxPoint x="166" y="274" as="targetPoint" />
          </mxGeometry>
        </mxCell>
        <mxCell id="mhdbLdJeDXq2ZaHUmnj0-6" value="" style="endArrow=none;html=1;rounded=0;strokeColor=#FFFFFF;fontColor=#FFFFFF;strokeWidth=2;exitX=1;exitY=0;exitDx=0;exitDy=0;entryX=0;entryY=1;entryDx=0;entryDy=0;" edge="1" parent="1" source="A4TPsIohD5UmwO5uzxCm-4" target="A4TPsIohD5UmwO5uzxCm-3">
          <mxGeometry width="50" height="50" relative="1" as="geometry">
            <mxPoint x="124" y="296" as="sourcePoint" />
            <mxPoint x="176" y="284" as="targetPoint" />
          </mxGeometry>
        </mxCell>
        <mxCell id="RDg1tVIP1TJ-Hjl1yGSh-1" value="&lt;font style=&quot;font-size: 15px;&quot;&gt;8&lt;/font&gt;" style="text;html=1;strokeColor=none;fillColor=none;align=center;verticalAlign=middle;whiteSpace=wrap;rounded=0;labelBackgroundColor=none;fontColor=#FFFFFF;strokeWidth=4;" vertex="1" parent="1">
          <mxGeometry x="80" y="210" width="23" height="30" as="geometry" />
        </mxCell>
        <mxCell id="RDg1tVIP1TJ-Hjl1yGSh-2" value="&lt;span style=&quot;font-size: 15px;&quot;&gt;10&lt;/span&gt;" style="text;html=1;strokeColor=none;fillColor=none;align=center;verticalAlign=middle;whiteSpace=wrap;rounded=0;labelBackgroundColor=none;fontColor=#FFFFFF;strokeWidth=4;" vertex="1" parent="1">
          <mxGeometry x="197" y="205" width="23" height="30" as="geometry" />
        </mxCell>
        <mxCell id="RDg1tVIP1TJ-Hjl1yGSh-3" value="&lt;span style=&quot;font-size: 15px;&quot;&gt;6&lt;/span&gt;" style="text;html=1;strokeColor=none;fillColor=none;align=center;verticalAlign=middle;whiteSpace=wrap;rounded=0;labelBackgroundColor=none;fontColor=#FFFFFF;strokeWidth=4;" vertex="1" parent="1">
          <mxGeometry x="60" y="290" width="23" height="30" as="geometry" />
        </mxCell>
        <mxCell id="RDg1tVIP1TJ-Hjl1yGSh-4" value="&lt;span style=&quot;font-size: 15px;&quot;&gt;&lt;u&gt;2&lt;/u&gt;&lt;/span&gt;" style="text;html=1;strokeColor=none;fillColor=none;align=center;verticalAlign=middle;whiteSpace=wrap;rounded=0;labelBackgroundColor=none;fontColor=#FFFFFF;strokeWidth=4;" vertex="1" parent="1">
          <mxGeometry x="150" y="340" width="23" height="30" as="geometry" />
        </mxCell>
        <mxCell id="RDg1tVIP1TJ-Hjl1yGSh-5" value="&lt;span style=&quot;font-size: 15px;&quot;&gt;11&lt;/span&gt;" style="text;html=1;strokeColor=none;fillColor=none;align=center;verticalAlign=middle;whiteSpace=wrap;rounded=0;labelBackgroundColor=none;fontColor=#FFFFFF;strokeWidth=4;" vertex="1" parent="1">
          <mxGeometry x="240" y="290" width="23" height="30" as="geometry" />
        </mxCell>
        <mxCell id="RDg1tVIP1TJ-Hjl1yGSh-6" value="&lt;span style=&quot;font-size: 15px;&quot;&gt;12&lt;/span&gt;" style="text;html=1;strokeColor=none;fillColor=none;align=center;verticalAlign=middle;whiteSpace=wrap;rounded=0;labelBackgroundColor=none;fontColor=#FFFFFF;strokeWidth=4;" vertex="1" parent="1">
          <mxGeometry x="174" y="260" width="23" height="30" as="geometry" />
        </mxCell>
        <mxCell id="RDg1tVIP1TJ-Hjl1yGSh-7" value="&lt;span style=&quot;font-size: 22px;&quot;&gt;1&lt;/span&gt;" style="ellipse;whiteSpace=wrap;html=1;aspect=fixed;labelBackgroundColor=none;fillColor=none;strokeColor=#FFFFFF;fontColor=#FFFFFF;strokeWidth=2;" vertex="1" parent="1">
          <mxGeometry x="320" y="240" width="40" height="40" as="geometry" />
        </mxCell>
        <mxCell id="RDg1tVIP1TJ-Hjl1yGSh-8" value="&lt;span style=&quot;font-size: 22px;&quot;&gt;5&lt;/span&gt;" style="ellipse;whiteSpace=wrap;html=1;aspect=fixed;labelBackgroundColor=none;fillColor=none;strokeColor=#FFFFFF;fontColor=#FFFFFF;strokeWidth=2;" vertex="1" parent="1">
          <mxGeometry x="400" y="200" width="40" height="40" as="geometry" />
        </mxCell>
        <mxCell id="RDg1tVIP1TJ-Hjl1yGSh-9" value="&lt;span style=&quot;font-size: 22px;&quot;&gt;&lt;u&gt;2&lt;/u&gt;&lt;/span&gt;" style="ellipse;whiteSpace=wrap;html=1;aspect=fixed;labelBackgroundColor=none;fillColor=none;strokeColor=#FFFFFF;fontColor=#FFFFFF;strokeWidth=2;" vertex="1" parent="1">
          <mxGeometry x="520" y="220" width="40" height="40" as="geometry" />
        </mxCell>
        <mxCell id="RDg1tVIP1TJ-Hjl1yGSh-10" value="&lt;span style=&quot;font-size: 22px;&quot;&gt;3&lt;/span&gt;" style="ellipse;whiteSpace=wrap;html=1;aspect=fixed;labelBackgroundColor=none;fillColor=none;strokeColor=#FFFFFF;fontColor=#FFFFFF;strokeWidth=2;" vertex="1" parent="1">
          <mxGeometry x="380" y="320" width="40" height="40" as="geometry" />
        </mxCell>
        <mxCell id="RDg1tVIP1TJ-Hjl1yGSh-11" value="&lt;span style=&quot;font-size: 22px;&quot;&gt;&lt;u&gt;4&lt;/u&gt;&lt;/span&gt;" style="ellipse;whiteSpace=wrap;html=1;aspect=fixed;labelBackgroundColor=none;fillColor=none;strokeColor=#FFFFFF;fontColor=#FFFFFF;strokeWidth=2;" vertex="1" parent="1">
          <mxGeometry x="460" y="320" width="40" height="40" as="geometry" />
        </mxCell>
        <mxCell id="RDg1tVIP1TJ-Hjl1yGSh-12" value="" style="endArrow=none;html=1;rounded=0;strokeColor=#FFFFFF;fontColor=#FFFFFF;strokeWidth=2;exitX=1;exitY=0;exitDx=0;exitDy=0;entryX=0.003;entryY=0.585;entryDx=0;entryDy=0;entryPerimeter=0;" edge="1" parent="1" source="RDg1tVIP1TJ-Hjl1yGSh-7" target="RDg1tVIP1TJ-Hjl1yGSh-8">
          <mxGeometry width="50" height="50" relative="1" as="geometry">
            <mxPoint x="450" y="290" as="sourcePoint" />
            <mxPoint x="390" y="250" as="targetPoint" />
          </mxGeometry>
        </mxCell>
        <mxCell id="RDg1tVIP1TJ-Hjl1yGSh-13" value="" style="endArrow=none;html=1;rounded=0;strokeColor=#FFFFFF;fontColor=#FFFFFF;strokeWidth=2;exitX=1;exitY=0.5;exitDx=0;exitDy=0;entryX=0;entryY=0.5;entryDx=0;entryDy=0;" edge="1" parent="1" source="RDg1tVIP1TJ-Hjl1yGSh-8" target="RDg1tVIP1TJ-Hjl1yGSh-9">
          <mxGeometry width="50" height="50" relative="1" as="geometry">
            <mxPoint x="448" y="266" as="sourcePoint" />
            <mxPoint x="500" y="254" as="targetPoint" />
          </mxGeometry>
        </mxCell>
        <mxCell id="RDg1tVIP1TJ-Hjl1yGSh-14" value="" style="endArrow=none;html=1;rounded=0;strokeColor=#FFFFFF;fontColor=#FFFFFF;strokeWidth=2;exitX=0.636;exitY=0.985;exitDx=0;exitDy=0;entryX=0;entryY=0;entryDx=0;entryDy=0;exitPerimeter=0;" edge="1" parent="1" source="RDg1tVIP1TJ-Hjl1yGSh-7" target="RDg1tVIP1TJ-Hjl1yGSh-10">
          <mxGeometry width="50" height="50" relative="1" as="geometry">
            <mxPoint x="374" y="266" as="sourcePoint" />
            <mxPoint x="426" y="254" as="targetPoint" />
          </mxGeometry>
        </mxCell>
        <mxCell id="RDg1tVIP1TJ-Hjl1yGSh-15" value="" style="endArrow=none;html=1;rounded=0;strokeColor=#FFFFFF;fontColor=#FFFFFF;strokeWidth=2;exitX=1;exitY=0.5;exitDx=0;exitDy=0;entryX=0;entryY=0.5;entryDx=0;entryDy=0;" edge="1" parent="1" source="RDg1tVIP1TJ-Hjl1yGSh-10" target="RDg1tVIP1TJ-Hjl1yGSh-11">
          <mxGeometry width="50" height="50" relative="1" as="geometry">
            <mxPoint x="384" y="276" as="sourcePoint" />
            <mxPoint x="436" y="264" as="targetPoint" />
          </mxGeometry>
        </mxCell>
        <mxCell id="RDg1tVIP1TJ-Hjl1yGSh-16" value="" style="endArrow=none;html=1;rounded=0;strokeColor=#FFFFFF;fontColor=#FFFFFF;strokeWidth=2;exitX=1;exitY=0;exitDx=0;exitDy=0;entryX=0.5;entryY=1;entryDx=0;entryDy=0;" edge="1" parent="1" source="RDg1tVIP1TJ-Hjl1yGSh-11" target="RDg1tVIP1TJ-Hjl1yGSh-9">
          <mxGeometry width="50" height="50" relative="1" as="geometry">
            <mxPoint x="394" y="286" as="sourcePoint" />
            <mxPoint x="446" y="274" as="targetPoint" />
          </mxGeometry>
        </mxCell>
        <mxCell id="RDg1tVIP1TJ-Hjl1yGSh-17" value="" style="endArrow=none;html=1;rounded=0;strokeColor=#FFFFFF;fontColor=#FFFFFF;strokeWidth=2;exitX=1;exitY=0;exitDx=0;exitDy=0;entryX=0;entryY=1;entryDx=0;entryDy=0;" edge="1" parent="1" source="RDg1tVIP1TJ-Hjl1yGSh-10" target="RDg1tVIP1TJ-Hjl1yGSh-9">
          <mxGeometry width="50" height="50" relative="1" as="geometry">
            <mxPoint x="404" y="296" as="sourcePoint" />
            <mxPoint x="456" y="284" as="targetPoint" />
          </mxGeometry>
        </mxCell>
        <mxCell id="RDg1tVIP1TJ-Hjl1yGSh-18" value="&lt;font style=&quot;font-size: 15px;&quot;&gt;8&lt;/font&gt;" style="text;html=1;strokeColor=none;fillColor=none;align=center;verticalAlign=middle;whiteSpace=wrap;rounded=0;labelBackgroundColor=none;fontColor=#FFFFFF;strokeWidth=4;" vertex="1" parent="1">
          <mxGeometry x="360" y="210" width="23" height="30" as="geometry" />
        </mxCell>
        <mxCell id="RDg1tVIP1TJ-Hjl1yGSh-19" value="&lt;span style=&quot;font-size: 15px;&quot;&gt;10&lt;/span&gt;" style="text;html=1;strokeColor=none;fillColor=none;align=center;verticalAlign=middle;whiteSpace=wrap;rounded=0;labelBackgroundColor=none;fontColor=#FFFFFF;strokeWidth=4;" vertex="1" parent="1">
          <mxGeometry x="477" y="205" width="23" height="30" as="geometry" />
        </mxCell>
        <mxCell id="RDg1tVIP1TJ-Hjl1yGSh-20" value="&lt;span style=&quot;font-size: 15px;&quot;&gt;6&lt;/span&gt;" style="text;html=1;strokeColor=none;fillColor=none;align=center;verticalAlign=middle;whiteSpace=wrap;rounded=0;labelBackgroundColor=none;fontColor=#FFFFFF;strokeWidth=4;" vertex="1" parent="1">
          <mxGeometry x="340" y="290" width="23" height="30" as="geometry" />
        </mxCell>
        <mxCell id="RDg1tVIP1TJ-Hjl1yGSh-21" value="3" style="text;html=1;strokeColor=none;fillColor=none;align=center;verticalAlign=middle;whiteSpace=wrap;rounded=0;labelBackgroundColor=none;fontColor=#FFFFFF;strokeWidth=4;" vertex="1" parent="1">
          <mxGeometry x="430" y="340" width="23" height="30" as="geometry" />
        </mxCell>
        <mxCell id="RDg1tVIP1TJ-Hjl1yGSh-22" value="&lt;span style=&quot;font-size: 15px;&quot;&gt;&lt;u&gt;9&lt;/u&gt;&lt;/span&gt;" style="text;html=1;strokeColor=none;fillColor=none;align=center;verticalAlign=middle;whiteSpace=wrap;rounded=0;labelBackgroundColor=none;fontColor=#FFFFFF;strokeWidth=4;" vertex="1" parent="1">
          <mxGeometry x="520" y="290" width="23" height="30" as="geometry" />
        </mxCell>
        <mxCell id="RDg1tVIP1TJ-Hjl1yGSh-23" value="&lt;span style=&quot;font-size: 15px;&quot;&gt;12&lt;/span&gt;" style="text;html=1;strokeColor=none;fillColor=none;align=center;verticalAlign=middle;whiteSpace=wrap;rounded=0;labelBackgroundColor=none;fontColor=#FFFFFF;strokeWidth=4;" vertex="1" parent="1">
          <mxGeometry x="454" y="260" width="23" height="30" as="geometry" />
        </mxCell>
        <mxCell id="RDg1tVIP1TJ-Hjl1yGSh-24" value="&lt;span style=&quot;font-size: 22px;&quot;&gt;1&lt;/span&gt;" style="ellipse;whiteSpace=wrap;html=1;aspect=fixed;labelBackgroundColor=none;fillColor=none;strokeColor=#FFFFFF;fontColor=#FFFFFF;strokeWidth=2;" vertex="1" parent="1">
          <mxGeometry x="200" y="400" width="40" height="40" as="geometry" />
        </mxCell>
        <mxCell id="RDg1tVIP1TJ-Hjl1yGSh-25" value="" style="endArrow=none;html=1;rounded=0;strokeColor=#FFFFFF;fontColor=#FFFFFF;strokeWidth=2;entryX=0.5;entryY=1;entryDx=0;entryDy=0;" edge="1" parent="1" target="RDg1tVIP1TJ-Hjl1yGSh-24">
          <mxGeometry width="50" height="50" relative="1" as="geometry">
            <mxPoint x="180" y="480" as="sourcePoint" />
            <mxPoint x="210" y="450" as="targetPoint" />
          </mxGeometry>
        </mxCell>
        <mxCell id="RDg1tVIP1TJ-Hjl1yGSh-26" value="" style="endArrow=none;html=1;rounded=0;strokeColor=#FFFFFF;fontColor=#FFFFFF;strokeWidth=2;entryX=0.5;entryY=1;entryDx=0;entryDy=0;" edge="1" parent="1" target="RDg1tVIP1TJ-Hjl1yGSh-24">
          <mxGeometry width="50" height="50" relative="1" as="geometry">
            <mxPoint x="260" y="480" as="sourcePoint" />
            <mxPoint x="230" y="450" as="targetPoint" />
          </mxGeometry>
        </mxCell>
        <mxCell id="RDg1tVIP1TJ-Hjl1yGSh-27" value="&lt;span style=&quot;font-size: 22px;&quot;&gt;2&lt;/span&gt;" style="ellipse;whiteSpace=wrap;html=1;aspect=fixed;labelBackgroundColor=none;fillColor=none;strokeColor=#FFFFFF;fontColor=#FFFFFF;strokeWidth=2;" vertex="1" parent="1">
          <mxGeometry x="160" y="480" width="40" height="40" as="geometry" />
        </mxCell>
        <mxCell id="RDg1tVIP1TJ-Hjl1yGSh-28" value="&lt;span style=&quot;font-size: 22px;&quot;&gt;5&lt;/span&gt;" style="ellipse;whiteSpace=wrap;html=1;aspect=fixed;labelBackgroundColor=none;fillColor=none;strokeColor=#FFFFFF;fontColor=#FFFFFF;strokeWidth=2;" vertex="1" parent="1">
          <mxGeometry x="240" y="480" width="40" height="40" as="geometry" />
        </mxCell>
        <mxCell id="RDg1tVIP1TJ-Hjl1yGSh-29" value="&lt;span style=&quot;font-size: 22px;&quot;&gt;3&lt;/span&gt;" style="ellipse;whiteSpace=wrap;html=1;aspect=fixed;labelBackgroundColor=none;fillColor=none;strokeColor=#FFFFFF;fontColor=#FFFFFF;strokeWidth=2;" vertex="1" parent="1">
          <mxGeometry x="120" y="560" width="40" height="40" as="geometry" />
        </mxCell>
        <mxCell id="RDg1tVIP1TJ-Hjl1yGSh-30" value="" style="endArrow=none;html=1;rounded=0;strokeColor=#FFFFFF;fontColor=#FFFFFF;strokeWidth=2;entryX=0.5;entryY=1;entryDx=0;entryDy=0;" edge="1" parent="1">
          <mxGeometry width="50" height="50" relative="1" as="geometry">
            <mxPoint x="140" y="560" as="sourcePoint" />
            <mxPoint x="180" y="520" as="targetPoint" />
          </mxGeometry>
        </mxCell>
        <mxCell id="RDg1tVIP1TJ-Hjl1yGSh-31" value="" style="endArrow=none;html=1;rounded=0;strokeColor=#FFFFFF;fontColor=#FFFFFF;strokeWidth=2;entryX=0.5;entryY=1;entryDx=0;entryDy=0;" edge="1" parent="1">
          <mxGeometry width="50" height="50" relative="1" as="geometry">
            <mxPoint x="220" y="560" as="sourcePoint" />
            <mxPoint x="180" y="520" as="targetPoint" />
          </mxGeometry>
        </mxCell>
        <mxCell id="RDg1tVIP1TJ-Hjl1yGSh-32" value="&lt;span style=&quot;font-size: 22px;&quot;&gt;4&lt;/span&gt;" style="ellipse;whiteSpace=wrap;html=1;aspect=fixed;labelBackgroundColor=none;fillColor=none;strokeColor=#FFFFFF;fontColor=#FFFFFF;strokeWidth=2;" vertex="1" parent="1">
          <mxGeometry x="200" y="560" width="40" height="40" as="geometry" />
        </mxCell>
        <mxCell id="dn6O-0cNisoRiathOdyS-1" value="" style="shape=cylinder3;whiteSpace=wrap;html=1;boundedLbl=1;backgroundOutline=1;size=7.967746213517103;rotation=-90;fillColor=#080808;strokeColor=#FFFFFF;strokeWidth=1.5;" vertex="1" parent="1">
          <mxGeometry x="40" y="640" width="35.98" height="38.42" as="geometry" />
        </mxCell>
        <mxCell id="dn6O-0cNisoRiathOdyS-13" value="" style="shape=cylinder3;whiteSpace=wrap;html=1;boundedLbl=1;backgroundOutline=1;size=7.967746213517103;rotation=-90;fillColor=#080808;strokeColor=#FFFFFF;strokeWidth=1.5;" vertex="1" parent="1">
          <mxGeometry x="304.02" y="640" width="35.98" height="38.42" as="geometry" />
        </mxCell>
        <mxCell id="dn6O-0cNisoRiathOdyS-14" value="" style="shape=cylinder3;whiteSpace=wrap;html=1;boundedLbl=1;backgroundOutline=1;size=7.967746213517103;rotation=-90;fillColor=#080808;strokeColor=#FFFFFF;strokeWidth=1.5;" vertex="1" parent="1">
          <mxGeometry x="282.01" y="640" width="35.98" height="38.42" as="geometry" />
        </mxCell>
        <mxCell id="dn6O-0cNisoRiathOdyS-15" value="" style="shape=cylinder3;whiteSpace=wrap;html=1;boundedLbl=1;backgroundOutline=1;size=7.967746213517103;rotation=-90;fillColor=#080808;strokeColor=#FFFFFF;strokeWidth=1.5;" vertex="1" parent="1">
          <mxGeometry x="262.01" y="640" width="35.98" height="38.42" as="geometry" />
        </mxCell>
        <mxCell id="dn6O-0cNisoRiathOdyS-16" value="" style="shape=cylinder3;whiteSpace=wrap;html=1;boundedLbl=1;backgroundOutline=1;size=7.967746213517103;rotation=-90;fillColor=#080808;strokeColor=#FFFFFF;strokeWidth=1.5;" vertex="1" parent="1">
          <mxGeometry x="242.01" y="640" width="35.98" height="38.42" as="geometry" />
        </mxCell>
        <mxCell id="dn6O-0cNisoRiathOdyS-18" value="" style="shape=cylinder3;whiteSpace=wrap;html=1;boundedLbl=1;backgroundOutline=1;size=7.967746213517103;rotation=-90;fillColor=#080808;strokeColor=#FFFFFF;strokeWidth=1.5;" vertex="1" parent="1">
          <mxGeometry x="492.01" y="640" width="35.98" height="38.42" as="geometry" />
        </mxCell>
        <mxCell id="dn6O-0cNisoRiathOdyS-19" value="" style="shape=cylinder3;whiteSpace=wrap;html=1;boundedLbl=1;backgroundOutline=1;size=7.967746213517103;rotation=-90;fillColor=#080808;strokeColor=#FFFFFF;strokeWidth=1.5;" vertex="1" parent="1">
          <mxGeometry x="470" y="640" width="35.98" height="38.42" as="geometry" />
        </mxCell>
        <mxCell id="dn6O-0cNisoRiathOdyS-20" value="" style="shape=cylinder3;whiteSpace=wrap;html=1;boundedLbl=1;backgroundOutline=1;size=7.967746213517103;rotation=-90;fillColor=#080808;strokeColor=#FFFFFF;strokeWidth=1.5;" vertex="1" parent="1">
          <mxGeometry x="450" y="640" width="35.98" height="38.42" as="geometry" />
        </mxCell>
        <mxCell id="dn6O-0cNisoRiathOdyS-21" value="" style="shape=cylinder3;whiteSpace=wrap;html=1;boundedLbl=1;backgroundOutline=1;size=7.967746213517103;rotation=-90;fillColor=#080808;strokeColor=#FFFFFF;strokeWidth=1.5;" vertex="1" parent="1">
          <mxGeometry x="430" y="640" width="35.98" height="38.42" as="geometry" />
        </mxCell>
        <mxCell id="dn6O-0cNisoRiathOdyS-24" value="" style="shape=cylinder3;whiteSpace=wrap;html=1;boundedLbl=1;backgroundOutline=1;size=7.967746213517103;rotation=-90;fillColor=#080808;strokeColor=#FFFFFF;strokeWidth=1.5;" vertex="1" parent="1">
          <mxGeometry x="124.02000000000001" y="720" width="35.98" height="38.42" as="geometry" />
        </mxCell>
        <mxCell id="dn6O-0cNisoRiathOdyS-25" value="" style="shape=cylinder3;whiteSpace=wrap;html=1;boundedLbl=1;backgroundOutline=1;size=7.967746213517103;rotation=-90;fillColor=#080808;strokeColor=#FFFFFF;strokeWidth=1.5;" vertex="1" parent="1">
          <mxGeometry x="102.01" y="720" width="35.98" height="38.42" as="geometry" />
        </mxCell>
        <mxCell id="dn6O-0cNisoRiathOdyS-26" value="" style="shape=cylinder3;whiteSpace=wrap;html=1;boundedLbl=1;backgroundOutline=1;size=7.967746213517103;rotation=-90;fillColor=#080808;strokeColor=#FFFFFF;strokeWidth=1.5;" vertex="1" parent="1">
          <mxGeometry x="80" y="720" width="35.98" height="38.42" as="geometry" />
        </mxCell>
        <mxCell id="dn6O-0cNisoRiathOdyS-27" value="" style="shape=cylinder3;whiteSpace=wrap;html=1;boundedLbl=1;backgroundOutline=1;size=7.967746213517103;rotation=-90;fillColor=#080808;strokeColor=#FFFFFF;strokeWidth=1.5;" vertex="1" parent="1">
          <mxGeometry x="60" y="720" width="35.98" height="38.42" as="geometry" />
        </mxCell>
        <mxCell id="dn6O-0cNisoRiathOdyS-28" value="" style="shape=cylinder3;whiteSpace=wrap;html=1;boundedLbl=1;backgroundOutline=1;size=7.967746213517103;rotation=-90;fillColor=#080808;strokeColor=#FFFFFF;strokeWidth=1.5;" vertex="1" parent="1">
          <mxGeometry x="40" y="720" width="35.98" height="38.42" as="geometry" />
        </mxCell>
        <mxCell id="dn6O-0cNisoRiathOdyS-29" value="" style="shape=cylinder3;whiteSpace=wrap;html=1;boundedLbl=1;backgroundOutline=1;size=7.967746213517103;rotation=-90;fillColor=#080808;strokeColor=#FFFFFF;strokeWidth=1.5;" vertex="1" parent="1">
          <mxGeometry x="184.01999999999998" y="720" width="35.98" height="38.42" as="geometry" />
        </mxCell>
        <mxCell id="dn6O-0cNisoRiathOdyS-35" value="" style="shape=cylinder3;whiteSpace=wrap;html=1;boundedLbl=1;backgroundOutline=1;size=7.967746213517103;rotation=-90;fillColor=#080808;strokeColor=#FFFFFF;strokeWidth=1.5;" vertex="1" parent="1">
          <mxGeometry x="457.99" y="720" width="35.98" height="38.42" as="geometry" />
        </mxCell>
        <mxCell id="dn6O-0cNisoRiathOdyS-36" value="" style="shape=cylinder3;whiteSpace=wrap;html=1;boundedLbl=1;backgroundOutline=1;size=7.967746213517103;rotation=-90;fillColor=#080808;strokeColor=#FFFFFF;strokeWidth=1.5;" vertex="1" parent="1">
          <mxGeometry x="435.98" y="720" width="35.98" height="38.42" as="geometry" />
        </mxCell>
        <mxCell id="dn6O-0cNisoRiathOdyS-37" value="" style="shape=cylinder3;whiteSpace=wrap;html=1;boundedLbl=1;backgroundOutline=1;size=7.967746213517103;rotation=-90;fillColor=#080808;strokeColor=#FFFFFF;strokeWidth=1.5;" vertex="1" parent="1">
          <mxGeometry x="415.98" y="720" width="35.98" height="38.42" as="geometry" />
        </mxCell>
        <mxCell id="dn6O-0cNisoRiathOdyS-38" value="" style="shape=cylinder3;whiteSpace=wrap;html=1;boundedLbl=1;backgroundOutline=1;size=7.967746213517103;rotation=-90;fillColor=#080808;strokeColor=#FFFFFF;strokeWidth=1.5;" vertex="1" parent="1">
          <mxGeometry x="395.98" y="720" width="35.98" height="38.42" as="geometry" />
        </mxCell>
        <mxCell id="dn6O-0cNisoRiathOdyS-39" value="" style="shape=cylinder3;whiteSpace=wrap;html=1;boundedLbl=1;backgroundOutline=1;size=7.967746213517103;rotation=-90;fillColor=#080808;strokeColor=#FFFFFF;strokeWidth=1.5;" vertex="1" parent="1">
          <mxGeometry x="360" y="720" width="35.98" height="38.42" as="geometry" />
        </mxCell>
        <mxCell id="dn6O-0cNisoRiathOdyS-40" value="" style="shape=cylinder3;whiteSpace=wrap;html=1;boundedLbl=1;backgroundOutline=1;size=7.967746213517103;rotation=-90;fillColor=#080808;strokeColor=#FFFFFF;strokeWidth=1.5;" vertex="1" parent="1">
          <mxGeometry x="554.02" y="720" width="35.98" height="38.42" as="geometry" />
        </mxCell>
        <mxCell id="dn6O-0cNisoRiathOdyS-41" value="" style="shape=cylinder3;whiteSpace=wrap;html=1;boundedLbl=1;backgroundOutline=1;size=7.967746213517103;rotation=-90;fillColor=#080808;strokeColor=#FFFFFF;strokeWidth=1.5;" vertex="1" parent="1">
          <mxGeometry x="532.01" y="720" width="35.98" height="38.42" as="geometry" />
        </mxCell>
        <mxCell id="dn6O-0cNisoRiathOdyS-42" value="" style="html=1;shadow=0;dashed=0;align=center;verticalAlign=middle;shape=mxgraph.arrows2.arrow;dy=0.53;dx=21.08;flipH=1;notch=0;fillColor=#000000;strokeColor=#FFFFFF;" vertex="1" parent="1">
          <mxGeometry x="58.5" y="610" width="61.5" height="20" as="geometry" />
        </mxCell>
        <mxCell id="dn6O-0cNisoRiathOdyS-43" value="" style="html=1;shadow=0;dashed=0;align=center;verticalAlign=middle;shape=mxgraph.arrows2.arrow;dy=0.53;dx=21.08;flipH=1;notch=0;fillColor=#000000;strokeColor=#FFFFFF;" vertex="1" parent="1">
          <mxGeometry x="58.5" y="690" width="61.5" height="20" as="geometry" />
        </mxCell>
        <mxCell id="dn6O-0cNisoRiathOdyS-44" value="Cắt" style="text;strokeColor=none;fillColor=none;align=left;verticalAlign=top;spacingLeft=4;spacingRight=4;overflow=hidden;rotatable=0;points=[[0,0.5],[1,0.5]];portConstraint=eastwest;whiteSpace=wrap;html=1;fontColor=#FFFFFF;fontStyle=1;fontSize=15;" vertex="1" parent="1">
          <mxGeometry x="140" y="614" width="37" height="26" as="geometry" />
        </mxCell>
        <mxCell id="dn6O-0cNisoRiathOdyS-45" value="Cắt" style="text;strokeColor=none;fillColor=none;align=left;verticalAlign=top;spacingLeft=4;spacingRight=4;overflow=hidden;rotatable=0;points=[[0,0.5],[1,0.5]];portConstraint=eastwest;whiteSpace=wrap;html=1;fontColor=#FFFFFF;fontStyle=1;fontSize=15;" vertex="1" parent="1">
          <mxGeometry x="321.5" y="614" width="37" height="26" as="geometry" />
        </mxCell>
        <mxCell id="dn6O-0cNisoRiathOdyS-46" value="Cắt" style="text;strokeColor=none;fillColor=none;align=left;verticalAlign=top;spacingLeft=4;spacingRight=4;overflow=hidden;rotatable=0;points=[[0,0.5],[1,0.5]];portConstraint=eastwest;whiteSpace=wrap;html=1;fontColor=#FFFFFF;fontStyle=1;fontSize=15;" vertex="1" parent="1">
          <mxGeometry x="513" y="614" width="37" height="26" as="geometry" />
        </mxCell>
        <mxCell id="dn6O-0cNisoRiathOdyS-47" value="Dán" style="text;strokeColor=none;fillColor=none;align=center;verticalAlign=top;spacingLeft=4;spacingRight=4;overflow=hidden;rotatable=0;points=[[0,0.5],[1,0.5]];portConstraint=eastwest;whiteSpace=wrap;html=1;fontColor=#FFFFFF;fontStyle=1;fontSize=15;" vertex="1" parent="1">
          <mxGeometry x="199.75" y="694" width="40.5" height="26" as="geometry" />
        </mxCell>
        <mxCell id="dn6O-0cNisoRiathOdyS-49" value="Dán" style="text;strokeColor=none;fillColor=none;align=center;verticalAlign=top;spacingLeft=4;spacingRight=4;overflow=hidden;rotatable=0;points=[[0,0.5],[1,0.5]];portConstraint=eastwest;whiteSpace=wrap;html=1;fontColor=#FFFFFF;fontStyle=1;fontSize=15;" vertex="1" parent="1">
          <mxGeometry x="376.96000000000004" y="694" width="39.02" height="26" as="geometry" />
        </mxCell>
        <mxCell id="dn6O-0cNisoRiathOdyS-50" value="" style="shape=curlyBracket;whiteSpace=wrap;html=1;rounded=1;flipH=1;labelPosition=right;verticalLabelPosition=middle;align=left;verticalAlign=middle;strokeColor=#FFFFFF;rotation=90;" vertex="1" parent="1">
          <mxGeometry x="87.99000000000001" y="720" width="20" height="120" as="geometry" />
        </mxCell>
        <mxCell id="dn6O-0cNisoRiathOdyS-51" value="" style="shape=curlyBracket;whiteSpace=wrap;html=1;rounded=1;flipH=1;labelPosition=right;verticalLabelPosition=middle;align=left;verticalAlign=middle;strokeColor=#FFFFFF;rotation=90;" vertex="1" parent="1">
          <mxGeometry x="240" y="715" width="21.67" height="130" as="geometry" />
        </mxCell>
        <mxCell id="dn6O-0cNisoRiathOdyS-53" value="" style="shape=curlyBracket;whiteSpace=wrap;html=1;rounded=1;flipH=1;labelPosition=right;verticalLabelPosition=middle;align=left;verticalAlign=middle;strokeColor=#FFFFFF;rotation=90;" vertex="1" parent="1">
          <mxGeometry x="414" y="715" width="21.67" height="130" as="geometry" />
        </mxCell>
        <mxCell id="dn6O-0cNisoRiathOdyS-54" value="" style="shape=curlyBracket;whiteSpace=wrap;html=1;rounded=1;flipH=1;labelPosition=right;verticalLabelPosition=middle;align=left;verticalAlign=middle;strokeColor=#FFFFFF;rotation=90;" vertex="1" parent="1">
          <mxGeometry x="550" y="747.91" width="22.01" height="64.17" as="geometry" />
        </mxCell>
        <mxCell id="dn6O-0cNisoRiathOdyS-57" value="&lt;span style=&quot;font-size: 22px;&quot;&gt;2&lt;/span&gt;" style="ellipse;whiteSpace=wrap;html=1;aspect=fixed;labelBackgroundColor=none;fillColor=none;strokeColor=#FFFFFF;fontColor=#FFFFFF;strokeWidth=2;" vertex="1" parent="1">
          <mxGeometry x="160" y="840" width="40" height="40" as="geometry" />
        </mxCell>
        <mxCell id="dn6O-0cNisoRiathOdyS-58" value="&lt;span style=&quot;font-size: 22px;&quot;&gt;1&lt;/span&gt;" style="ellipse;whiteSpace=wrap;html=1;aspect=fixed;labelBackgroundColor=none;fillColor=none;strokeColor=#FFFFFF;fontColor=#FFFFFF;strokeWidth=2;" vertex="1" parent="1">
          <mxGeometry x="240" y="920" width="40" height="40" as="geometry" />
        </mxCell>
        <mxCell id="dn6O-0cNisoRiathOdyS-59" value="&lt;span style=&quot;font-size: 22px;&quot;&gt;6&lt;/span&gt;" style="ellipse;whiteSpace=wrap;html=1;aspect=fixed;labelBackgroundColor=none;fillColor=none;strokeColor=#FFFFFF;fontColor=#FFFFFF;strokeWidth=2;" vertex="1" parent="1">
          <mxGeometry x="160" y="920" width="40" height="40" as="geometry" />
        </mxCell>
        <mxCell id="dn6O-0cNisoRiathOdyS-60" value="&lt;span style=&quot;font-size: 22px;&quot;&gt;4&lt;/span&gt;" style="ellipse;whiteSpace=wrap;html=1;aspect=fixed;labelBackgroundColor=none;fillColor=none;strokeColor=#FFFFFF;fontColor=#FFFFFF;strokeWidth=2;" vertex="1" parent="1">
          <mxGeometry x="80" y="920" width="40" height="40" as="geometry" />
        </mxCell>
        <mxCell id="dn6O-0cNisoRiathOdyS-61" value="&lt;span style=&quot;font-size: 22px;&quot;&gt;5&lt;/span&gt;" style="ellipse;whiteSpace=wrap;html=1;aspect=fixed;labelBackgroundColor=none;fillColor=none;strokeColor=#FFFFFF;fontColor=#FFFFFF;strokeWidth=2;" vertex="1" parent="1">
          <mxGeometry x="37.99" y="1000" width="40" height="40" as="geometry" />
        </mxCell>
        <mxCell id="dn6O-0cNisoRiathOdyS-62" value="&lt;span style=&quot;font-size: 22px;&quot;&gt;7&lt;/span&gt;" style="ellipse;whiteSpace=wrap;html=1;aspect=fixed;labelBackgroundColor=none;fillColor=none;strokeColor=#FFFFFF;fontColor=#FFFFFF;strokeWidth=2;" vertex="1" parent="1">
          <mxGeometry x="120" y="1000" width="40" height="40" as="geometry" />
        </mxCell>
        <mxCell id="dn6O-0cNisoRiathOdyS-63" value="&lt;span style=&quot;font-size: 22px;&quot;&gt;3&lt;/span&gt;" style="ellipse;whiteSpace=wrap;html=1;aspect=fixed;labelBackgroundColor=none;fillColor=none;strokeColor=#FFFFFF;fontColor=#FFFFFF;strokeWidth=2;" vertex="1" parent="1">
          <mxGeometry x="240.25" y="1000" width="40" height="40" as="geometry" />
        </mxCell>
        <mxCell id="dn6O-0cNisoRiathOdyS-64" value="" style="endArrow=none;html=1;rounded=0;strokeColor=#FFFFFF;fontColor=#FFFFFF;strokeWidth=2;entryX=0.5;entryY=1;entryDx=0;entryDy=0;" edge="1" parent="1">
          <mxGeometry width="50" height="50" relative="1" as="geometry">
            <mxPoint x="60" y="1000" as="sourcePoint" />
            <mxPoint x="100" y="960" as="targetPoint" />
          </mxGeometry>
        </mxCell>
        <mxCell id="dn6O-0cNisoRiathOdyS-65" value="" style="endArrow=none;html=1;rounded=0;strokeColor=#FFFFFF;fontColor=#FFFFFF;strokeWidth=2;entryX=0.5;entryY=1;entryDx=0;entryDy=0;" edge="1" parent="1">
          <mxGeometry width="50" height="50" relative="1" as="geometry">
            <mxPoint x="140" y="1000" as="sourcePoint" />
            <mxPoint x="100" y="960" as="targetPoint" />
          </mxGeometry>
        </mxCell>
        <mxCell id="dn6O-0cNisoRiathOdyS-67" value="" style="endArrow=none;html=1;rounded=0;strokeColor=#FFFFFF;fontColor=#FFFFFF;strokeWidth=2;entryX=0.5;entryY=1;entryDx=0;entryDy=0;exitX=0.5;exitY=0;exitDx=0;exitDy=0;" edge="1" parent="1" source="dn6O-0cNisoRiathOdyS-63" target="dn6O-0cNisoRiathOdyS-58">
          <mxGeometry width="50" height="50" relative="1" as="geometry">
            <mxPoint x="322.01" y="1010" as="sourcePoint" />
            <mxPoint x="282.01" y="970" as="targetPoint" />
          </mxGeometry>
        </mxCell>
        <mxCell id="dn6O-0cNisoRiathOdyS-68" value="" style="endArrow=none;html=1;rounded=0;strokeColor=#FFFFFF;fontColor=#FFFFFF;strokeWidth=2;exitX=0.5;exitY=0;exitDx=0;exitDy=0;" edge="1" parent="1">
          <mxGeometry width="50" height="50" relative="1" as="geometry">
            <mxPoint x="179.69" y="920" as="sourcePoint" />
            <mxPoint x="179.69" y="880" as="targetPoint" />
          </mxGeometry>
        </mxCell>
        <mxCell id="dn6O-0cNisoRiathOdyS-69" value="" style="endArrow=none;html=1;rounded=0;strokeColor=#FFFFFF;fontColor=#FFFFFF;strokeWidth=2;entryX=0.5;entryY=1;entryDx=0;entryDy=0;exitX=0.5;exitY=0;exitDx=0;exitDy=0;" edge="1" parent="1" source="dn6O-0cNisoRiathOdyS-60">
          <mxGeometry width="50" height="50" relative="1" as="geometry">
            <mxPoint x="140" y="920" as="sourcePoint" />
            <mxPoint x="180" y="880" as="targetPoint" />
          </mxGeometry>
        </mxCell>
        <mxCell id="dn6O-0cNisoRiathOdyS-70" value="" style="endArrow=none;html=1;rounded=0;strokeColor=#FFFFFF;fontColor=#FFFFFF;strokeWidth=2;entryX=0.5;entryY=1;entryDx=0;entryDy=0;exitX=0.5;exitY=0;exitDx=0;exitDy=0;" edge="1" parent="1" source="dn6O-0cNisoRiathOdyS-58">
          <mxGeometry width="50" height="50" relative="1" as="geometry">
            <mxPoint x="220" y="920" as="sourcePoint" />
            <mxPoint x="180" y="880" as="targetPoint" />
          </mxGeometry>
        </mxCell>
        <mxCell id="dn6O-0cNisoRiathOdyS-71" value="&lt;span style=&quot;font-size: 15px;&quot;&gt;2&lt;/span&gt;" style="text;html=1;strokeColor=none;fillColor=none;align=center;verticalAlign=middle;whiteSpace=wrap;rounded=0;labelBackgroundColor=none;fontColor=#FFFFFF;strokeWidth=4;" vertex="1" parent="1">
          <mxGeometry x="108.5" y="880" width="23" height="30" as="geometry" />
        </mxCell>
        <mxCell id="dn6O-0cNisoRiathOdyS-74" value="&lt;span style=&quot;font-size: 15px;&quot;&gt;3&lt;/span&gt;" style="text;html=1;strokeColor=none;fillColor=none;align=center;verticalAlign=middle;whiteSpace=wrap;rounded=0;labelBackgroundColor=none;fontColor=#FFFFFF;strokeWidth=4;" vertex="1" parent="1">
          <mxGeometry x="226.49" y="880" width="23" height="30" as="geometry" />
        </mxCell>
        <mxCell id="dn6O-0cNisoRiathOdyS-75" value="&lt;span style=&quot;font-size: 15px;&quot;&gt;1&lt;/span&gt;" style="text;html=1;strokeColor=none;fillColor=none;align=center;verticalAlign=middle;whiteSpace=wrap;rounded=0;labelBackgroundColor=none;fontColor=#FFFFFF;strokeWidth=4;" vertex="1" parent="1">
          <mxGeometry x="160" y="890" width="23" height="30" as="geometry" />
        </mxCell>
        <mxCell id="dn6O-0cNisoRiathOdyS-76" value="&lt;span style=&quot;font-size: 15px;&quot;&gt;1&lt;/span&gt;" style="text;html=1;strokeColor=none;fillColor=none;align=center;verticalAlign=middle;whiteSpace=wrap;rounded=0;labelBackgroundColor=none;fontColor=#FFFFFF;strokeWidth=4;" vertex="1" parent="1">
          <mxGeometry x="57" y="960" width="23" height="30" as="geometry" />
        </mxCell>
        <mxCell id="dn6O-0cNisoRiathOdyS-77" value="&lt;span style=&quot;font-size: 15px;&quot;&gt;2&lt;/span&gt;" style="text;html=1;strokeColor=none;fillColor=none;align=center;verticalAlign=middle;whiteSpace=wrap;rounded=0;labelBackgroundColor=none;fontColor=#FFFFFF;strokeWidth=4;" vertex="1" parent="1">
          <mxGeometry x="120" y="960" width="23" height="30" as="geometry" />
        </mxCell>
        <mxCell id="dn6O-0cNisoRiathOdyS-78" value="&lt;span style=&quot;font-size: 15px;&quot;&gt;12&lt;/span&gt;" style="text;html=1;strokeColor=none;fillColor=none;align=center;verticalAlign=middle;whiteSpace=wrap;rounded=0;labelBackgroundColor=none;fontColor=#FFFFFF;strokeWidth=4;" vertex="1" parent="1">
          <mxGeometry x="237" y="960" width="23" height="30" as="geometry" />
        </mxCell>
      </root>
    </mxGraphModel>
  </diagram>
  <diagram id="MAoY7VWX97cySDTahS84" name="Trang-3">
    <mxGraphModel dx="476" dy="751" grid="0" gridSize="10" guides="1" tooltips="1" connect="1" arrows="1" fold="1" page="1" pageScale="1" pageWidth="827" pageHeight="1169" background="#000000" math="1" shadow="0">
      <root>
        <mxCell id="0" />
        <mxCell id="1" parent="0" />
        <mxCell id="UhEpPuMkb6HWoTSxEaaG-340" value="" style="group" vertex="1" connectable="0" parent="1">
          <mxGeometry x="855" y="130" width="776.42" height="520" as="geometry" />
        </mxCell>
        <mxCell id="UhEpPuMkb6HWoTSxEaaG-5" value="" style="edgeStyle=orthogonalEdgeStyle;rounded=0;orthogonalLoop=1;jettySize=auto;html=1;" edge="1" parent="UhEpPuMkb6HWoTSxEaaG-340" source="UhEpPuMkb6HWoTSxEaaG-1">
          <mxGeometry relative="1" as="geometry">
            <mxPoint x="209.34650115473437" y="73.06896551724137" as="targetPoint" />
          </mxGeometry>
        </mxCell>
        <mxCell id="UhEpPuMkb6HWoTSxEaaG-14" value="" style="group" vertex="1" connectable="0" parent="UhEpPuMkb6HWoTSxEaaG-340">
          <mxGeometry x="8.965588914549652" y="19.27586206896552" width="48.41418013856813" height="53.793103448275865" as="geometry" />
        </mxCell>
        <mxCell id="UhEpPuMkb6HWoTSxEaaG-15" value="" style="group" vertex="1" connectable="0" parent="UhEpPuMkb6HWoTSxEaaG-14">
          <mxGeometry x="-3.1852170375222686e-15" width="48.41418013856813" height="53.793103448275865" as="geometry" />
        </mxCell>
        <mxCell id="UhEpPuMkb6HWoTSxEaaG-1" value="" style="verticalLabelPosition=bottom;verticalAlign=top;html=1;shape=mxgraph.basic.6_point_star;rotation=-90;fillColor=#000000;strokeColor=#FFFFFF;strokeWidth=1.5;horizontal=1;" vertex="1" parent="UhEpPuMkb6HWoTSxEaaG-15">
          <mxGeometry x="-2.6896766743648928" y="2.689655172413793" width="53.79353348729792" height="48.41379310344828" as="geometry" />
        </mxCell>
        <mxCell id="UhEpPuMkb6HWoTSxEaaG-20" style="edgeStyle=orthogonalEdgeStyle;rounded=0;orthogonalLoop=1;jettySize=auto;html=1;exitX=0;exitY=0.5;exitDx=0;exitDy=0;" edge="1" parent="UhEpPuMkb6HWoTSxEaaG-15" source="UhEpPuMkb6HWoTSxEaaG-11">
          <mxGeometry relative="1" as="geometry">
            <mxPoint x="-4.931073903002309" y="26.986206896551742" as="targetPoint" />
          </mxGeometry>
        </mxCell>
        <mxCell id="UhEpPuMkb6HWoTSxEaaG-11" value="&lt;font style=&quot;font-size: 24px;&quot;&gt;1&lt;/font&gt;" style="text;strokeColor=none;fillColor=none;align=center;verticalAlign=middle;spacingLeft=4;spacingRight=4;overflow=hidden;points=[[0,0.5],[1,0.5]];portConstraint=eastwest;rotatable=0;whiteSpace=wrap;html=1;fontColor=#FFFFFF;" vertex="1" parent="UhEpPuMkb6HWoTSxEaaG-15">
          <mxGeometry x="9.413868360277139" y="13.448275862068966" width="29.586443418013857" height="26.896551724137932" as="geometry" />
        </mxCell>
        <mxCell id="UhEpPuMkb6HWoTSxEaaG-16" value="" style="group" vertex="1" connectable="0" parent="UhEpPuMkb6HWoTSxEaaG-340">
          <mxGeometry x="80.69030023094687" y="19.27586206896552" width="48.41418013856813" height="53.793103448275865" as="geometry" />
        </mxCell>
        <mxCell id="UhEpPuMkb6HWoTSxEaaG-17" value="" style="group" vertex="1" connectable="0" parent="UhEpPuMkb6HWoTSxEaaG-16">
          <mxGeometry x="-3.1852170375222686e-15" width="48.41418013856813" height="53.793103448275865" as="geometry" />
        </mxCell>
        <mxCell id="UhEpPuMkb6HWoTSxEaaG-18" value="" style="verticalLabelPosition=bottom;verticalAlign=top;html=1;shape=mxgraph.basic.6_point_star;rotation=-90;fillColor=#000000;strokeColor=#FFFFFF;strokeWidth=1.5;horizontal=1;" vertex="1" parent="UhEpPuMkb6HWoTSxEaaG-17">
          <mxGeometry x="-2.6896766743648928" y="2.689655172413793" width="53.79353348729792" height="48.41379310344828" as="geometry" />
        </mxCell>
        <mxCell id="UhEpPuMkb6HWoTSxEaaG-19" value="&lt;span style=&quot;font-size: 24px;&quot;&gt;2&lt;/span&gt;" style="text;strokeColor=none;fillColor=none;align=center;verticalAlign=middle;spacingLeft=4;spacingRight=4;overflow=hidden;points=[[0,0.5],[1,0.5]];portConstraint=eastwest;rotatable=0;whiteSpace=wrap;html=1;fontColor=#FFFFFF;" vertex="1" parent="UhEpPuMkb6HWoTSxEaaG-17">
          <mxGeometry x="9.413868360277139" y="13.448275862068966" width="29.586443418013857" height="26.896551724137932" as="geometry" />
        </mxCell>
        <mxCell id="UhEpPuMkb6HWoTSxEaaG-21" value="" style="group" vertex="1" connectable="0" parent="UhEpPuMkb6HWoTSxEaaG-340">
          <mxGeometry x="152.41501154734408" y="19.27586206896552" width="48.41418013856813" height="53.793103448275865" as="geometry" />
        </mxCell>
        <mxCell id="UhEpPuMkb6HWoTSxEaaG-22" value="" style="group" vertex="1" connectable="0" parent="UhEpPuMkb6HWoTSxEaaG-21">
          <mxGeometry x="-3.1852170375222686e-15" width="48.41418013856813" height="53.793103448275865" as="geometry" />
        </mxCell>
        <mxCell id="UhEpPuMkb6HWoTSxEaaG-23" value="" style="verticalLabelPosition=bottom;verticalAlign=top;html=1;shape=mxgraph.basic.6_point_star;rotation=-90;fillColor=#000000;strokeColor=#FFFFFF;strokeWidth=1.5;horizontal=1;" vertex="1" parent="UhEpPuMkb6HWoTSxEaaG-22">
          <mxGeometry x="-2.6896766743648928" y="2.689655172413793" width="53.79353348729792" height="48.41379310344828" as="geometry" />
        </mxCell>
        <mxCell id="UhEpPuMkb6HWoTSxEaaG-24" value="&lt;span style=&quot;font-size: 24px;&quot;&gt;4&lt;/span&gt;" style="text;strokeColor=none;fillColor=none;align=center;verticalAlign=middle;spacingLeft=4;spacingRight=4;overflow=hidden;points=[[0,0.5],[1,0.5]];portConstraint=eastwest;rotatable=0;whiteSpace=wrap;html=1;fontColor=#FFFFFF;" vertex="1" parent="UhEpPuMkb6HWoTSxEaaG-22">
          <mxGeometry x="9.413868360277139" y="13.448275862068966" width="29.586443418013857" height="26.896551724137932" as="geometry" />
        </mxCell>
        <mxCell id="UhEpPuMkb6HWoTSxEaaG-25" value="" style="group" vertex="1" connectable="0" parent="UhEpPuMkb6HWoTSxEaaG-340">
          <mxGeometry x="224.13972286374133" y="19.27586206896552" width="48.41418013856813" height="53.793103448275865" as="geometry" />
        </mxCell>
        <mxCell id="UhEpPuMkb6HWoTSxEaaG-26" value="" style="group" vertex="1" connectable="0" parent="UhEpPuMkb6HWoTSxEaaG-25">
          <mxGeometry x="-3.1852170375222686e-15" width="48.41418013856813" height="53.793103448275865" as="geometry" />
        </mxCell>
        <mxCell id="UhEpPuMkb6HWoTSxEaaG-27" value="" style="verticalLabelPosition=bottom;verticalAlign=top;html=1;shape=mxgraph.basic.6_point_star;rotation=-90;fillColor=#000000;strokeColor=#FFFFFF;strokeWidth=1.5;horizontal=1;" vertex="1" parent="UhEpPuMkb6HWoTSxEaaG-26">
          <mxGeometry x="-2.6896766743648928" y="2.689655172413793" width="53.79353348729792" height="48.41379310344828" as="geometry" />
        </mxCell>
        <mxCell id="UhEpPuMkb6HWoTSxEaaG-28" value="&lt;span style=&quot;font-size: 24px;&quot;&gt;3&lt;/span&gt;" style="text;strokeColor=none;fillColor=none;align=center;verticalAlign=middle;spacingLeft=4;spacingRight=4;overflow=hidden;points=[[0,0.5],[1,0.5]];portConstraint=eastwest;rotatable=0;whiteSpace=wrap;html=1;fontColor=#FFFFFF;" vertex="1" parent="UhEpPuMkb6HWoTSxEaaG-26">
          <mxGeometry x="9.413868360277139" y="13.448275862068966" width="29.586443418013857" height="26.896551724137932" as="geometry" />
        </mxCell>
        <mxCell id="UhEpPuMkb6HWoTSxEaaG-29" value="" style="endArrow=none;dashed=1;html=1;strokeWidth=3;rounded=0;fontColor=#FFFFFF;strokeColor=#FFFFFF;dashPattern=1 1;" edge="1" parent="UhEpPuMkb6HWoTSxEaaG-340">
          <mxGeometry width="50" height="50" relative="1" as="geometry">
            <mxPoint x="286.8988452655889" y="89.6551724137931" as="sourcePoint" />
            <mxPoint x="286.8988452655889" as="targetPoint" />
          </mxGeometry>
        </mxCell>
        <mxCell id="UhEpPuMkb6HWoTSxEaaG-30" value="" style="group" vertex="1" connectable="0" parent="UhEpPuMkb6HWoTSxEaaG-340">
          <mxGeometry x="304.83002309468816" y="19.27586206896552" width="48.41418013856813" height="53.793103448275865" as="geometry" />
        </mxCell>
        <mxCell id="UhEpPuMkb6HWoTSxEaaG-31" value="" style="group" vertex="1" connectable="0" parent="UhEpPuMkb6HWoTSxEaaG-30">
          <mxGeometry x="-3.1852170375222686e-15" width="48.41418013856813" height="53.793103448275865" as="geometry" />
        </mxCell>
        <mxCell id="UhEpPuMkb6HWoTSxEaaG-32" value="" style="verticalLabelPosition=bottom;verticalAlign=top;html=1;shape=mxgraph.basic.6_point_star;rotation=-90;fillColor=#000000;strokeColor=#FFFFFF;strokeWidth=1.5;horizontal=1;" vertex="1" parent="UhEpPuMkb6HWoTSxEaaG-31">
          <mxGeometry x="-2.6896766743648928" y="2.689655172413793" width="53.79353348729792" height="48.41379310344828" as="geometry" />
        </mxCell>
        <mxCell id="UhEpPuMkb6HWoTSxEaaG-33" value="&lt;span style=&quot;font-size: 24px;&quot;&gt;2&lt;/span&gt;" style="text;strokeColor=none;fillColor=none;align=center;verticalAlign=middle;spacingLeft=4;spacingRight=4;overflow=hidden;points=[[0,0.5],[1,0.5]];portConstraint=eastwest;rotatable=0;whiteSpace=wrap;html=1;fontColor=#FFFFFF;" vertex="1" parent="UhEpPuMkb6HWoTSxEaaG-31">
          <mxGeometry x="9.413868360277139" y="13.448275862068966" width="29.586443418013857" height="26.896551724137932" as="geometry" />
        </mxCell>
        <mxCell id="UhEpPuMkb6HWoTSxEaaG-34" value="" style="group" vertex="1" connectable="0" parent="UhEpPuMkb6HWoTSxEaaG-340">
          <mxGeometry x="371.17538106235565" y="19.27586206896552" width="48.41418013856813" height="53.793103448275865" as="geometry" />
        </mxCell>
        <mxCell id="UhEpPuMkb6HWoTSxEaaG-35" value="" style="group" vertex="1" connectable="0" parent="UhEpPuMkb6HWoTSxEaaG-34">
          <mxGeometry x="-3.1852170375222686e-15" width="48.41418013856813" height="53.793103448275865" as="geometry" />
        </mxCell>
        <mxCell id="UhEpPuMkb6HWoTSxEaaG-36" value="" style="verticalLabelPosition=bottom;verticalAlign=top;html=1;shape=mxgraph.basic.6_point_star;rotation=-90;fillColor=#000000;strokeColor=#FFFFFF;strokeWidth=1.5;horizontal=1;" vertex="1" parent="UhEpPuMkb6HWoTSxEaaG-35">
          <mxGeometry x="-2.6896766743648928" y="2.689655172413793" width="53.79353348729792" height="48.41379310344828" as="geometry" />
        </mxCell>
        <mxCell id="UhEpPuMkb6HWoTSxEaaG-37" style="edgeStyle=orthogonalEdgeStyle;rounded=0;orthogonalLoop=1;jettySize=auto;html=1;exitX=0;exitY=0.5;exitDx=0;exitDy=0;" edge="1" parent="UhEpPuMkb6HWoTSxEaaG-35" source="UhEpPuMkb6HWoTSxEaaG-38">
          <mxGeometry relative="1" as="geometry">
            <mxPoint x="-4.931073903002309" y="26.986206896551742" as="targetPoint" />
          </mxGeometry>
        </mxCell>
        <mxCell id="UhEpPuMkb6HWoTSxEaaG-38" value="&lt;font style=&quot;font-size: 24px;&quot;&gt;1&lt;/font&gt;" style="text;strokeColor=none;fillColor=none;align=center;verticalAlign=middle;spacingLeft=4;spacingRight=4;overflow=hidden;points=[[0,0.5],[1,0.5]];portConstraint=eastwest;rotatable=0;whiteSpace=wrap;html=1;fontColor=#FFFFFF;" vertex="1" parent="UhEpPuMkb6HWoTSxEaaG-35">
          <mxGeometry x="9.413868360277139" y="13.448275862068966" width="29.586443418013857" height="26.896551724137932" as="geometry" />
        </mxCell>
        <mxCell id="UhEpPuMkb6HWoTSxEaaG-39" value="" style="endArrow=none;dashed=1;html=1;strokeWidth=3;rounded=0;fontColor=#FFFFFF;strokeColor=#FFFFFF;dashPattern=1 1;" edge="1" parent="UhEpPuMkb6HWoTSxEaaG-340">
          <mxGeometry width="50" height="50" relative="1" as="geometry">
            <mxPoint x="439.313856812933" y="91" as="sourcePoint" />
            <mxPoint x="439.313856812933" y="1.3448275862068966" as="targetPoint" />
          </mxGeometry>
        </mxCell>
        <mxCell id="UhEpPuMkb6HWoTSxEaaG-44" value="" style="group" vertex="1" connectable="0" parent="UhEpPuMkb6HWoTSxEaaG-340">
          <mxGeometry x="457.2450346420323" y="19.27586206896552" width="48.41418013856813" height="53.793103448275865" as="geometry" />
        </mxCell>
        <mxCell id="UhEpPuMkb6HWoTSxEaaG-45" value="" style="group" vertex="1" connectable="0" parent="UhEpPuMkb6HWoTSxEaaG-44">
          <mxGeometry x="-3.1852170375222686e-15" width="48.41418013856813" height="53.793103448275865" as="geometry" />
        </mxCell>
        <mxCell id="UhEpPuMkb6HWoTSxEaaG-46" value="" style="verticalLabelPosition=bottom;verticalAlign=top;html=1;shape=mxgraph.basic.6_point_star;rotation=-90;fillColor=#000000;strokeColor=#FFFFFF;strokeWidth=1.5;horizontal=1;" vertex="1" parent="UhEpPuMkb6HWoTSxEaaG-45">
          <mxGeometry x="-2.6896766743648928" y="2.689655172413793" width="53.79353348729792" height="48.41379310344828" as="geometry" />
        </mxCell>
        <mxCell id="UhEpPuMkb6HWoTSxEaaG-47" value="&lt;span style=&quot;font-size: 24px;&quot;&gt;2&lt;/span&gt;" style="text;strokeColor=none;fillColor=none;align=center;verticalAlign=middle;spacingLeft=4;spacingRight=4;overflow=hidden;points=[[0,0.5],[1,0.5]];portConstraint=eastwest;rotatable=0;whiteSpace=wrap;html=1;fontColor=#FFFFFF;" vertex="1" parent="UhEpPuMkb6HWoTSxEaaG-45">
          <mxGeometry x="9.413868360277139" y="13.448275862068966" width="29.586443418013857" height="26.896551724137932" as="geometry" />
        </mxCell>
        <mxCell id="UhEpPuMkb6HWoTSxEaaG-48" value="" style="group" vertex="1" connectable="0" parent="UhEpPuMkb6HWoTSxEaaG-340">
          <mxGeometry x="523.5903926096997" y="19.27586206896552" width="48.41418013856813" height="53.793103448275865" as="geometry" />
        </mxCell>
        <mxCell id="UhEpPuMkb6HWoTSxEaaG-49" value="" style="group" vertex="1" connectable="0" parent="UhEpPuMkb6HWoTSxEaaG-48">
          <mxGeometry x="-3.1852170375222686e-15" width="48.41418013856813" height="53.793103448275865" as="geometry" />
        </mxCell>
        <mxCell id="UhEpPuMkb6HWoTSxEaaG-50" value="" style="verticalLabelPosition=bottom;verticalAlign=top;html=1;shape=mxgraph.basic.6_point_star;rotation=-90;fillColor=#000000;strokeColor=#FFFFFF;strokeWidth=1.5;horizontal=1;" vertex="1" parent="UhEpPuMkb6HWoTSxEaaG-49">
          <mxGeometry x="-2.6896766743648928" y="2.689655172413793" width="53.79353348729792" height="48.41379310344828" as="geometry" />
        </mxCell>
        <mxCell id="UhEpPuMkb6HWoTSxEaaG-51" style="edgeStyle=orthogonalEdgeStyle;rounded=0;orthogonalLoop=1;jettySize=auto;html=1;exitX=0;exitY=0.5;exitDx=0;exitDy=0;" edge="1" parent="UhEpPuMkb6HWoTSxEaaG-49" source="UhEpPuMkb6HWoTSxEaaG-52">
          <mxGeometry relative="1" as="geometry">
            <mxPoint x="-4.931073903002309" y="26.986206896551742" as="targetPoint" />
          </mxGeometry>
        </mxCell>
        <mxCell id="UhEpPuMkb6HWoTSxEaaG-52" value="&lt;span style=&quot;font-size: 24px;&quot;&gt;8&lt;/span&gt;" style="text;strokeColor=none;fillColor=none;align=center;verticalAlign=middle;spacingLeft=4;spacingRight=4;overflow=hidden;points=[[0,0.5],[1,0.5]];portConstraint=eastwest;rotatable=0;whiteSpace=wrap;html=1;fontColor=#FFFFFF;" vertex="1" parent="UhEpPuMkb6HWoTSxEaaG-49">
          <mxGeometry x="9.413868360277139" y="13.448275862068966" width="29.586443418013857" height="26.896551724137932" as="geometry" />
        </mxCell>
        <mxCell id="UhEpPuMkb6HWoTSxEaaG-53" value="" style="endArrow=none;dashed=1;html=1;strokeWidth=3;rounded=0;fontColor=#FFFFFF;strokeColor=#FFFFFF;dashPattern=1 1;" edge="1" parent="UhEpPuMkb6HWoTSxEaaG-340">
          <mxGeometry width="50" height="50" relative="1" as="geometry">
            <mxPoint x="591.728868360277" y="91" as="sourcePoint" />
            <mxPoint x="591.728868360277" y="1.3448275862068966" as="targetPoint" />
          </mxGeometry>
        </mxCell>
        <mxCell id="UhEpPuMkb6HWoTSxEaaG-54" value="" style="group" vertex="1" connectable="0" parent="UhEpPuMkb6HWoTSxEaaG-340">
          <mxGeometry x="609.6600461893763" y="19.27586206896552" width="48.41418013856813" height="53.793103448275865" as="geometry" />
        </mxCell>
        <mxCell id="UhEpPuMkb6HWoTSxEaaG-55" value="" style="group" vertex="1" connectable="0" parent="UhEpPuMkb6HWoTSxEaaG-54">
          <mxGeometry x="-3.1852170375222686e-15" width="48.41418013856813" height="53.793103448275865" as="geometry" />
        </mxCell>
        <mxCell id="UhEpPuMkb6HWoTSxEaaG-56" value="" style="verticalLabelPosition=bottom;verticalAlign=top;html=1;shape=mxgraph.basic.6_point_star;rotation=-90;fillColor=#000000;strokeColor=#FFFFFF;strokeWidth=1.5;horizontal=1;" vertex="1" parent="UhEpPuMkb6HWoTSxEaaG-55">
          <mxGeometry x="-2.6896766743648928" y="2.689655172413793" width="53.79353348729792" height="48.41379310344828" as="geometry" />
        </mxCell>
        <mxCell id="UhEpPuMkb6HWoTSxEaaG-57" value="&lt;span style=&quot;font-size: 24px;&quot;&gt;6&lt;/span&gt;" style="text;strokeColor=none;fillColor=none;align=center;verticalAlign=middle;spacingLeft=4;spacingRight=4;overflow=hidden;points=[[0,0.5],[1,0.5]];portConstraint=eastwest;rotatable=0;whiteSpace=wrap;html=1;fontColor=#FFFFFF;" vertex="1" parent="UhEpPuMkb6HWoTSxEaaG-55">
          <mxGeometry x="9.413868360277139" y="13.448275862068966" width="29.586443418013857" height="26.896551724137932" as="geometry" />
        </mxCell>
        <mxCell id="UhEpPuMkb6HWoTSxEaaG-58" value="" style="group" vertex="1" connectable="0" parent="UhEpPuMkb6HWoTSxEaaG-340">
          <mxGeometry x="676.0054041570438" y="19.27586206896552" width="48.41418013856813" height="53.793103448275865" as="geometry" />
        </mxCell>
        <mxCell id="UhEpPuMkb6HWoTSxEaaG-59" value="" style="group" vertex="1" connectable="0" parent="UhEpPuMkb6HWoTSxEaaG-58">
          <mxGeometry x="-3.1852170375222686e-15" width="48.41418013856813" height="53.793103448275865" as="geometry" />
        </mxCell>
        <mxCell id="UhEpPuMkb6HWoTSxEaaG-60" value="" style="verticalLabelPosition=bottom;verticalAlign=top;html=1;shape=mxgraph.basic.6_point_star;rotation=-90;fillColor=#000000;strokeColor=#FFFFFF;strokeWidth=1.5;horizontal=1;" vertex="1" parent="UhEpPuMkb6HWoTSxEaaG-59">
          <mxGeometry x="-2.6896766743648928" y="2.689655172413793" width="53.79353348729792" height="48.41379310344828" as="geometry" />
        </mxCell>
        <mxCell id="UhEpPuMkb6HWoTSxEaaG-61" style="edgeStyle=orthogonalEdgeStyle;rounded=0;orthogonalLoop=1;jettySize=auto;html=1;exitX=0;exitY=0.5;exitDx=0;exitDy=0;" edge="1" parent="UhEpPuMkb6HWoTSxEaaG-59" source="UhEpPuMkb6HWoTSxEaaG-62">
          <mxGeometry relative="1" as="geometry">
            <mxPoint x="-4.931073903002309" y="26.986206896551742" as="targetPoint" />
          </mxGeometry>
        </mxCell>
        <mxCell id="UhEpPuMkb6HWoTSxEaaG-62" value="&lt;span style=&quot;font-size: 24px;&quot;&gt;8&lt;/span&gt;" style="text;strokeColor=none;fillColor=none;align=center;verticalAlign=middle;spacingLeft=4;spacingRight=4;overflow=hidden;points=[[0,0.5],[1,0.5]];portConstraint=eastwest;rotatable=0;whiteSpace=wrap;html=1;fontColor=#FFFFFF;" vertex="1" parent="UhEpPuMkb6HWoTSxEaaG-59">
          <mxGeometry x="9.413868360277139" y="13.448275862068966" width="29.586443418013857" height="26.896551724137932" as="geometry" />
        </mxCell>
        <mxCell id="UhEpPuMkb6HWoTSxEaaG-63" value="" style="endArrow=none;dashed=1;html=1;strokeWidth=3;rounded=0;fontColor=#FFFFFF;strokeColor=#FFFFFF;dashPattern=1 1;" edge="1" parent="UhEpPuMkb6HWoTSxEaaG-340">
          <mxGeometry width="50" height="50" relative="1" as="geometry">
            <mxPoint x="744.1438799076212" y="91" as="sourcePoint" />
            <mxPoint x="744.1438799076212" y="1.3448275862068966" as="targetPoint" />
          </mxGeometry>
        </mxCell>
        <mxCell id="UhEpPuMkb6HWoTSxEaaG-64" value="" style="group" vertex="1" connectable="0" parent="UhEpPuMkb6HWoTSxEaaG-340">
          <mxGeometry x="8.965588914549652" y="125.51724137931035" width="48.41418013856813" height="53.793103448275865" as="geometry" />
        </mxCell>
        <mxCell id="UhEpPuMkb6HWoTSxEaaG-65" value="" style="group" vertex="1" connectable="0" parent="UhEpPuMkb6HWoTSxEaaG-64">
          <mxGeometry x="-3.1852170375222686e-15" width="48.41418013856813" height="53.793103448275865" as="geometry" />
        </mxCell>
        <mxCell id="UhEpPuMkb6HWoTSxEaaG-66" value="" style="verticalLabelPosition=bottom;verticalAlign=top;html=1;shape=mxgraph.basic.6_point_star;rotation=-90;fillColor=#000000;strokeColor=#FFFFFF;strokeWidth=1.5;horizontal=1;" vertex="1" parent="UhEpPuMkb6HWoTSxEaaG-65">
          <mxGeometry x="-2.6896766743648928" y="2.689655172413793" width="53.79353348729792" height="48.41379310344828" as="geometry" />
        </mxCell>
        <mxCell id="UhEpPuMkb6HWoTSxEaaG-67" style="edgeStyle=orthogonalEdgeStyle;rounded=0;orthogonalLoop=1;jettySize=auto;html=1;exitX=0;exitY=0.5;exitDx=0;exitDy=0;" edge="1" parent="UhEpPuMkb6HWoTSxEaaG-65" source="UhEpPuMkb6HWoTSxEaaG-68">
          <mxGeometry relative="1" as="geometry">
            <mxPoint x="-4.931073903002309" y="26.986206896551742" as="targetPoint" />
          </mxGeometry>
        </mxCell>
        <mxCell id="UhEpPuMkb6HWoTSxEaaG-68" value="&lt;font style=&quot;font-size: 24px;&quot;&gt;1&lt;/font&gt;" style="text;strokeColor=none;fillColor=none;align=center;verticalAlign=middle;spacingLeft=4;spacingRight=4;overflow=hidden;points=[[0,0.5],[1,0.5]];portConstraint=eastwest;rotatable=0;whiteSpace=wrap;html=1;fontColor=#FFFFFF;" vertex="1" parent="UhEpPuMkb6HWoTSxEaaG-65">
          <mxGeometry x="9.413868360277139" y="13.448275862068966" width="29.586443418013857" height="26.896551724137932" as="geometry" />
        </mxCell>
        <mxCell id="UhEpPuMkb6HWoTSxEaaG-69" value="" style="group" vertex="1" connectable="0" parent="UhEpPuMkb6HWoTSxEaaG-340">
          <mxGeometry x="80.69030023094687" y="125.51724137931035" width="48.41418013856813" height="53.793103448275865" as="geometry" />
        </mxCell>
        <mxCell id="UhEpPuMkb6HWoTSxEaaG-70" value="" style="group" vertex="1" connectable="0" parent="UhEpPuMkb6HWoTSxEaaG-69">
          <mxGeometry x="-3.1852170375222686e-15" width="48.41418013856813" height="53.793103448275865" as="geometry" />
        </mxCell>
        <mxCell id="UhEpPuMkb6HWoTSxEaaG-71" value="" style="verticalLabelPosition=bottom;verticalAlign=top;html=1;shape=mxgraph.basic.6_point_star;rotation=-90;fillColor=#000000;strokeColor=#FFFFFF;strokeWidth=1.5;horizontal=1;" vertex="1" parent="UhEpPuMkb6HWoTSxEaaG-70">
          <mxGeometry x="-2.6896766743648928" y="2.689655172413793" width="53.79353348729792" height="48.41379310344828" as="geometry" />
        </mxCell>
        <mxCell id="UhEpPuMkb6HWoTSxEaaG-72" value="&lt;span style=&quot;font-size: 24px;&quot;&gt;2&lt;/span&gt;" style="text;strokeColor=none;fillColor=none;align=center;verticalAlign=middle;spacingLeft=4;spacingRight=4;overflow=hidden;points=[[0,0.5],[1,0.5]];portConstraint=eastwest;rotatable=0;whiteSpace=wrap;html=1;fontColor=#FFFFFF;" vertex="1" parent="UhEpPuMkb6HWoTSxEaaG-70">
          <mxGeometry x="9.413868360277139" y="13.448275862068966" width="29.586443418013857" height="26.896551724137932" as="geometry" />
        </mxCell>
        <mxCell id="UhEpPuMkb6HWoTSxEaaG-73" value="" style="group" vertex="1" connectable="0" parent="UhEpPuMkb6HWoTSxEaaG-340">
          <mxGeometry x="152.41501154734408" y="125.51724137931035" width="48.41418013856813" height="53.793103448275865" as="geometry" />
        </mxCell>
        <mxCell id="UhEpPuMkb6HWoTSxEaaG-74" value="" style="group" vertex="1" connectable="0" parent="UhEpPuMkb6HWoTSxEaaG-73">
          <mxGeometry x="-3.1852170375222686e-15" width="48.41418013856813" height="53.793103448275865" as="geometry" />
        </mxCell>
        <mxCell id="UhEpPuMkb6HWoTSxEaaG-75" value="" style="verticalLabelPosition=bottom;verticalAlign=top;html=1;shape=mxgraph.basic.6_point_star;rotation=-90;fillColor=#000000;strokeColor=#FFFFFF;strokeWidth=1.5;horizontal=1;" vertex="1" parent="UhEpPuMkb6HWoTSxEaaG-74">
          <mxGeometry x="-2.6896766743648928" y="2.689655172413793" width="53.79353348729792" height="48.41379310344828" as="geometry" />
        </mxCell>
        <mxCell id="UhEpPuMkb6HWoTSxEaaG-76" value="&lt;span style=&quot;font-size: 24px;&quot;&gt;4&lt;/span&gt;" style="text;strokeColor=none;fillColor=none;align=center;verticalAlign=middle;spacingLeft=4;spacingRight=4;overflow=hidden;points=[[0,0.5],[1,0.5]];portConstraint=eastwest;rotatable=0;whiteSpace=wrap;html=1;fontColor=#FFFFFF;" vertex="1" parent="UhEpPuMkb6HWoTSxEaaG-74">
          <mxGeometry x="9.413868360277139" y="13.448275862068966" width="29.586443418013857" height="26.896551724137932" as="geometry" />
        </mxCell>
        <mxCell id="UhEpPuMkb6HWoTSxEaaG-77" value="" style="endArrow=none;dashed=1;html=1;strokeWidth=3;rounded=0;fontColor=#FFFFFF;strokeColor=#FFFFFF;dashPattern=1 1;" edge="1" parent="UhEpPuMkb6HWoTSxEaaG-340">
          <mxGeometry width="50" height="50" relative="1" as="geometry">
            <mxPoint x="215.17413394919168" y="197.24137931034485" as="sourcePoint" />
            <mxPoint x="215.17413394919168" y="107.58620689655173" as="targetPoint" />
          </mxGeometry>
        </mxCell>
        <mxCell id="UhEpPuMkb6HWoTSxEaaG-78" value="" style="group" vertex="1" connectable="0" parent="UhEpPuMkb6HWoTSxEaaG-340">
          <mxGeometry x="231.31219399538105" y="125.51724137931035" width="48.41418013856813" height="53.793103448275865" as="geometry" />
        </mxCell>
        <mxCell id="UhEpPuMkb6HWoTSxEaaG-79" value="" style="group" vertex="1" connectable="0" parent="UhEpPuMkb6HWoTSxEaaG-78">
          <mxGeometry x="-3.1852170375222686e-15" width="48.41418013856813" height="53.793103448275865" as="geometry" />
        </mxCell>
        <mxCell id="UhEpPuMkb6HWoTSxEaaG-80" value="" style="verticalLabelPosition=bottom;verticalAlign=top;html=1;shape=mxgraph.basic.6_point_star;rotation=-90;fillColor=#000000;strokeColor=#FFFFFF;strokeWidth=1.5;horizontal=1;" vertex="1" parent="UhEpPuMkb6HWoTSxEaaG-79">
          <mxGeometry x="-2.6896766743648928" y="2.689655172413793" width="53.79353348729792" height="48.41379310344828" as="geometry" />
        </mxCell>
        <mxCell id="UhEpPuMkb6HWoTSxEaaG-81" value="&lt;span style=&quot;font-size: 24px;&quot;&gt;3&lt;/span&gt;" style="text;strokeColor=none;fillColor=none;align=center;verticalAlign=middle;spacingLeft=4;spacingRight=4;overflow=hidden;points=[[0,0.5],[1,0.5]];portConstraint=eastwest;rotatable=0;whiteSpace=wrap;html=1;fontColor=#FFFFFF;" vertex="1" parent="UhEpPuMkb6HWoTSxEaaG-79">
          <mxGeometry x="9.413868360277139" y="13.448275862068966" width="29.586443418013857" height="26.896551724137932" as="geometry" />
        </mxCell>
        <mxCell id="UhEpPuMkb6HWoTSxEaaG-82" value="" style="group" vertex="1" connectable="0" parent="UhEpPuMkb6HWoTSxEaaG-340">
          <mxGeometry x="304.83002309468816" y="125.51724137931035" width="48.41418013856813" height="53.793103448275865" as="geometry" />
        </mxCell>
        <mxCell id="UhEpPuMkb6HWoTSxEaaG-83" value="" style="group" vertex="1" connectable="0" parent="UhEpPuMkb6HWoTSxEaaG-82">
          <mxGeometry x="-7.172471131639726" width="48.41418013856813" height="53.793103448275865" as="geometry" />
        </mxCell>
        <mxCell id="UhEpPuMkb6HWoTSxEaaG-84" value="" style="verticalLabelPosition=bottom;verticalAlign=top;html=1;shape=mxgraph.basic.6_point_star;rotation=-90;fillColor=#000000;strokeColor=#FFFFFF;strokeWidth=1.5;horizontal=1;" vertex="1" parent="UhEpPuMkb6HWoTSxEaaG-83">
          <mxGeometry x="-2.6896766743648928" y="2.689655172413793" width="53.79353348729792" height="48.41379310344828" as="geometry" />
        </mxCell>
        <mxCell id="UhEpPuMkb6HWoTSxEaaG-85" value="&lt;span style=&quot;font-size: 24px;&quot;&gt;2&lt;/span&gt;" style="text;strokeColor=none;fillColor=none;align=center;verticalAlign=middle;spacingLeft=4;spacingRight=4;overflow=hidden;points=[[0,0.5],[1,0.5]];portConstraint=eastwest;rotatable=0;whiteSpace=wrap;html=1;fontColor=#FFFFFF;" vertex="1" parent="UhEpPuMkb6HWoTSxEaaG-83">
          <mxGeometry x="9.413868360277139" y="13.448275862068966" width="29.586443418013857" height="26.896551724137932" as="geometry" />
        </mxCell>
        <mxCell id="UhEpPuMkb6HWoTSxEaaG-86" value="" style="group" vertex="1" connectable="0" parent="UhEpPuMkb6HWoTSxEaaG-340">
          <mxGeometry x="371.17538106235565" y="125.51724137931035" width="48.41418013856813" height="53.793103448275865" as="geometry" />
        </mxCell>
        <mxCell id="UhEpPuMkb6HWoTSxEaaG-87" value="" style="group" vertex="1" connectable="0" parent="UhEpPuMkb6HWoTSxEaaG-86">
          <mxGeometry x="-3.1852170375222686e-15" width="48.41418013856813" height="53.793103448275865" as="geometry" />
        </mxCell>
        <mxCell id="UhEpPuMkb6HWoTSxEaaG-88" value="" style="verticalLabelPosition=bottom;verticalAlign=top;html=1;shape=mxgraph.basic.6_point_star;rotation=-90;fillColor=#000000;strokeColor=#FFFFFF;strokeWidth=1.5;horizontal=1;" vertex="1" parent="UhEpPuMkb6HWoTSxEaaG-87">
          <mxGeometry x="-2.6896766743648928" y="2.689655172413793" width="53.79353348729792" height="48.41379310344828" as="geometry" />
        </mxCell>
        <mxCell id="UhEpPuMkb6HWoTSxEaaG-89" style="edgeStyle=orthogonalEdgeStyle;rounded=0;orthogonalLoop=1;jettySize=auto;html=1;exitX=0;exitY=0.5;exitDx=0;exitDy=0;" edge="1" parent="UhEpPuMkb6HWoTSxEaaG-87" source="UhEpPuMkb6HWoTSxEaaG-90">
          <mxGeometry relative="1" as="geometry">
            <mxPoint x="-4.931073903002309" y="26.986206896551742" as="targetPoint" />
          </mxGeometry>
        </mxCell>
        <mxCell id="UhEpPuMkb6HWoTSxEaaG-90" value="&lt;font style=&quot;font-size: 24px;&quot;&gt;1&lt;/font&gt;" style="text;strokeColor=none;fillColor=none;align=center;verticalAlign=middle;spacingLeft=4;spacingRight=4;overflow=hidden;points=[[0,0.5],[1,0.5]];portConstraint=eastwest;rotatable=0;whiteSpace=wrap;html=1;fontColor=#FFFFFF;" vertex="1" parent="UhEpPuMkb6HWoTSxEaaG-87">
          <mxGeometry x="9.413868360277139" y="13.448275862068966" width="29.586443418013857" height="26.896551724137932" as="geometry" />
        </mxCell>
        <mxCell id="UhEpPuMkb6HWoTSxEaaG-91" value="" style="endArrow=none;dashed=1;html=1;strokeWidth=3;rounded=0;fontColor=#FFFFFF;strokeColor=#FFFFFF;dashPattern=1 1;" edge="1" parent="UhEpPuMkb6HWoTSxEaaG-340">
          <mxGeometry width="50" height="50" relative="1" as="geometry">
            <mxPoint x="439.313856812933" y="197.24137931034485" as="sourcePoint" />
            <mxPoint x="439.313856812933" y="107.58620689655173" as="targetPoint" />
          </mxGeometry>
        </mxCell>
        <mxCell id="UhEpPuMkb6HWoTSxEaaG-92" value="" style="group" vertex="1" connectable="0" parent="UhEpPuMkb6HWoTSxEaaG-340">
          <mxGeometry x="457.2450346420323" y="125.51724137931035" width="48.41418013856813" height="53.793103448275865" as="geometry" />
        </mxCell>
        <mxCell id="UhEpPuMkb6HWoTSxEaaG-93" value="" style="group" vertex="1" connectable="0" parent="UhEpPuMkb6HWoTSxEaaG-92">
          <mxGeometry x="-3.1852170375222686e-15" width="48.41418013856813" height="53.793103448275865" as="geometry" />
        </mxCell>
        <mxCell id="UhEpPuMkb6HWoTSxEaaG-94" value="" style="verticalLabelPosition=bottom;verticalAlign=top;html=1;shape=mxgraph.basic.6_point_star;rotation=-90;fillColor=#000000;strokeColor=#FFFFFF;strokeWidth=1.5;horizontal=1;" vertex="1" parent="UhEpPuMkb6HWoTSxEaaG-93">
          <mxGeometry x="-2.6896766743648928" y="2.689655172413793" width="53.79353348729792" height="48.41379310344828" as="geometry" />
        </mxCell>
        <mxCell id="UhEpPuMkb6HWoTSxEaaG-95" value="&lt;span style=&quot;font-size: 24px;&quot;&gt;2&lt;/span&gt;" style="text;strokeColor=none;fillColor=none;align=center;verticalAlign=middle;spacingLeft=4;spacingRight=4;overflow=hidden;points=[[0,0.5],[1,0.5]];portConstraint=eastwest;rotatable=0;whiteSpace=wrap;html=1;fontColor=#FFFFFF;" vertex="1" parent="UhEpPuMkb6HWoTSxEaaG-93">
          <mxGeometry x="9.413868360277139" y="13.448275862068966" width="29.586443418013857" height="26.896551724137932" as="geometry" />
        </mxCell>
        <mxCell id="UhEpPuMkb6HWoTSxEaaG-96" value="" style="group" vertex="1" connectable="0" parent="UhEpPuMkb6HWoTSxEaaG-340">
          <mxGeometry x="523.5903926096997" y="125.51724137931035" width="48.41418013856813" height="53.793103448275865" as="geometry" />
        </mxCell>
        <mxCell id="UhEpPuMkb6HWoTSxEaaG-97" value="" style="group" vertex="1" connectable="0" parent="UhEpPuMkb6HWoTSxEaaG-96">
          <mxGeometry x="-3.1852170375222686e-15" width="48.41418013856813" height="53.793103448275865" as="geometry" />
        </mxCell>
        <mxCell id="UhEpPuMkb6HWoTSxEaaG-98" value="" style="verticalLabelPosition=bottom;verticalAlign=top;html=1;shape=mxgraph.basic.6_point_star;rotation=-90;fillColor=#000000;strokeColor=#FFFFFF;strokeWidth=1.5;horizontal=1;" vertex="1" parent="UhEpPuMkb6HWoTSxEaaG-97">
          <mxGeometry x="-2.6896766743648928" y="2.689655172413793" width="53.79353348729792" height="48.41379310344828" as="geometry" />
        </mxCell>
        <mxCell id="UhEpPuMkb6HWoTSxEaaG-99" style="edgeStyle=orthogonalEdgeStyle;rounded=0;orthogonalLoop=1;jettySize=auto;html=1;exitX=0;exitY=0.5;exitDx=0;exitDy=0;" edge="1" parent="UhEpPuMkb6HWoTSxEaaG-97" source="UhEpPuMkb6HWoTSxEaaG-100">
          <mxGeometry relative="1" as="geometry">
            <mxPoint x="-4.931073903002309" y="26.986206896551742" as="targetPoint" />
          </mxGeometry>
        </mxCell>
        <mxCell id="UhEpPuMkb6HWoTSxEaaG-100" value="&lt;span style=&quot;font-size: 24px;&quot;&gt;8&lt;/span&gt;" style="text;strokeColor=none;fillColor=none;align=center;verticalAlign=middle;spacingLeft=4;spacingRight=4;overflow=hidden;points=[[0,0.5],[1,0.5]];portConstraint=eastwest;rotatable=0;whiteSpace=wrap;html=1;fontColor=#FFFFFF;" vertex="1" parent="UhEpPuMkb6HWoTSxEaaG-97">
          <mxGeometry x="9.413868360277139" y="13.448275862068966" width="29.586443418013857" height="26.896551724137932" as="geometry" />
        </mxCell>
        <mxCell id="UhEpPuMkb6HWoTSxEaaG-101" value="" style="endArrow=none;dashed=1;html=1;strokeWidth=3;rounded=0;fontColor=#FFFFFF;strokeColor=#FFFFFF;dashPattern=1 1;" edge="1" parent="UhEpPuMkb6HWoTSxEaaG-340">
          <mxGeometry width="50" height="50" relative="1" as="geometry">
            <mxPoint x="591.728868360277" y="197.24137931034485" as="sourcePoint" />
            <mxPoint x="591.728868360277" y="107.58620689655173" as="targetPoint" />
          </mxGeometry>
        </mxCell>
        <mxCell id="UhEpPuMkb6HWoTSxEaaG-115" value="" style="group" vertex="1" connectable="0" parent="UhEpPuMkb6HWoTSxEaaG-340">
          <mxGeometry x="609.6600461893763" y="125.51724137931035" width="48.41418013856813" height="53.793103448275865" as="geometry" />
        </mxCell>
        <mxCell id="UhEpPuMkb6HWoTSxEaaG-116" value="" style="group" vertex="1" connectable="0" parent="UhEpPuMkb6HWoTSxEaaG-115">
          <mxGeometry x="-3.1852170375222686e-15" width="48.41418013856813" height="53.793103448275865" as="geometry" />
        </mxCell>
        <mxCell id="UhEpPuMkb6HWoTSxEaaG-117" value="" style="verticalLabelPosition=bottom;verticalAlign=top;html=1;shape=mxgraph.basic.6_point_star;rotation=-90;fillColor=#000000;strokeColor=#FFFFFF;strokeWidth=1.5;horizontal=1;" vertex="1" parent="UhEpPuMkb6HWoTSxEaaG-116">
          <mxGeometry x="-2.6896766743648928" y="2.689655172413793" width="53.79353348729792" height="48.41379310344828" as="geometry" />
        </mxCell>
        <mxCell id="UhEpPuMkb6HWoTSxEaaG-118" value="&lt;span style=&quot;font-size: 24px;&quot;&gt;6&lt;/span&gt;" style="text;strokeColor=none;fillColor=none;align=center;verticalAlign=middle;spacingLeft=4;spacingRight=4;overflow=hidden;points=[[0,0.5],[1,0.5]];portConstraint=eastwest;rotatable=0;whiteSpace=wrap;html=1;fontColor=#FFFFFF;" vertex="1" parent="UhEpPuMkb6HWoTSxEaaG-116">
          <mxGeometry x="9.413868360277139" y="13.448275862068966" width="29.586443418013857" height="26.896551724137932" as="geometry" />
        </mxCell>
        <mxCell id="UhEpPuMkb6HWoTSxEaaG-119" value="" style="group" vertex="1" connectable="0" parent="UhEpPuMkb6HWoTSxEaaG-340">
          <mxGeometry x="708.2815242494225" y="125.51724137931035" width="48.41418013856813" height="53.793103448275865" as="geometry" />
        </mxCell>
        <mxCell id="UhEpPuMkb6HWoTSxEaaG-120" value="" style="group" vertex="1" connectable="0" parent="UhEpPuMkb6HWoTSxEaaG-119">
          <mxGeometry x="-3.1852170375222686e-15" width="48.41418013856813" height="53.793103448275865" as="geometry" />
        </mxCell>
        <mxCell id="UhEpPuMkb6HWoTSxEaaG-121" value="" style="verticalLabelPosition=bottom;verticalAlign=top;html=1;shape=mxgraph.basic.6_point_star;rotation=-90;fillColor=#000000;strokeColor=#FFFFFF;strokeWidth=1.5;horizontal=1;" vertex="1" parent="UhEpPuMkb6HWoTSxEaaG-120">
          <mxGeometry x="-2.6896766743648928" y="2.689655172413793" width="53.79353348729792" height="48.41379310344828" as="geometry" />
        </mxCell>
        <mxCell id="UhEpPuMkb6HWoTSxEaaG-122" style="edgeStyle=orthogonalEdgeStyle;rounded=0;orthogonalLoop=1;jettySize=auto;html=1;exitX=0;exitY=0.5;exitDx=0;exitDy=0;" edge="1" parent="UhEpPuMkb6HWoTSxEaaG-120" source="UhEpPuMkb6HWoTSxEaaG-123">
          <mxGeometry relative="1" as="geometry">
            <mxPoint x="-4.931073903002309" y="26.986206896551742" as="targetPoint" />
          </mxGeometry>
        </mxCell>
        <mxCell id="UhEpPuMkb6HWoTSxEaaG-123" value="&lt;span style=&quot;font-size: 24px;&quot;&gt;8&lt;/span&gt;" style="text;strokeColor=none;fillColor=none;align=center;verticalAlign=middle;spacingLeft=4;spacingRight=4;overflow=hidden;points=[[0,0.5],[1,0.5]];portConstraint=eastwest;rotatable=0;whiteSpace=wrap;html=1;fontColor=#FFFFFF;" vertex="1" parent="UhEpPuMkb6HWoTSxEaaG-120">
          <mxGeometry x="9.413868360277139" y="13.448275862068966" width="29.586443418013857" height="26.896551724137932" as="geometry" />
        </mxCell>
        <mxCell id="UhEpPuMkb6HWoTSxEaaG-124" value="" style="endArrow=none;dashed=1;html=1;strokeWidth=3;rounded=0;fontColor=#FFFFFF;strokeColor=#FFFFFF;dashPattern=1 1;" edge="1" parent="UhEpPuMkb6HWoTSxEaaG-340">
          <mxGeometry width="50" height="50" relative="1" as="geometry">
            <mxPoint x="776.42" y="197.24137931034485" as="sourcePoint" />
            <mxPoint x="776.42" y="107.58620689655173" as="targetPoint" />
          </mxGeometry>
        </mxCell>
        <mxCell id="UhEpPuMkb6HWoTSxEaaG-131" value="" style="endArrow=none;dashed=1;html=1;strokeWidth=3;rounded=0;fontColor=#FFFFFF;strokeColor=#FFFFFF;dashPattern=1 1;" edge="1" parent="UhEpPuMkb6HWoTSxEaaG-340">
          <mxGeometry width="50" height="50" relative="1" as="geometry">
            <mxPoint x="681.3847575057736" y="197.24137931034485" as="sourcePoint" />
            <mxPoint x="681.3847575057736" y="107.58620689655173" as="targetPoint" />
          </mxGeometry>
        </mxCell>
        <mxCell id="UhEpPuMkb6HWoTSxEaaG-229" value="" style="edgeStyle=orthogonalEdgeStyle;rounded=0;orthogonalLoop=1;jettySize=auto;html=1;" edge="1" parent="UhEpPuMkb6HWoTSxEaaG-340" source="UhEpPuMkb6HWoTSxEaaG-232">
          <mxGeometry relative="1" as="geometry">
            <mxPoint x="200.38091224018476" y="342.0344827586207" as="targetPoint" />
          </mxGeometry>
        </mxCell>
        <mxCell id="UhEpPuMkb6HWoTSxEaaG-230" value="" style="group" vertex="1" connectable="0" parent="UhEpPuMkb6HWoTSxEaaG-340">
          <mxGeometry y="306.1724137931035" width="48.41418013856813" height="53.793103448275865" as="geometry" />
        </mxCell>
        <mxCell id="UhEpPuMkb6HWoTSxEaaG-231" value="" style="group" vertex="1" connectable="0" parent="UhEpPuMkb6HWoTSxEaaG-230">
          <mxGeometry x="-3.1852170375222686e-15" width="48.41418013856813" height="53.793103448275865" as="geometry" />
        </mxCell>
        <mxCell id="UhEpPuMkb6HWoTSxEaaG-232" value="" style="verticalLabelPosition=bottom;verticalAlign=top;html=1;shape=mxgraph.basic.6_point_star;rotation=-90;fillColor=#000000;strokeColor=#FFFFFF;strokeWidth=1.5;horizontal=1;" vertex="1" parent="UhEpPuMkb6HWoTSxEaaG-231">
          <mxGeometry x="-2.6896766743648928" y="2.689655172413793" width="53.79353348729792" height="48.41379310344828" as="geometry" />
        </mxCell>
        <mxCell id="UhEpPuMkb6HWoTSxEaaG-233" style="edgeStyle=orthogonalEdgeStyle;rounded=0;orthogonalLoop=1;jettySize=auto;html=1;exitX=0;exitY=0.5;exitDx=0;exitDy=0;" edge="1" parent="UhEpPuMkb6HWoTSxEaaG-231" source="UhEpPuMkb6HWoTSxEaaG-234">
          <mxGeometry relative="1" as="geometry">
            <mxPoint x="-4.931073903002309" y="26.986206896551742" as="targetPoint" />
          </mxGeometry>
        </mxCell>
        <mxCell id="UhEpPuMkb6HWoTSxEaaG-234" value="&lt;font style=&quot;font-size: 24px;&quot;&gt;1&lt;/font&gt;" style="text;strokeColor=none;fillColor=none;align=center;verticalAlign=middle;spacingLeft=4;spacingRight=4;overflow=hidden;points=[[0,0.5],[1,0.5]];portConstraint=eastwest;rotatable=0;whiteSpace=wrap;html=1;fontColor=#FFFFFF;" vertex="1" parent="UhEpPuMkb6HWoTSxEaaG-231">
          <mxGeometry x="9.413868360277139" y="13.448275862068966" width="29.586443418013857" height="26.896551724137932" as="geometry" />
        </mxCell>
        <mxCell id="UhEpPuMkb6HWoTSxEaaG-235" value="" style="group" vertex="1" connectable="0" parent="UhEpPuMkb6HWoTSxEaaG-340">
          <mxGeometry x="71.72471131639722" y="306.1724137931035" width="48.41418013856813" height="53.793103448275865" as="geometry" />
        </mxCell>
        <mxCell id="UhEpPuMkb6HWoTSxEaaG-236" value="" style="group" vertex="1" connectable="0" parent="UhEpPuMkb6HWoTSxEaaG-235">
          <mxGeometry x="-3.1852170375222686e-15" width="48.41418013856813" height="53.793103448275865" as="geometry" />
        </mxCell>
        <mxCell id="UhEpPuMkb6HWoTSxEaaG-237" value="" style="verticalLabelPosition=bottom;verticalAlign=top;html=1;shape=mxgraph.basic.6_point_star;rotation=-90;fillColor=#000000;strokeColor=#FFFFFF;strokeWidth=1.5;horizontal=1;" vertex="1" parent="UhEpPuMkb6HWoTSxEaaG-236">
          <mxGeometry x="-2.6896766743648928" y="2.689655172413793" width="53.79353348729792" height="48.41379310344828" as="geometry" />
        </mxCell>
        <mxCell id="UhEpPuMkb6HWoTSxEaaG-238" value="&lt;span style=&quot;font-size: 24px;&quot;&gt;2&lt;/span&gt;" style="text;strokeColor=none;fillColor=none;align=center;verticalAlign=middle;spacingLeft=4;spacingRight=4;overflow=hidden;points=[[0,0.5],[1,0.5]];portConstraint=eastwest;rotatable=0;whiteSpace=wrap;html=1;fontColor=#FFFFFF;" vertex="1" parent="UhEpPuMkb6HWoTSxEaaG-236">
          <mxGeometry x="9.413868360277139" y="13.448275862068966" width="29.586443418013857" height="26.896551724137932" as="geometry" />
        </mxCell>
        <mxCell id="UhEpPuMkb6HWoTSxEaaG-239" value="" style="group" vertex="1" connectable="0" parent="UhEpPuMkb6HWoTSxEaaG-340">
          <mxGeometry x="143.44942263279444" y="306.1724137931035" width="48.41418013856813" height="53.793103448275865" as="geometry" />
        </mxCell>
        <mxCell id="UhEpPuMkb6HWoTSxEaaG-240" value="" style="group" vertex="1" connectable="0" parent="UhEpPuMkb6HWoTSxEaaG-239">
          <mxGeometry x="-3.1852170375222686e-15" width="48.41418013856813" height="53.793103448275865" as="geometry" />
        </mxCell>
        <mxCell id="UhEpPuMkb6HWoTSxEaaG-241" value="" style="verticalLabelPosition=bottom;verticalAlign=top;html=1;shape=mxgraph.basic.6_point_star;rotation=-90;fillColor=#000000;strokeColor=#FFFFFF;strokeWidth=1.5;horizontal=1;" vertex="1" parent="UhEpPuMkb6HWoTSxEaaG-240">
          <mxGeometry x="-2.6896766743648928" y="2.689655172413793" width="53.79353348729792" height="48.41379310344828" as="geometry" />
        </mxCell>
        <mxCell id="UhEpPuMkb6HWoTSxEaaG-242" value="&lt;span style=&quot;font-size: 24px;&quot;&gt;4&lt;/span&gt;" style="text;strokeColor=none;fillColor=none;align=center;verticalAlign=middle;spacingLeft=4;spacingRight=4;overflow=hidden;points=[[0,0.5],[1,0.5]];portConstraint=eastwest;rotatable=0;whiteSpace=wrap;html=1;fontColor=#FFFFFF;" vertex="1" parent="UhEpPuMkb6HWoTSxEaaG-240">
          <mxGeometry x="9.413868360277139" y="13.448275862068966" width="29.586443418013857" height="26.896551724137932" as="geometry" />
        </mxCell>
        <mxCell id="UhEpPuMkb6HWoTSxEaaG-243" value="" style="group" vertex="1" connectable="0" parent="UhEpPuMkb6HWoTSxEaaG-340">
          <mxGeometry x="215.17413394919168" y="306.1724137931035" width="48.41418013856813" height="53.793103448275865" as="geometry" />
        </mxCell>
        <mxCell id="UhEpPuMkb6HWoTSxEaaG-244" value="" style="group" vertex="1" connectable="0" parent="UhEpPuMkb6HWoTSxEaaG-243">
          <mxGeometry x="-3.1852170375222686e-15" width="48.41418013856813" height="53.793103448275865" as="geometry" />
        </mxCell>
        <mxCell id="UhEpPuMkb6HWoTSxEaaG-245" value="" style="verticalLabelPosition=bottom;verticalAlign=top;html=1;shape=mxgraph.basic.6_point_star;rotation=-90;fillColor=#000000;strokeColor=#FFFFFF;strokeWidth=1.5;horizontal=1;" vertex="1" parent="UhEpPuMkb6HWoTSxEaaG-244">
          <mxGeometry x="-2.6896766743648928" y="2.689655172413793" width="53.79353348729792" height="48.41379310344828" as="geometry" />
        </mxCell>
        <mxCell id="UhEpPuMkb6HWoTSxEaaG-246" value="&lt;span style=&quot;font-size: 24px;&quot;&gt;3&lt;/span&gt;" style="text;strokeColor=none;fillColor=none;align=center;verticalAlign=middle;spacingLeft=4;spacingRight=4;overflow=hidden;points=[[0,0.5],[1,0.5]];portConstraint=eastwest;rotatable=0;whiteSpace=wrap;html=1;fontColor=#FFFFFF;" vertex="1" parent="UhEpPuMkb6HWoTSxEaaG-244">
          <mxGeometry x="9.413868360277139" y="13.448275862068966" width="29.586443418013857" height="26.896551724137932" as="geometry" />
        </mxCell>
        <mxCell id="UhEpPuMkb6HWoTSxEaaG-247" value="" style="endArrow=none;dashed=1;html=1;strokeWidth=3;rounded=0;fontColor=#FFFFFF;strokeColor=#FFFFFF;dashPattern=1 1;" edge="1" parent="UhEpPuMkb6HWoTSxEaaG-340">
          <mxGeometry width="50" height="50" relative="1" as="geometry">
            <mxPoint x="277.93325635103923" y="376.55172413793105" as="sourcePoint" />
            <mxPoint x="277.93325635103923" y="268.96551724137936" as="targetPoint" />
          </mxGeometry>
        </mxCell>
        <mxCell id="UhEpPuMkb6HWoTSxEaaG-248" value="" style="group" vertex="1" connectable="0" parent="UhEpPuMkb6HWoTSxEaaG-340">
          <mxGeometry x="295.8644341801385" y="306.1724137931035" width="48.41418013856813" height="53.793103448275865" as="geometry" />
        </mxCell>
        <mxCell id="UhEpPuMkb6HWoTSxEaaG-249" value="" style="group" vertex="1" connectable="0" parent="UhEpPuMkb6HWoTSxEaaG-248">
          <mxGeometry x="-3.1852170375222686e-15" width="48.41418013856813" height="53.793103448275865" as="geometry" />
        </mxCell>
        <mxCell id="UhEpPuMkb6HWoTSxEaaG-250" value="" style="verticalLabelPosition=bottom;verticalAlign=top;html=1;shape=mxgraph.basic.6_point_star;rotation=-90;fillColor=#000000;strokeColor=#FFFFFF;strokeWidth=1.5;horizontal=1;" vertex="1" parent="UhEpPuMkb6HWoTSxEaaG-249">
          <mxGeometry x="-2.6896766743648928" y="2.689655172413793" width="53.79353348729792" height="48.41379310344828" as="geometry" />
        </mxCell>
        <mxCell id="UhEpPuMkb6HWoTSxEaaG-251" value="&lt;span style=&quot;font-size: 24px;&quot;&gt;2&lt;/span&gt;" style="text;strokeColor=none;fillColor=none;align=center;verticalAlign=middle;spacingLeft=4;spacingRight=4;overflow=hidden;points=[[0,0.5],[1,0.5]];portConstraint=eastwest;rotatable=0;whiteSpace=wrap;html=1;fontColor=#FFFFFF;" vertex="1" parent="UhEpPuMkb6HWoTSxEaaG-249">
          <mxGeometry x="9.413868360277139" y="13.448275862068966" width="29.586443418013857" height="26.896551724137932" as="geometry" />
        </mxCell>
        <mxCell id="UhEpPuMkb6HWoTSxEaaG-252" value="" style="group" vertex="1" connectable="0" parent="UhEpPuMkb6HWoTSxEaaG-340">
          <mxGeometry x="362.209792147806" y="306.1724137931035" width="48.41418013856813" height="53.793103448275865" as="geometry" />
        </mxCell>
        <mxCell id="UhEpPuMkb6HWoTSxEaaG-253" value="" style="group" vertex="1" connectable="0" parent="UhEpPuMkb6HWoTSxEaaG-252">
          <mxGeometry x="-3.1852170375222686e-15" width="48.41418013856813" height="53.793103448275865" as="geometry" />
        </mxCell>
        <mxCell id="UhEpPuMkb6HWoTSxEaaG-254" value="" style="verticalLabelPosition=bottom;verticalAlign=top;html=1;shape=mxgraph.basic.6_point_star;rotation=-90;fillColor=#000000;strokeColor=#FFFFFF;strokeWidth=1.5;horizontal=1;" vertex="1" parent="UhEpPuMkb6HWoTSxEaaG-253">
          <mxGeometry x="-2.6896766743648928" y="2.689655172413793" width="53.79353348729792" height="48.41379310344828" as="geometry" />
        </mxCell>
        <mxCell id="UhEpPuMkb6HWoTSxEaaG-255" style="edgeStyle=orthogonalEdgeStyle;rounded=0;orthogonalLoop=1;jettySize=auto;html=1;exitX=0;exitY=0.5;exitDx=0;exitDy=0;" edge="1" parent="UhEpPuMkb6HWoTSxEaaG-253" source="UhEpPuMkb6HWoTSxEaaG-256">
          <mxGeometry relative="1" as="geometry">
            <mxPoint x="-4.931073903002309" y="26.986206896551742" as="targetPoint" />
          </mxGeometry>
        </mxCell>
        <mxCell id="UhEpPuMkb6HWoTSxEaaG-256" value="&lt;font style=&quot;font-size: 24px;&quot;&gt;1&lt;/font&gt;" style="text;strokeColor=none;fillColor=none;align=center;verticalAlign=middle;spacingLeft=4;spacingRight=4;overflow=hidden;points=[[0,0.5],[1,0.5]];portConstraint=eastwest;rotatable=0;whiteSpace=wrap;html=1;fontColor=#FFFFFF;" vertex="1" parent="UhEpPuMkb6HWoTSxEaaG-253">
          <mxGeometry x="9.413868360277139" y="13.448275862068966" width="29.586443418013857" height="26.896551724137932" as="geometry" />
        </mxCell>
        <mxCell id="UhEpPuMkb6HWoTSxEaaG-257" value="" style="endArrow=none;dashed=1;html=1;strokeWidth=3;rounded=0;fontColor=#FFFFFF;strokeColor=#FFFFFF;dashPattern=1 1;" edge="1" parent="UhEpPuMkb6HWoTSxEaaG-340">
          <mxGeometry width="50" height="50" relative="1" as="geometry">
            <mxPoint x="430.34826789838337" y="377.89655172413796" as="sourcePoint" />
            <mxPoint x="430.34826789838337" y="268.96551724137936" as="targetPoint" />
          </mxGeometry>
        </mxCell>
        <mxCell id="UhEpPuMkb6HWoTSxEaaG-258" value="" style="group" vertex="1" connectable="0" parent="UhEpPuMkb6HWoTSxEaaG-340">
          <mxGeometry x="448.27944572748265" y="306.1724137931035" width="48.41418013856813" height="53.793103448275865" as="geometry" />
        </mxCell>
        <mxCell id="UhEpPuMkb6HWoTSxEaaG-259" value="" style="group" vertex="1" connectable="0" parent="UhEpPuMkb6HWoTSxEaaG-258">
          <mxGeometry x="-3.1852170375222686e-15" width="48.41418013856813" height="53.793103448275865" as="geometry" />
        </mxCell>
        <mxCell id="UhEpPuMkb6HWoTSxEaaG-260" value="" style="verticalLabelPosition=bottom;verticalAlign=top;html=1;shape=mxgraph.basic.6_point_star;rotation=-90;fillColor=#000000;strokeColor=#FFFFFF;strokeWidth=1.5;horizontal=1;" vertex="1" parent="UhEpPuMkb6HWoTSxEaaG-259">
          <mxGeometry x="-2.6896766743648928" y="2.689655172413793" width="53.79353348729792" height="48.41379310344828" as="geometry" />
        </mxCell>
        <mxCell id="UhEpPuMkb6HWoTSxEaaG-261" value="&lt;span style=&quot;font-size: 24px;&quot;&gt;2&lt;/span&gt;" style="text;strokeColor=none;fillColor=none;align=center;verticalAlign=middle;spacingLeft=4;spacingRight=4;overflow=hidden;points=[[0,0.5],[1,0.5]];portConstraint=eastwest;rotatable=0;whiteSpace=wrap;html=1;fontColor=#FFFFFF;" vertex="1" parent="UhEpPuMkb6HWoTSxEaaG-259">
          <mxGeometry x="9.413868360277139" y="13.448275862068966" width="29.586443418013857" height="26.896551724137932" as="geometry" />
        </mxCell>
        <mxCell id="UhEpPuMkb6HWoTSxEaaG-262" value="" style="group" vertex="1" connectable="0" parent="UhEpPuMkb6HWoTSxEaaG-340">
          <mxGeometry x="514.62480369515" y="306.1724137931035" width="48.41418013856813" height="53.793103448275865" as="geometry" />
        </mxCell>
        <mxCell id="UhEpPuMkb6HWoTSxEaaG-263" value="" style="group" vertex="1" connectable="0" parent="UhEpPuMkb6HWoTSxEaaG-262">
          <mxGeometry x="-3.1852170375222686e-15" width="48.41418013856813" height="53.793103448275865" as="geometry" />
        </mxCell>
        <mxCell id="UhEpPuMkb6HWoTSxEaaG-264" value="" style="verticalLabelPosition=bottom;verticalAlign=top;html=1;shape=mxgraph.basic.6_point_star;rotation=-90;fillColor=#000000;strokeColor=#FFFFFF;strokeWidth=1.5;horizontal=1;" vertex="1" parent="UhEpPuMkb6HWoTSxEaaG-263">
          <mxGeometry x="-2.6896766743648928" y="2.689655172413793" width="53.79353348729792" height="48.41379310344828" as="geometry" />
        </mxCell>
        <mxCell id="UhEpPuMkb6HWoTSxEaaG-265" style="edgeStyle=orthogonalEdgeStyle;rounded=0;orthogonalLoop=1;jettySize=auto;html=1;exitX=0;exitY=0.5;exitDx=0;exitDy=0;" edge="1" parent="UhEpPuMkb6HWoTSxEaaG-263" source="UhEpPuMkb6HWoTSxEaaG-266">
          <mxGeometry relative="1" as="geometry">
            <mxPoint x="-4.931073903002309" y="26.986206896551742" as="targetPoint" />
          </mxGeometry>
        </mxCell>
        <mxCell id="UhEpPuMkb6HWoTSxEaaG-266" value="&lt;span style=&quot;font-size: 24px;&quot;&gt;8&lt;/span&gt;" style="text;strokeColor=none;fillColor=none;align=center;verticalAlign=middle;spacingLeft=4;spacingRight=4;overflow=hidden;points=[[0,0.5],[1,0.5]];portConstraint=eastwest;rotatable=0;whiteSpace=wrap;html=1;fontColor=#FFFFFF;" vertex="1" parent="UhEpPuMkb6HWoTSxEaaG-263">
          <mxGeometry x="9.413868360277139" y="13.448275862068966" width="29.586443418013857" height="26.896551724137932" as="geometry" />
        </mxCell>
        <mxCell id="UhEpPuMkb6HWoTSxEaaG-267" value="" style="endArrow=none;dashed=1;html=1;strokeWidth=3;rounded=0;fontColor=#FFFFFF;strokeColor=#FFFFFF;dashPattern=1 1;" edge="1" parent="UhEpPuMkb6HWoTSxEaaG-340">
          <mxGeometry width="50" height="50" relative="1" as="geometry">
            <mxPoint x="582.7632794457273" y="377.89655172413796" as="sourcePoint" />
            <mxPoint x="582.7632794457273" y="268.96551724137936" as="targetPoint" />
          </mxGeometry>
        </mxCell>
        <mxCell id="UhEpPuMkb6HWoTSxEaaG-268" value="" style="group" vertex="1" connectable="0" parent="UhEpPuMkb6HWoTSxEaaG-340">
          <mxGeometry x="600.6944572748267" y="306.1724137931035" width="48.41418013856813" height="53.793103448275865" as="geometry" />
        </mxCell>
        <mxCell id="UhEpPuMkb6HWoTSxEaaG-269" value="" style="group" vertex="1" connectable="0" parent="UhEpPuMkb6HWoTSxEaaG-268">
          <mxGeometry x="-3.1852170375222686e-15" width="48.41418013856813" height="53.793103448275865" as="geometry" />
        </mxCell>
        <mxCell id="UhEpPuMkb6HWoTSxEaaG-270" value="" style="verticalLabelPosition=bottom;verticalAlign=top;html=1;shape=mxgraph.basic.6_point_star;rotation=-90;fillColor=#000000;strokeColor=#FFFFFF;strokeWidth=1.5;horizontal=1;" vertex="1" parent="UhEpPuMkb6HWoTSxEaaG-269">
          <mxGeometry x="-2.6896766743648928" y="2.689655172413793" width="53.79353348729792" height="48.41379310344828" as="geometry" />
        </mxCell>
        <mxCell id="UhEpPuMkb6HWoTSxEaaG-271" value="&lt;span style=&quot;font-size: 24px;&quot;&gt;6&lt;/span&gt;" style="text;strokeColor=none;fillColor=none;align=center;verticalAlign=middle;spacingLeft=4;spacingRight=4;overflow=hidden;points=[[0,0.5],[1,0.5]];portConstraint=eastwest;rotatable=0;whiteSpace=wrap;html=1;fontColor=#FFFFFF;" vertex="1" parent="UhEpPuMkb6HWoTSxEaaG-269">
          <mxGeometry x="9.413868360277139" y="13.448275862068966" width="29.586443418013857" height="26.896551724137932" as="geometry" />
        </mxCell>
        <mxCell id="UhEpPuMkb6HWoTSxEaaG-272" value="" style="group" vertex="1" connectable="0" parent="UhEpPuMkb6HWoTSxEaaG-340">
          <mxGeometry x="667.0398152424942" y="306.1724137931035" width="48.41418013856813" height="53.793103448275865" as="geometry" />
        </mxCell>
        <mxCell id="UhEpPuMkb6HWoTSxEaaG-273" value="" style="group" vertex="1" connectable="0" parent="UhEpPuMkb6HWoTSxEaaG-272">
          <mxGeometry x="-3.1852170375222686e-15" width="48.41418013856813" height="53.793103448275865" as="geometry" />
        </mxCell>
        <mxCell id="UhEpPuMkb6HWoTSxEaaG-274" value="" style="verticalLabelPosition=bottom;verticalAlign=top;html=1;shape=mxgraph.basic.6_point_star;rotation=-90;fillColor=#000000;strokeColor=#FFFFFF;strokeWidth=1.5;horizontal=1;" vertex="1" parent="UhEpPuMkb6HWoTSxEaaG-273">
          <mxGeometry x="-2.6896766743648928" y="2.689655172413793" width="53.79353348729792" height="48.41379310344828" as="geometry" />
        </mxCell>
        <mxCell id="UhEpPuMkb6HWoTSxEaaG-275" style="edgeStyle=orthogonalEdgeStyle;rounded=0;orthogonalLoop=1;jettySize=auto;html=1;exitX=0;exitY=0.5;exitDx=0;exitDy=0;" edge="1" parent="UhEpPuMkb6HWoTSxEaaG-273" source="UhEpPuMkb6HWoTSxEaaG-276">
          <mxGeometry relative="1" as="geometry">
            <mxPoint x="-4.931073903002309" y="26.986206896551742" as="targetPoint" />
          </mxGeometry>
        </mxCell>
        <mxCell id="UhEpPuMkb6HWoTSxEaaG-276" value="&lt;span style=&quot;font-size: 24px;&quot;&gt;8&lt;/span&gt;" style="text;strokeColor=none;fillColor=none;align=center;verticalAlign=middle;spacingLeft=4;spacingRight=4;overflow=hidden;points=[[0,0.5],[1,0.5]];portConstraint=eastwest;rotatable=0;whiteSpace=wrap;html=1;fontColor=#FFFFFF;" vertex="1" parent="UhEpPuMkb6HWoTSxEaaG-273">
          <mxGeometry x="9.413868360277139" y="13.448275862068966" width="29.586443418013857" height="26.896551724137932" as="geometry" />
        </mxCell>
        <mxCell id="UhEpPuMkb6HWoTSxEaaG-277" value="" style="endArrow=none;dashed=1;html=1;strokeWidth=3;rounded=0;fontColor=#FFFFFF;strokeColor=#FFFFFF;dashPattern=1 1;" edge="1" parent="UhEpPuMkb6HWoTSxEaaG-340">
          <mxGeometry width="50" height="50" relative="1" as="geometry">
            <mxPoint x="735.1782909930715" y="377.89655172413796" as="sourcePoint" />
            <mxPoint x="735.1782909930715" y="268.96551724137936" as="targetPoint" />
          </mxGeometry>
        </mxCell>
        <mxCell id="UhEpPuMkb6HWoTSxEaaG-278" value="" style="group" vertex="1" connectable="0" parent="UhEpPuMkb6HWoTSxEaaG-340">
          <mxGeometry y="448.2758620689655" width="48.41418013856813" height="53.793103448275865" as="geometry" />
        </mxCell>
        <mxCell id="UhEpPuMkb6HWoTSxEaaG-279" value="" style="group" vertex="1" connectable="0" parent="UhEpPuMkb6HWoTSxEaaG-278">
          <mxGeometry x="-3.1852170375222686e-15" width="48.41418013856813" height="53.793103448275865" as="geometry" />
        </mxCell>
        <mxCell id="UhEpPuMkb6HWoTSxEaaG-280" value="" style="verticalLabelPosition=bottom;verticalAlign=top;html=1;shape=mxgraph.basic.6_point_star;rotation=-90;fillColor=#000000;strokeColor=#FFFFFF;strokeWidth=1.5;horizontal=1;" vertex="1" parent="UhEpPuMkb6HWoTSxEaaG-279">
          <mxGeometry x="-2.6896766743648928" y="2.689655172413793" width="53.79353348729792" height="48.41379310344828" as="geometry" />
        </mxCell>
        <mxCell id="UhEpPuMkb6HWoTSxEaaG-281" style="edgeStyle=orthogonalEdgeStyle;rounded=0;orthogonalLoop=1;jettySize=auto;html=1;exitX=0;exitY=0.5;exitDx=0;exitDy=0;" edge="1" parent="UhEpPuMkb6HWoTSxEaaG-279" source="UhEpPuMkb6HWoTSxEaaG-282">
          <mxGeometry relative="1" as="geometry">
            <mxPoint x="-4.931073903002309" y="26.986206896551742" as="targetPoint" />
          </mxGeometry>
        </mxCell>
        <mxCell id="UhEpPuMkb6HWoTSxEaaG-282" value="&lt;font style=&quot;font-size: 24px;&quot;&gt;1&lt;/font&gt;" style="text;strokeColor=none;fillColor=none;align=center;verticalAlign=middle;spacingLeft=4;spacingRight=4;overflow=hidden;points=[[0,0.5],[1,0.5]];portConstraint=eastwest;rotatable=0;whiteSpace=wrap;html=1;fontColor=#FFFFFF;" vertex="1" parent="UhEpPuMkb6HWoTSxEaaG-279">
          <mxGeometry x="9.413868360277139" y="13.448275862068966" width="29.586443418013857" height="26.896551724137932" as="geometry" />
        </mxCell>
        <mxCell id="UhEpPuMkb6HWoTSxEaaG-283" value="" style="group" vertex="1" connectable="0" parent="UhEpPuMkb6HWoTSxEaaG-340">
          <mxGeometry x="71.72471131639722" y="448.2758620689655" width="48.41418013856813" height="53.793103448275865" as="geometry" />
        </mxCell>
        <mxCell id="UhEpPuMkb6HWoTSxEaaG-284" value="" style="group" vertex="1" connectable="0" parent="UhEpPuMkb6HWoTSxEaaG-283">
          <mxGeometry x="-3.1852170375222686e-15" width="48.41418013856813" height="53.793103448275865" as="geometry" />
        </mxCell>
        <mxCell id="UhEpPuMkb6HWoTSxEaaG-285" value="" style="verticalLabelPosition=bottom;verticalAlign=top;html=1;shape=mxgraph.basic.6_point_star;rotation=-90;fillColor=#000000;strokeColor=#FFFFFF;strokeWidth=1.5;horizontal=1;" vertex="1" parent="UhEpPuMkb6HWoTSxEaaG-284">
          <mxGeometry x="-2.6896766743648928" y="2.689655172413793" width="53.79353348729792" height="48.41379310344828" as="geometry" />
        </mxCell>
        <mxCell id="UhEpPuMkb6HWoTSxEaaG-286" value="&lt;span style=&quot;font-size: 24px;&quot;&gt;2&lt;/span&gt;" style="text;strokeColor=none;fillColor=none;align=center;verticalAlign=middle;spacingLeft=4;spacingRight=4;overflow=hidden;points=[[0,0.5],[1,0.5]];portConstraint=eastwest;rotatable=0;whiteSpace=wrap;html=1;fontColor=#FFFFFF;" vertex="1" parent="UhEpPuMkb6HWoTSxEaaG-284">
          <mxGeometry x="9.413868360277139" y="13.448275862068966" width="29.586443418013857" height="26.896551724137932" as="geometry" />
        </mxCell>
        <mxCell id="UhEpPuMkb6HWoTSxEaaG-287" value="" style="group" vertex="1" connectable="0" parent="UhEpPuMkb6HWoTSxEaaG-340">
          <mxGeometry x="143.44942263279444" y="448.2758620689655" width="48.41418013856813" height="53.793103448275865" as="geometry" />
        </mxCell>
        <mxCell id="UhEpPuMkb6HWoTSxEaaG-288" value="" style="group" vertex="1" connectable="0" parent="UhEpPuMkb6HWoTSxEaaG-287">
          <mxGeometry x="-3.1852170375222686e-15" width="48.41418013856813" height="53.793103448275865" as="geometry" />
        </mxCell>
        <mxCell id="UhEpPuMkb6HWoTSxEaaG-289" value="" style="verticalLabelPosition=bottom;verticalAlign=top;html=1;shape=mxgraph.basic.6_point_star;rotation=-90;fillColor=#000000;strokeColor=#FFFFFF;strokeWidth=1.5;horizontal=1;" vertex="1" parent="UhEpPuMkb6HWoTSxEaaG-288">
          <mxGeometry x="-2.6896766743648928" y="2.689655172413793" width="53.79353348729792" height="48.41379310344828" as="geometry" />
        </mxCell>
        <mxCell id="UhEpPuMkb6HWoTSxEaaG-290" value="&lt;span style=&quot;font-size: 24px;&quot;&gt;4&lt;/span&gt;" style="text;strokeColor=none;fillColor=none;align=center;verticalAlign=middle;spacingLeft=4;spacingRight=4;overflow=hidden;points=[[0,0.5],[1,0.5]];portConstraint=eastwest;rotatable=0;whiteSpace=wrap;html=1;fontColor=#FFFFFF;" vertex="1" parent="UhEpPuMkb6HWoTSxEaaG-288">
          <mxGeometry x="9.413868360277139" y="13.448275862068966" width="29.586443418013857" height="26.896551724137932" as="geometry" />
        </mxCell>
        <mxCell id="UhEpPuMkb6HWoTSxEaaG-291" value="" style="endArrow=none;dashed=1;html=1;strokeWidth=3;rounded=0;fontColor=#FFFFFF;strokeColor=#FFFFFF;dashPattern=1 1;" edge="1" parent="UhEpPuMkb6HWoTSxEaaG-340">
          <mxGeometry width="50" height="50" relative="1" as="geometry">
            <mxPoint x="206.20854503464201" y="520" as="sourcePoint" />
            <mxPoint x="206.20854503464201" y="412.41379310344826" as="targetPoint" />
          </mxGeometry>
        </mxCell>
        <mxCell id="UhEpPuMkb6HWoTSxEaaG-292" value="" style="group" vertex="1" connectable="0" parent="UhEpPuMkb6HWoTSxEaaG-340">
          <mxGeometry x="222.34660508083138" y="448.2758620689655" width="48.41418013856813" height="53.793103448275865" as="geometry" />
        </mxCell>
        <mxCell id="UhEpPuMkb6HWoTSxEaaG-293" value="" style="group" vertex="1" connectable="0" parent="UhEpPuMkb6HWoTSxEaaG-292">
          <mxGeometry x="-3.1852170375222686e-15" width="48.41418013856813" height="53.793103448275865" as="geometry" />
        </mxCell>
        <mxCell id="UhEpPuMkb6HWoTSxEaaG-294" value="" style="verticalLabelPosition=bottom;verticalAlign=top;html=1;shape=mxgraph.basic.6_point_star;rotation=-90;fillColor=#000000;strokeColor=#FFFFFF;strokeWidth=1.5;horizontal=1;" vertex="1" parent="UhEpPuMkb6HWoTSxEaaG-293">
          <mxGeometry x="-2.6896766743648928" y="2.689655172413793" width="53.79353348729792" height="48.41379310344828" as="geometry" />
        </mxCell>
        <mxCell id="UhEpPuMkb6HWoTSxEaaG-295" value="&lt;span style=&quot;font-size: 24px;&quot;&gt;3&lt;/span&gt;" style="text;strokeColor=none;fillColor=none;align=center;verticalAlign=middle;spacingLeft=4;spacingRight=4;overflow=hidden;points=[[0,0.5],[1,0.5]];portConstraint=eastwest;rotatable=0;whiteSpace=wrap;html=1;fontColor=#FFFFFF;" vertex="1" parent="UhEpPuMkb6HWoTSxEaaG-293">
          <mxGeometry x="9.413868360277139" y="13.448275862068966" width="29.586443418013857" height="26.896551724137932" as="geometry" />
        </mxCell>
        <mxCell id="UhEpPuMkb6HWoTSxEaaG-296" value="" style="group" vertex="1" connectable="0" parent="UhEpPuMkb6HWoTSxEaaG-340">
          <mxGeometry x="295.8644341801385" y="448.2758620689655" width="48.41418013856813" height="53.793103448275865" as="geometry" />
        </mxCell>
        <mxCell id="UhEpPuMkb6HWoTSxEaaG-297" value="" style="group" vertex="1" connectable="0" parent="UhEpPuMkb6HWoTSxEaaG-296">
          <mxGeometry x="-7.172471131639726" width="48.41418013856813" height="53.793103448275865" as="geometry" />
        </mxCell>
        <mxCell id="UhEpPuMkb6HWoTSxEaaG-298" value="" style="verticalLabelPosition=bottom;verticalAlign=top;html=1;shape=mxgraph.basic.6_point_star;rotation=-90;fillColor=#000000;strokeColor=#FFFFFF;strokeWidth=1.5;horizontal=1;" vertex="1" parent="UhEpPuMkb6HWoTSxEaaG-297">
          <mxGeometry x="-2.6896766743648928" y="2.689655172413793" width="53.79353348729792" height="48.41379310344828" as="geometry" />
        </mxCell>
        <mxCell id="UhEpPuMkb6HWoTSxEaaG-299" value="&lt;span style=&quot;font-size: 24px;&quot;&gt;2&lt;/span&gt;" style="text;strokeColor=none;fillColor=none;align=center;verticalAlign=middle;spacingLeft=4;spacingRight=4;overflow=hidden;points=[[0,0.5],[1,0.5]];portConstraint=eastwest;rotatable=0;whiteSpace=wrap;html=1;fontColor=#FFFFFF;" vertex="1" parent="UhEpPuMkb6HWoTSxEaaG-297">
          <mxGeometry x="9.413868360277139" y="13.448275862068966" width="29.586443418013857" height="26.896551724137932" as="geometry" />
        </mxCell>
        <mxCell id="UhEpPuMkb6HWoTSxEaaG-300" value="" style="group" vertex="1" connectable="0" parent="UhEpPuMkb6HWoTSxEaaG-340">
          <mxGeometry x="362.209792147806" y="448.2758620689655" width="48.41418013856813" height="53.793103448275865" as="geometry" />
        </mxCell>
        <mxCell id="UhEpPuMkb6HWoTSxEaaG-301" value="" style="group" vertex="1" connectable="0" parent="UhEpPuMkb6HWoTSxEaaG-300">
          <mxGeometry x="-3.1852170375222686e-15" width="48.41418013856813" height="53.793103448275865" as="geometry" />
        </mxCell>
        <mxCell id="UhEpPuMkb6HWoTSxEaaG-302" value="" style="verticalLabelPosition=bottom;verticalAlign=top;html=1;shape=mxgraph.basic.6_point_star;rotation=-90;fillColor=#000000;strokeColor=#FFFFFF;strokeWidth=1.5;horizontal=1;" vertex="1" parent="UhEpPuMkb6HWoTSxEaaG-301">
          <mxGeometry x="-2.6896766743648928" y="2.689655172413793" width="53.79353348729792" height="48.41379310344828" as="geometry" />
        </mxCell>
        <mxCell id="UhEpPuMkb6HWoTSxEaaG-303" style="edgeStyle=orthogonalEdgeStyle;rounded=0;orthogonalLoop=1;jettySize=auto;html=1;exitX=0;exitY=0.5;exitDx=0;exitDy=0;" edge="1" parent="UhEpPuMkb6HWoTSxEaaG-301" source="UhEpPuMkb6HWoTSxEaaG-304">
          <mxGeometry relative="1" as="geometry">
            <mxPoint x="-4.931073903002309" y="26.986206896551742" as="targetPoint" />
          </mxGeometry>
        </mxCell>
        <mxCell id="UhEpPuMkb6HWoTSxEaaG-304" value="&lt;font style=&quot;font-size: 24px;&quot;&gt;1&lt;/font&gt;" style="text;strokeColor=none;fillColor=none;align=center;verticalAlign=middle;spacingLeft=4;spacingRight=4;overflow=hidden;points=[[0,0.5],[1,0.5]];portConstraint=eastwest;rotatable=0;whiteSpace=wrap;html=1;fontColor=#FFFFFF;" vertex="1" parent="UhEpPuMkb6HWoTSxEaaG-301">
          <mxGeometry x="9.413868360277139" y="13.448275862068966" width="29.586443418013857" height="26.896551724137932" as="geometry" />
        </mxCell>
        <mxCell id="UhEpPuMkb6HWoTSxEaaG-305" value="" style="endArrow=none;dashed=1;html=1;strokeWidth=3;rounded=0;fontColor=#FFFFFF;strokeColor=#FFFFFF;dashPattern=1 1;" edge="1" parent="UhEpPuMkb6HWoTSxEaaG-340">
          <mxGeometry width="50" height="50" relative="1" as="geometry">
            <mxPoint x="430.34826789838337" y="520" as="sourcePoint" />
            <mxPoint x="430.34826789838337" y="412.41379310344826" as="targetPoint" />
          </mxGeometry>
        </mxCell>
        <mxCell id="UhEpPuMkb6HWoTSxEaaG-306" value="" style="group" vertex="1" connectable="0" parent="UhEpPuMkb6HWoTSxEaaG-340">
          <mxGeometry x="448.27944572748265" y="448.2758620689655" width="48.41418013856813" height="53.793103448275865" as="geometry" />
        </mxCell>
        <mxCell id="UhEpPuMkb6HWoTSxEaaG-307" value="" style="group" vertex="1" connectable="0" parent="UhEpPuMkb6HWoTSxEaaG-306">
          <mxGeometry x="-3.1852170375222686e-15" width="48.41418013856813" height="53.793103448275865" as="geometry" />
        </mxCell>
        <mxCell id="UhEpPuMkb6HWoTSxEaaG-308" value="" style="verticalLabelPosition=bottom;verticalAlign=top;html=1;shape=mxgraph.basic.6_point_star;rotation=-90;fillColor=#000000;strokeColor=#FFFFFF;strokeWidth=1.5;horizontal=1;" vertex="1" parent="UhEpPuMkb6HWoTSxEaaG-307">
          <mxGeometry x="-2.6896766743648928" y="2.689655172413793" width="53.79353348729792" height="48.41379310344828" as="geometry" />
        </mxCell>
        <mxCell id="UhEpPuMkb6HWoTSxEaaG-309" value="&lt;span style=&quot;font-size: 24px;&quot;&gt;2&lt;/span&gt;" style="text;strokeColor=none;fillColor=none;align=center;verticalAlign=middle;spacingLeft=4;spacingRight=4;overflow=hidden;points=[[0,0.5],[1,0.5]];portConstraint=eastwest;rotatable=0;whiteSpace=wrap;html=1;fontColor=#FFFFFF;" vertex="1" parent="UhEpPuMkb6HWoTSxEaaG-307">
          <mxGeometry x="9.413868360277139" y="13.448275862068966" width="29.586443418013857" height="26.896551724137932" as="geometry" />
        </mxCell>
        <mxCell id="UhEpPuMkb6HWoTSxEaaG-310" value="" style="group" vertex="1" connectable="0" parent="UhEpPuMkb6HWoTSxEaaG-340">
          <mxGeometry x="514.62480369515" y="448.2758620689655" width="48.41418013856813" height="53.793103448275865" as="geometry" />
        </mxCell>
        <mxCell id="UhEpPuMkb6HWoTSxEaaG-311" value="" style="group" vertex="1" connectable="0" parent="UhEpPuMkb6HWoTSxEaaG-310">
          <mxGeometry x="-3.1852170375222686e-15" width="48.41418013856813" height="53.793103448275865" as="geometry" />
        </mxCell>
        <mxCell id="UhEpPuMkb6HWoTSxEaaG-312" value="" style="verticalLabelPosition=bottom;verticalAlign=top;html=1;shape=mxgraph.basic.6_point_star;rotation=-90;fillColor=#000000;strokeColor=#FFFFFF;strokeWidth=1.5;horizontal=1;" vertex="1" parent="UhEpPuMkb6HWoTSxEaaG-311">
          <mxGeometry x="-2.6896766743648928" y="2.689655172413793" width="53.79353348729792" height="48.41379310344828" as="geometry" />
        </mxCell>
        <mxCell id="UhEpPuMkb6HWoTSxEaaG-313" style="edgeStyle=orthogonalEdgeStyle;rounded=0;orthogonalLoop=1;jettySize=auto;html=1;exitX=0;exitY=0.5;exitDx=0;exitDy=0;" edge="1" parent="UhEpPuMkb6HWoTSxEaaG-311" source="UhEpPuMkb6HWoTSxEaaG-314">
          <mxGeometry relative="1" as="geometry">
            <mxPoint x="-4.931073903002309" y="26.986206896551742" as="targetPoint" />
          </mxGeometry>
        </mxCell>
        <mxCell id="UhEpPuMkb6HWoTSxEaaG-314" value="&lt;span style=&quot;font-size: 24px;&quot;&gt;8&lt;/span&gt;" style="text;strokeColor=none;fillColor=none;align=center;verticalAlign=middle;spacingLeft=4;spacingRight=4;overflow=hidden;points=[[0,0.5],[1,0.5]];portConstraint=eastwest;rotatable=0;whiteSpace=wrap;html=1;fontColor=#FFFFFF;" vertex="1" parent="UhEpPuMkb6HWoTSxEaaG-311">
          <mxGeometry x="9.413868360277139" y="13.448275862068966" width="29.586443418013857" height="26.896551724137932" as="geometry" />
        </mxCell>
        <mxCell id="UhEpPuMkb6HWoTSxEaaG-315" value="" style="endArrow=none;dashed=1;html=1;strokeWidth=3;rounded=0;fontColor=#FFFFFF;strokeColor=#FFFFFF;dashPattern=1 1;" edge="1" parent="UhEpPuMkb6HWoTSxEaaG-340">
          <mxGeometry width="50" height="50" relative="1" as="geometry">
            <mxPoint x="582.7632794457273" y="520" as="sourcePoint" />
            <mxPoint x="582.7632794457273" y="412.41379310344826" as="targetPoint" />
          </mxGeometry>
        </mxCell>
        <mxCell id="UhEpPuMkb6HWoTSxEaaG-316" value="" style="group" vertex="1" connectable="0" parent="UhEpPuMkb6HWoTSxEaaG-340">
          <mxGeometry x="600.6944572748267" y="448.2758620689655" width="48.41418013856813" height="53.793103448275865" as="geometry" />
        </mxCell>
        <mxCell id="UhEpPuMkb6HWoTSxEaaG-317" value="" style="group" vertex="1" connectable="0" parent="UhEpPuMkb6HWoTSxEaaG-316">
          <mxGeometry x="-3.1852170375222686e-15" width="48.41418013856813" height="53.793103448275865" as="geometry" />
        </mxCell>
        <mxCell id="UhEpPuMkb6HWoTSxEaaG-318" value="" style="verticalLabelPosition=bottom;verticalAlign=top;html=1;shape=mxgraph.basic.6_point_star;rotation=-90;fillColor=#000000;strokeColor=#FFFFFF;strokeWidth=1.5;horizontal=1;" vertex="1" parent="UhEpPuMkb6HWoTSxEaaG-317">
          <mxGeometry x="-2.6896766743648928" y="2.689655172413793" width="53.79353348729792" height="48.41379310344828" as="geometry" />
        </mxCell>
        <mxCell id="UhEpPuMkb6HWoTSxEaaG-319" value="&lt;span style=&quot;font-size: 24px;&quot;&gt;6&lt;/span&gt;" style="text;strokeColor=none;fillColor=none;align=center;verticalAlign=middle;spacingLeft=4;spacingRight=4;overflow=hidden;points=[[0,0.5],[1,0.5]];portConstraint=eastwest;rotatable=0;whiteSpace=wrap;html=1;fontColor=#FFFFFF;" vertex="1" parent="UhEpPuMkb6HWoTSxEaaG-317">
          <mxGeometry x="9.413868360277139" y="13.448275862068966" width="29.586443418013857" height="26.896551724137932" as="geometry" />
        </mxCell>
        <mxCell id="UhEpPuMkb6HWoTSxEaaG-320" value="" style="group" vertex="1" connectable="0" parent="UhEpPuMkb6HWoTSxEaaG-340">
          <mxGeometry x="699.315935334873" y="448.2758620689655" width="48.41418013856813" height="53.793103448275865" as="geometry" />
        </mxCell>
        <mxCell id="UhEpPuMkb6HWoTSxEaaG-321" value="" style="group" vertex="1" connectable="0" parent="UhEpPuMkb6HWoTSxEaaG-320">
          <mxGeometry x="-3.1852170375222686e-15" width="48.41418013856813" height="53.793103448275865" as="geometry" />
        </mxCell>
        <mxCell id="UhEpPuMkb6HWoTSxEaaG-322" value="" style="verticalLabelPosition=bottom;verticalAlign=top;html=1;shape=mxgraph.basic.6_point_star;rotation=-90;fillColor=#000000;strokeColor=#FFFFFF;strokeWidth=1.5;horizontal=1;" vertex="1" parent="UhEpPuMkb6HWoTSxEaaG-321">
          <mxGeometry x="-2.6896766743648928" y="2.689655172413793" width="53.79353348729792" height="48.41379310344828" as="geometry" />
        </mxCell>
        <mxCell id="UhEpPuMkb6HWoTSxEaaG-323" style="edgeStyle=orthogonalEdgeStyle;rounded=0;orthogonalLoop=1;jettySize=auto;html=1;exitX=0;exitY=0.5;exitDx=0;exitDy=0;" edge="1" parent="UhEpPuMkb6HWoTSxEaaG-321" source="UhEpPuMkb6HWoTSxEaaG-324">
          <mxGeometry relative="1" as="geometry">
            <mxPoint x="-4.931073903002309" y="26.986206896551742" as="targetPoint" />
          </mxGeometry>
        </mxCell>
        <mxCell id="UhEpPuMkb6HWoTSxEaaG-324" value="&lt;span style=&quot;font-size: 24px;&quot;&gt;8&lt;/span&gt;" style="text;strokeColor=none;fillColor=none;align=center;verticalAlign=middle;spacingLeft=4;spacingRight=4;overflow=hidden;points=[[0,0.5],[1,0.5]];portConstraint=eastwest;rotatable=0;whiteSpace=wrap;html=1;fontColor=#FFFFFF;" vertex="1" parent="UhEpPuMkb6HWoTSxEaaG-321">
          <mxGeometry x="9.413868360277139" y="13.448275862068966" width="29.586443418013857" height="26.896551724137932" as="geometry" />
        </mxCell>
        <mxCell id="UhEpPuMkb6HWoTSxEaaG-325" value="" style="endArrow=none;dashed=1;html=1;strokeWidth=3;rounded=0;fontColor=#FFFFFF;strokeColor=#FFFFFF;dashPattern=1 1;" edge="1" parent="UhEpPuMkb6HWoTSxEaaG-340">
          <mxGeometry width="50" height="50" relative="1" as="geometry">
            <mxPoint x="767.4544110854503" y="520" as="sourcePoint" />
            <mxPoint x="767.4544110854503" y="412.41379310344826" as="targetPoint" />
          </mxGeometry>
        </mxCell>
        <mxCell id="UhEpPuMkb6HWoTSxEaaG-326" value="" style="endArrow=none;dashed=1;html=1;strokeWidth=3;rounded=0;fontColor=#FFFFFF;strokeColor=#FFFFFF;dashPattern=1 1;" edge="1" parent="UhEpPuMkb6HWoTSxEaaG-340">
          <mxGeometry width="50" height="50" relative="1" as="geometry">
            <mxPoint x="672.419168591224" y="520" as="sourcePoint" />
            <mxPoint x="672.419168591224" y="412.41379310344826" as="targetPoint" />
          </mxGeometry>
        </mxCell>
        <mxCell id="UhEpPuMkb6HWoTSxEaaG-327" value="&lt;span style=&quot;font-size: 24px;&quot;&gt;A=&lt;/span&gt;" style="text;strokeColor=none;fillColor=none;align=center;verticalAlign=middle;spacingLeft=4;spacingRight=4;overflow=hidden;points=[[0,0.5],[1,0.5]];portConstraint=eastwest;rotatable=0;whiteSpace=wrap;html=1;fontColor=#FFFFFF;" vertex="1" parent="UhEpPuMkb6HWoTSxEaaG-340">
          <mxGeometry y="268.96551724137936" width="35.86235565819861" height="26.896551724137932" as="geometry" />
        </mxCell>
        <mxCell id="UhEpPuMkb6HWoTSxEaaG-328" value="&lt;span style=&quot;font-size: 24px;&quot;&gt;A=&lt;/span&gt;" style="text;strokeColor=none;fillColor=none;align=center;verticalAlign=middle;spacingLeft=4;spacingRight=4;overflow=hidden;points=[[0,0.5],[1,0.5]];portConstraint=eastwest;rotatable=0;whiteSpace=wrap;html=1;fontColor=#FFFFFF;" vertex="1" parent="UhEpPuMkb6HWoTSxEaaG-340">
          <mxGeometry y="412.41379310344826" width="35.86235565819861" height="26.896551724137932" as="geometry" />
        </mxCell>
        <mxCell id="UhEpPuMkb6HWoTSxEaaG-329" value="&lt;span style=&quot;font-size: 24px;&quot;&gt;4&lt;/span&gt;" style="text;strokeColor=none;fillColor=none;align=center;verticalAlign=middle;spacingLeft=4;spacingRight=4;overflow=hidden;points=[[0,0.5],[1,0.5]];portConstraint=eastwest;rotatable=0;whiteSpace=wrap;html=1;fontColor=#FFFFFF;" vertex="1" parent="UhEpPuMkb6HWoTSxEaaG-340">
          <mxGeometry x="107.58706697459584" y="268.96551724137936" width="35.86235565819861" height="26.896551724137932" as="geometry" />
        </mxCell>
        <mxCell id="UhEpPuMkb6HWoTSxEaaG-330" value="&lt;span style=&quot;font-size: 24px;&quot;&gt;2&lt;/span&gt;" style="text;strokeColor=none;fillColor=none;align=center;verticalAlign=middle;spacingLeft=4;spacingRight=4;overflow=hidden;points=[[0,0.5],[1,0.5]];portConstraint=eastwest;rotatable=0;whiteSpace=wrap;html=1;fontColor=#FFFFFF;" vertex="1" parent="UhEpPuMkb6HWoTSxEaaG-340">
          <mxGeometry x="335.31302540415703" y="268.96551724137936" width="35.86235565819861" height="26.896551724137932" as="geometry" />
        </mxCell>
        <mxCell id="UhEpPuMkb6HWoTSxEaaG-331" value="&lt;span style=&quot;font-size: 24px;&quot;&gt;2&lt;/span&gt;" style="text;strokeColor=none;fillColor=none;align=center;verticalAlign=middle;spacingLeft=4;spacingRight=4;overflow=hidden;points=[[0,0.5],[1,0.5]];portConstraint=eastwest;rotatable=0;whiteSpace=wrap;html=1;fontColor=#FFFFFF;" vertex="1" parent="UhEpPuMkb6HWoTSxEaaG-340">
          <mxGeometry x="487.7280369515011" y="268.96551724137936" width="35.86235565819861" height="26.896551724137932" as="geometry" />
        </mxCell>
        <mxCell id="UhEpPuMkb6HWoTSxEaaG-332" value="&lt;span style=&quot;font-size: 24px;&quot;&gt;2&lt;/span&gt;" style="text;strokeColor=none;fillColor=none;align=center;verticalAlign=middle;spacingLeft=4;spacingRight=4;overflow=hidden;points=[[0,0.5],[1,0.5]];portConstraint=eastwest;rotatable=0;whiteSpace=wrap;html=1;fontColor=#FFFFFF;" vertex="1" parent="UhEpPuMkb6HWoTSxEaaG-340">
          <mxGeometry x="640.1430484988452" y="268.96551724137936" width="35.86235565819861" height="26.896551724137932" as="geometry" />
        </mxCell>
        <mxCell id="UhEpPuMkb6HWoTSxEaaG-335" value="&lt;span style=&quot;font-size: 24px;&quot;&gt;3&lt;/span&gt;" style="text;strokeColor=none;fillColor=none;align=center;verticalAlign=middle;spacingLeft=4;spacingRight=4;overflow=hidden;points=[[0,0.5],[1,0.5]];portConstraint=eastwest;rotatable=0;whiteSpace=wrap;html=1;fontColor=#FFFFFF;" vertex="1" parent="UhEpPuMkb6HWoTSxEaaG-340">
          <mxGeometry x="107.58706697459584" y="412.41379310344826" width="35.86235565819861" height="26.896551724137932" as="geometry" />
        </mxCell>
        <mxCell id="UhEpPuMkb6HWoTSxEaaG-336" value="&lt;span style=&quot;font-size: 24px;&quot;&gt;3&lt;/span&gt;" style="text;strokeColor=none;fillColor=none;align=center;verticalAlign=middle;spacingLeft=4;spacingRight=4;overflow=hidden;points=[[0,0.5],[1,0.5]];portConstraint=eastwest;rotatable=0;whiteSpace=wrap;html=1;fontColor=#FFFFFF;" vertex="1" parent="UhEpPuMkb6HWoTSxEaaG-340">
          <mxGeometry x="295.8644341801385" y="412.41379310344826" width="35.86235565819861" height="26.896551724137932" as="geometry" />
        </mxCell>
        <mxCell id="UhEpPuMkb6HWoTSxEaaG-337" value="&lt;span style=&quot;font-size: 24px;&quot;&gt;2&lt;/span&gt;" style="text;strokeColor=none;fillColor=none;align=center;verticalAlign=middle;spacingLeft=4;spacingRight=4;overflow=hidden;points=[[0,0.5],[1,0.5]];portConstraint=eastwest;rotatable=0;whiteSpace=wrap;html=1;fontColor=#FFFFFF;" vertex="1" parent="UhEpPuMkb6HWoTSxEaaG-340">
          <mxGeometry x="487.7280369515011" y="412.41379310344826" width="35.86235565819861" height="26.896551724137932" as="geometry" />
        </mxCell>
        <mxCell id="UhEpPuMkb6HWoTSxEaaG-338" value="&lt;span style=&quot;font-size: 24px;&quot;&gt;1&lt;/span&gt;" style="text;strokeColor=none;fillColor=none;align=center;verticalAlign=middle;spacingLeft=4;spacingRight=4;overflow=hidden;points=[[0,0.5],[1,0.5]];portConstraint=eastwest;rotatable=0;whiteSpace=wrap;html=1;fontColor=#FFFFFF;" vertex="1" parent="UhEpPuMkb6HWoTSxEaaG-340">
          <mxGeometry x="606.9703695150115" y="412.41379310344826" width="35.86235565819861" height="26.896551724137932" as="geometry" />
        </mxCell>
        <mxCell id="UhEpPuMkb6HWoTSxEaaG-339" value="&lt;span style=&quot;font-size: 24px;&quot;&gt;1&lt;/span&gt;" style="text;strokeColor=none;fillColor=none;align=center;verticalAlign=middle;spacingLeft=4;spacingRight=4;overflow=hidden;points=[[0,0.5],[1,0.5]];portConstraint=eastwest;rotatable=0;whiteSpace=wrap;html=1;fontColor=#FFFFFF;" vertex="1" parent="UhEpPuMkb6HWoTSxEaaG-340">
          <mxGeometry x="705.5918475750576" y="412.41379310344826" width="35.86235565819861" height="26.896551724137932" as="geometry" />
        </mxCell>
      </root>
    </mxGraphModel>
  </diagram>
</mxfile>
